<svg xmlns="http://www.w3.org/2000/svg" width="128" height="128" viewBox="0 0 128 128">
  <path d="M108.58417,89.8076821 C123.062886,81.7633095 126.22078,53.3483581 121.810615,53.3483581 C117.178139,53.3483581 94.5266448,70.4513403 81.9305914,33.4202137 C81.9133317,33.3683079 81.8926202,33.3312322 81.8719087,33.2793264 C78.4337971,19.9506419 67.9019914,9.82158333 54.9020635,7.85286806 C45.595689,-1.10460112 31.3116471,-1.57916898 31.3116471,3.75971991 C31.3116471,7.31156408 35.2813542,8.30889815 40.1623681,9.20242056 C28.5236309,13.2631717 19.7317985,24.1166425 17.8698308,37.4135269 C9.74929797,38.8095019 0.284972636,44.9759247 0.284972636,48.2503889 C0.284972636,51.1371066 11.8007161,56.2714305 20.9487035,58.4033836 C25.2214116,67.5666967 33.1151391,74.44319 42.6132308,76.8987901 C45.155772,88.2523193 52.8026692,97.4724809 62.807547,101.569865 C62.3793437,104.803359 62.3793437,107.569894 62.3793437,107.569894 L55.4755052,107.569894 C53.5665938,107.569894 52.0235859,109.230881 52.0235859,111.277455 C52.0235859,113.327737 53.5665938,114.985017 55.4755052,114.985017 L59.3002317,114.985017 L58.5339056,115.429924 C56.8562729,116.405013 56.2314755,118.655503 57.1393303,120.457378 C58.0437331,122.259253 60.1390481,122.930322 61.8166809,121.955233 L70.9262959,116.664542 C72.6039287,115.693161 73.228726,113.442671 72.3208712,111.640796 C71.9825832,110.973435 71.4578914,110.521113 70.8779689,110.19114 C68.8436805,107.857067 68.0935999,105.374056 67.9569537,103.169869 C70.0584815,103.62502 72.2332922,103.863887 74.460638,103.863887 C78.9803816,103.863887 83.1320134,103.181339 86.9214293,101.95569 C86.5426005,105.020363 86.5426005,107.569894 86.5426005,107.569894 L79.6387619,107.569894 C77.7298506,107.569894 76.1868427,109.230881 76.1868427,111.277455 C76.1868427,113.327737 77.7298506,114.985017 79.6387619,114.985017 L83.4634885,114.985017 L82.6971624,115.429924 C81.0195296,116.405013 80.3947323,118.655503 81.302587,120.457378 C82.2069899,122.259253 84.3023049,122.930322 85.9799376,121.955233 L95.0895527,116.664542 C96.7671854,115.693161 97.3919827,113.442671 96.484128,111.640796 C96.14584,110.973435 95.6211482,110.521113 95.0412257,110.19114 C91.8312408,106.508113 91.8187976,102.454247 92.3684924,99.7101748 C96.2866004,97.7238461 99.7349275,95.119093 102.72229,92.1044406 C105.264793,91.5573922 107.200859,90.7149272 108.58417,89.8076821 L108.58417,89.8076821 Z" transform="translate(2 3)"/>
</svg>
