<svg xmlns="http://www.w3.org/2000/svg" width="128" height="128" viewBox="0 0 128 128">
  <path d="M6.38729197,42.7621623 C1.24343406,30.441562 -0.990624574,1.95200746 1.87708259,0.289973451 C4.41546625,-1.18119488 22.2201652,4.12145016 31.9584414,11.6290423 C40.6085844,6.15373408 50.7115563,2.94698949 61.8389489,2.94698949 C72.9662116,2.94698949 83.0690775,6.15365916 91.7191473,11.6288466 C101.458469,4.121358 119.259933,-1.1811821 121.795346,0.289973451 C124.666276,1.95194526 122.435823,30.4394295 117.290028,42.7607789 C121.092334,51.8547394 123.164024,61.8404627 123.164024,71.9710265 C123.164024,107.367151 119.556667,123.42634 61.8389489,123.42634 C4.12123123,123.42634 0.513873874,107.367151 0.513873874,71.9710265 C0.513873874,61.8409764 2.5853546,51.8557521 6.38729197,42.7621623 L6.38729197,42.7621623 Z" transform="translate(2 2)"/>
</svg>
