<svg xmlns="http://www.w3.org/2000/svg" width="128" height="128" viewBox="0 0 128 128">
  <path d="M123.38658,29.3303921 C123.38658,43.9338235 116.107464,53.7087009 106.153409,56.7061274 C106.300496,58.742402 106.386013,60.7824755 106.386013,62.826348 C106.386013,84.5947304 90.9281528,91.9838235 77.0335242,94.4607843 C73.2776644,97.5379902 67.8627956,99.4868873 61.8151089,99.4868873 C55.7674221,99.4868873 50.3525533,97.5379902 46.5966936,94.4607843 C32.7020649,91.9838235 17.2442049,84.5909314 17.2442049,62.826348 C17.2442049,60.7824755 17.3297209,58.742402 17.4768084,56.7061274 C7.52275381,53.7087009 0.24363765,43.9338235 0.24363765,29.3303921 C0.24363765,11.6003676 10.9639149,4.51139706 24.1880987,4.51139706 C29.7329517,4.51139706 35.4248922,5.85625 40.1829986,8.41299024 C46.3435664,3.74399506 53.5884762,0.947916706 61.8151089,0.947916706 C70.0417415,0.947916706 77.2866513,3.74399506 83.4472191,8.41299024 C88.2053255,5.85625 93.897266,4.51139706 99.442119,4.51139706 C112.666303,4.51139706 123.38658,11.6003676 123.38658,29.3303921 Z" transform="translate(2 14)"/>
</svg>
