<svg xmlns="http://www.w3.org/2000/svg" width="128" height="128" viewBox="0 0 128 128">
  <path d="M76.5929066,113.288838 C97.2181204,109.590362 118.608696,97.7775517 118.608696,71.0681818 C118.608696,61.5644886 116.981196,51.7926136 113.803696,42.664375 C116.738587,39.9657955 121.978261,33.8009659 121.978261,24.1363636 C121.978261,7.57948864 99.1595652,9.19528409 91.0827174,10.2847727 C82.8845652,4.28755682 72.9308696,0.670454545 61.326087,0.670454545 C49.7415217,0.670454545 39.8013043,4.29426136 31.6132609,10.288125 C23.5768478,9.19863636 0.673913043,7.54931818 0.673913043,24.1363636 C0.673913043,33.8277841 5.94054348,39.9993182 8.87206522,42.6844886 C5.68108696,51.8261364 4.04347826,61.5980114 4.04347826,71.0681818 C4.04347826,97.60421 25.4086737,109.512169 46.0225481,113.262637 C50.3699061,116.250324 55.6427082,118 61.326087,118 C66.9941142,118 72.2529883,116.260551 76.5929066,113.288838 L76.5929066,113.288838 Z" transform="translate(2 5)"/>
</svg>
