<svg xmlns="http://www.w3.org/2000/svg" width="128" height="128" viewBox="0 0 128 128">
  <path fill-rule="evenodd" d="M13.2894032,44.0477252 C9.27440492,43.6872443 4.03586391,39.8633715 3.41127325,34.6415567 L0.920545657,13.742446 C0.234157031,7.969614 4.08533153,2.816171 9.52300909,2.23158 L29.2309939,0.122879 C34.1047186,-0.400687113 38.5004075,2.13204319 39.9437408,7.51608836 L57.3400467,5.654218 C66.082862,4.71823334 73.8891422,9.83271525 75.3252115,20.5534782 C75.3091099,20.4332735 75.2922076,20.3137736 75.274512,20.1949791 L87.7717701,18.856455 L90.889243,18.522517 C97.3012836,17.8387951 103.340515,19.5711894 107.825226,23.6214455 C107.960548,23.7300649 108.095546,23.8413676 108.230215,23.955381 C126.409238,39.3495982 131.698952,98.3062478 113.528148,113.690026 C95.3409048,129.084243 63.4464393,126.853751 45.2715262,111.463014 C44.1259133,110.493115 43.0567254,109.371084 42.074581,108.121268 C38.0909065,104.530197 35.0276973,99.6893279 34.3628791,94.1191182 L33.9701124,90.8154243 L32.3285064,77.0563346 C32.516991,77.0582608 32.7033195,77.0550533 32.8872403,77.0466235 C26.253729,77.3506624 16.488148,70.8613489 15.3963585,61.7331515 L13.2894032,44.0477252 L13.2894032,44.0477252 Z" transform="translate(1 2)"/>
</svg>
