<svg xmlns="http://www.w3.org/2000/svg" width="128" height="128" viewBox="0 0 128 128">
  <path d="M53.8286726,27.4704438 C60.5693855,26.8012067 61.7206238,24.2608696 70.4605263,24.2608696 C83.8815789,24.2608696 100.657895,31 100.657895,54.5869565 C100.657895,91.6521739 80.5263158,121.978261 67.1052632,121.978261 C57.0394737,121.978261 57.0394737,118.608696 50.3289474,118.608696 C43.6184211,118.608696 43.6184211,121.978261 33.5526316,121.978261 C20.1315789,121.978261 4.53917998e-15,91.6521739 0,54.5869565 C-2.62339362e-15,33.1653219 13.8375115,25.6401822 26.4318886,24.4390733 C25.7809179,24.2776615 25.1423422,24.107224 24.5209342,23.9272826 C14.8477105,21.1271739 4.74165789,7.6826087 4.74165789,7.6826087 C4.74165789,7.6826087 13.0459342,3.07304348 25.9402105,6.80652174 C38.8467461,10.545275 45.2377686,21.3844653 47.2737041,25.5594433 C48.3269087,16.1029855 52.1143324,7.59177843 58.0225658,1.66119565 C59.3344737,0.343695652 61.4583553,0.343695652 62.7702632,1.66119565 C64.0788158,2.97869565 64.0788158,5.11163043 62.7702632,6.42576087 C57.6957983,11.5188949 54.5232358,19.0528857 53.8286726,27.4704438 L53.8286726,27.4704438 Z" transform="translate(13 2)"/>
</svg>
