<?xml version="1.0" encoding="UTF-8"?>
<svg width="1024px" height="1024px" viewBox="0 0 1024 1024" version="1.1" xmlns="http://www.w3.org/2000/svg" xmlns:xlink="http://www.w3.org/1999/xlink">
    <!-- Generator: Sketch 43.1 (39012) - http://www.bohemiancoding.com/sketch -->
    <title>twemoji/controller/8ball</title>
    <desc>Created with Sketch.</desc>
    <defs></defs>
    <g id="Twemoji" stroke="none" stroke-width="1" fill="none" fill-rule="evenodd">
        <g id="twemoji/controller/8ball" fill-rule="nonzero">
            <g id="8ball" transform="translate(16.000000, 16.000000)">
                <path d="M490.608696,5.39130435 C222.633913,5.39130435 5.39130435,222.633913 5.39130435,490.608696 C5.39130435,758.583478 222.633913,975.826087 490.608696,975.826087 C758.583478,975.826087 975.826087,758.583478 975.826087,490.608696 C975.826087,222.633913 758.556522,5.39130435 490.608696,5.39130435" id="Shape" fill="#292F33" transform="translate(490.608696, 490.608696) scale(-1, 1) rotate(-180.000000) translate(-490.608696, -490.608696) "></path>
                <path d="M733.217391,490.608696 C733.217391,356.607826 624.609565,248 490.608696,248 C356.607826,248 248,356.607826 248,490.608696 C248,624.609565 356.607826,733.217391 490.608696,733.217391 C624.609565,733.217391 733.217391,624.609565 733.217391,490.608696" id="Shape" fill="#E1E8ED" transform="translate(490.608696, 490.608696) scale(-1, 1) rotate(-180.000000) translate(-490.608696, -490.608696) "></path>
                <path d="M457.700174,559.471826 C457.700174,538.149217 470.019304,523.457913 491.82713,523.457913 C513.608,523.457913 526.412348,538.149217 526.412348,559.471826 C526.412348,579.850957 514.093217,595.485739 491.82713,595.485739 C469.534087,595.485739 457.700174,579.850957 457.700174,559.471826 M448.696696,422.047478 C448.696696,397.894435 462.902783,374.68487 491.82713,374.68487 C518.837565,374.68487 534.930609,397.894435 534.930609,422.047478 C534.930609,451.915304 517.86713,469.437043 491.82713,469.437043 C464.331478,469.437043 448.696696,448.599652 448.696696,422.047478 M374.781913,417.330087 C374.781913,455.230957 395.619304,483.18487 425.48713,499.30487 C403.221043,515.397913 389.473217,537.205739 389.473217,567.046609 C389.473217,622.496174 435.434087,658.02487 491.82713,658.02487 C546.791478,658.02487 594.639304,622.954435 594.639304,567.046609 C594.639304,540.521391 581.376696,513.996174 558.16713,499.30487 C590.380174,483.18487 608.845391,453.802261 608.845391,417.330087 C608.845391,351.448348 555.309739,309.288348 491.82713,309.288348 C426.430609,309.288348 374.781913,353.820522 374.781913,417.330087" id="Shape" fill="#292F33" transform="translate(491.813652, 483.656609) scale(-1, 1) rotate(-180.000000) translate(-491.813652, -483.656609) "></path>
            </g>
        </g>
    </g>
</svg>