<svg xmlns="http://www.w3.org/2000/svg" width="1024" height="1024" viewBox="0 0 1024 1024">
  <path d="M430.629381,219.76355 C484.555084,214.409653 493.764991,194.086957 563.684211,194.086957 C671.052632,194.086957 805.263158,248 805.263158,436.695652 C805.263158,733.217391 644.210526,975.826087 536.842105,975.826087 C456.315789,975.826087 456.315789,948.869565 402.631579,948.869565 C348.947368,948.869565 348.947368,975.826087 268.421053,975.826087 C161.052632,975.826087 3.63134399e-14,733.217391 0,436.695652 C-2.0987149e-14,265.322575 110.700092,205.121458 211.455108,195.512586 C206.247343,194.221292 201.138738,192.857792 196.167474,191.418261 C118.781684,169.017391 37.9332632,61.4608696 37.9332632,61.4608696 C37.9332632,61.4608696 104.367474,24.5843478 207.521684,54.4521739 C310.773969,84.3621997 361.902149,171.075722 378.189633,204.475547 C386.61527,128.823884 416.914659,60.7342275 464.180526,13.2895652 C474.675789,2.74956522 491.666842,2.74956522 502.162105,13.2895652 C512.630526,23.8295652 512.630526,40.8930435 502.162105,51.406087 C461.566386,92.1511594 436.185886,152.423086 430.629381,219.76355 L430.629381,219.76355 Z" transform="translate(104 16)"/>
</svg>
