<svg xmlns="http://www.w3.org/2000/svg" width="1024" height="1024" viewBox="0 0 1024 1024">
  <path d="M376.778819,219.966398 C382.583879,138.153615 413.709397,63.9516147 464.180526,13.2895652 C474.675789,2.74956522 491.666842,2.74956522 502.162105,13.2895652 C512.630526,23.8295652 512.630526,40.8930435 502.162105,51.406087 C468.18818,85.505004 444.870622,133.280052 434.910789,187.428997 C455.069677,163.927303 530.305907,86.2608696 644.210526,86.2608696 C751.578947,86.2608696 805.263158,140.173913 805.263158,140.173913 C805.263158,140.173913 736.620215,191.875567 667.940877,212.600088 C742.196025,241.3294 805.263158,307.344546 805.263158,436.695652 C805.263158,733.217391 644.210526,975.826087 536.842105,975.826087 C456.315789,975.826087 456.315789,948.869565 402.631579,948.869565 C348.947368,948.869565 348.947368,975.826087 268.421053,975.826087 C161.052632,975.826087 3.63134399e-14,733.217391 0,436.695652 C-2.31085526e-14,248 134.210526,194.086957 241.578947,194.086957 C312.415168,194.086957 320.93921,214.946219 376.778819,219.966398 L376.778819,219.966398 Z" transform="translate(104 16)"/>
</svg>
