<?xml version="1.0" encoding="UTF-8"?>
<svg width="1024px" height="1024px" viewBox="0 0 1024 1024" version="1.1" xmlns="http://www.w3.org/2000/svg" xmlns:xlink="http://www.w3.org/1999/xlink">
    <!-- Generator: Sketch 43.1 (39012) - http://www.bohemiancoding.com/sketch -->
    <title>twemoji/controller/baseball</title>
    <desc>Created with Sketch.</desc>
    <defs></defs>
    <g id="Twemoji" stroke="none" stroke-width="1" fill="none" fill-rule="evenodd">
        <g id="twemoji/controller/baseball">
            <g id="baseball" transform="translate(16.000000, 16.000000)">
                <path d="M490.608696,5.39130435 C222.633913,5.39130435 5.39130435,222.633913 5.39130435,490.608696 C5.39130435,758.583478 222.633913,975.826087 490.608696,975.826087 C758.583478,975.826087 975.826087,758.583478 975.826087,490.608696 C975.826087,222.633913 758.556522,5.39130435 490.608696,5.39130435" id="Shape" fill="#E1E8ED" fill-rule="nonzero" transform="translate(490.608696, 490.608696) scale(-1, 1) rotate(-180.000000) translate(-490.608696, -490.608696) "></path>
                <path d="M824.297271,842.858906 C837.879352,829.988223 850.71772,816.340463 862.741148,801.986821 C781.525569,766.309053 733.217391,653.711695 733.217391,490.608696 C733.217391,327.501379 781.528126,214.902378 862.747598,179.227737 C850.724318,164.873771 837.886005,151.225733 824.303859,138.354823 C744.19531,182.882233 679.304348,290.366855 679.304348,490.608696 C679.304348,690.845048 744.191753,798.329266 824.297271,842.858906 L824.297271,842.858906 Z" id="Combined-Shape" fill="#B3BEC4"></path>
                <path d="M118.46714,801.986486 C130.489904,816.340083 143.327652,829.987803 156.909191,842.858454 C237.012117,798.328539 301.913043,690.84437 301.913043,490.608696 C301.913043,290.373021 237.012117,182.888853 156.909191,138.358937 C143.327652,151.229588 130.489904,164.877309 118.46714,179.230905 C199.674113,214.909043 248,327.506207 248,490.608696 C248,653.711184 199.674113,766.308348 118.46714,801.986486 L118.46714,801.986486 Z" id="Combined-Shape" fill="#B3BEC4"></path>
                <path d="M142.653913,141.865716 C136.265217,141.865716 130.334783,142.404846 125.105217,143.375281 C110.467826,146.124846 100.844348,160.223107 103.566957,174.833542 C106.316522,189.497889 120.414783,199.148324 135.025217,196.371803 C146.616522,194.29615 207.565217,196.210063 219.884348,257.724846 C222.795652,272.308324 236.92087,281.743107 251.612174,278.858759 C266.195652,275.947455 275.684348,261.741368 272.746087,247.130933 C257.057391,168.633542 188.129565,141.865716 142.653913,141.865716" id="Shape" fill="#DD2E44" fill-rule="nonzero" transform="translate(188.193121, 210.621553) scale(-1, 1) rotate(-180.000000) translate(-188.193121, -210.621553) "></path>
                <path d="M188.997565,268.310813 C174.710609,268.310813 162.795826,273.648204 162.094957,288.0969 C161.394087,302.949943 172.877565,312.654291 187.757565,313.355161 L190.830609,312.034291 C223.286261,313.5169 256.874087,314.298639 292.052348,375.193422 C299.465391,388.078639 315.935826,392.17603 328.874957,384.682117 C341.760174,377.242117 346.181043,360.55603 338.714087,347.670813 C288.790609,261.248204 231.319304,264.402117 193.310609,262.6769 L190.291478,268.310813 L188.997565,268.310813 Z" id="Shape" fill="#DD2E44" fill-rule="nonzero" transform="translate(252.205080, 325.546711) scale(-1, 1) rotate(-180.000000) translate(-252.205080, -325.546711) "></path>
                <path d="M248,426.581817 C228.213913,426.581817 209.883478,430.220947 196.027826,436.771382 C182.576522,443.160078 176.834783,459.226165 183.223478,472.677469 C189.585217,486.15573 205.705217,491.843556 219.129565,485.508773 C241.476522,474.91486 297.977391,479.066165 319.677391,512.788773 C327.737391,525.323556 344.423478,528.93573 356.931304,520.902687 C369.466087,512.842687 373.078261,496.1566 365.045217,483.648773 C339.032174,443.213991 290.213913,426.581817 248,426.581817" id="Shape" fill="#DD2E44" fill-rule="nonzero" transform="translate(274.966523, 475.879778) scale(-1, 1) rotate(-180.000000) translate(-274.966523, -475.879778) "></path>
                <path d="M279.29113,586.627607 C237.400696,586.627607 198.556348,605.470215 173.459826,626.415433 C162.003304,635.931085 160.466783,652.94065 170.009391,664.397172 C179.552,675.853694 196.534609,677.336302 207.964174,667.847607 C213.193739,663.453694 260.583304,625.633694 309.913739,646.686737 C323.580696,652.455433 339.43113,646.093694 345.253739,632.372824 C351.076348,618.651954 344.660696,602.855433 330.966783,597.032824 C313.714609,589.70065 296.246783,586.627607 279.29113,586.627607" id="Shape" fill="#DD2E44" fill-rule="nonzero" transform="translate(255.576340, 630.356586) scale(-1, 1) rotate(-180.000000) translate(-255.576340, -630.356586) "></path>
                <path d="M268.228174,691.656424 L267.473391,691.656424 C199.974261,691.656424 141.31687,733.978163 118.296,775.437294 C111.044696,788.457294 115.762087,803.579903 128.75513,810.831207 C141.77513,818.082511 158.191652,812.718163 165.416,799.72512 C178.462957,776.24599 219.221217,742.199903 268.956,740.82512 C283.862957,740.420772 295.589043,730.392946 295.157739,715.512946 C294.753391,700.875555 282.784696,691.656424 268.228174,691.656424" id="Shape" fill="#DD2E44" fill-rule="nonzero" transform="translate(205.029859, 752.871690) scale(-1, 1) rotate(-180.000000) translate(-205.029859, -752.871690) "></path>
                <path d="M738.306783,681.584407 C736.554609,681.584407 734.775478,681.746146 732.996348,682.123537 C718.41287,685.034842 708.924174,699.213972 711.862435,713.824407 C729.761565,803.400929 816.804174,825.720929 859.503304,817.580059 C874.140696,814.830494 883.764174,800.75919 881.014609,786.121798 C878.265043,771.511363 864.382435,761.780059 849.556348,764.610494 C838.099826,766.767016 777.043304,764.79919 764.697217,703.25745 C762.163304,690.426146 750.895478,681.584407 738.306783,681.584407" id="Shape" fill="#DD2E44" fill-rule="nonzero" transform="translate(796.406046, 750.358812) scale(-1, 1) rotate(-180.000000) translate(-796.406046, -750.358812) "></path>
                <path d="M669.168696,566.416576 C664.586087,566.416576 659.949565,567.575707 655.717391,570.02875 C642.805217,577.46875 638.384348,593.966141 645.851304,606.851359 C695.774783,693.273967 753.246087,695.915707 791.254783,697.66788 L794.273913,697.802663 C808.803478,698.692228 821.769565,687.047011 822.470435,672.167011 C823.198261,657.287011 811.714783,644.644402 796.834783,643.943533 L793.734783,643.80875 C761.27913,642.299185 727.718261,640.78962 692.54,579.894837 C687.553043,571.241793 678.495652,566.416576 669.168696,566.416576" id="Shape" fill="#DD2E44" fill-rule="nonzero" transform="translate(732.361955, 632.133505) scale(-1, 1) rotate(-180.000000) translate(-732.361955, -632.133505) "></path>
                <path d="M642.212174,435.803714 C637.198261,435.803714 632.184348,437.178496 627.655652,440.089801 C615.147826,448.122844 611.508696,464.808931 619.568696,477.343714 C657.712174,536.728931 745.078261,544.761975 788.55913,524.194149 C802.010435,517.805453 807.77913,501.739366 801.363478,488.288062 C795.028696,474.809801 778.881739,469.068062 765.484348,475.456757 C743.137391,486.077627 686.609565,481.899366 664.909565,448.176757 C659.76087,440.17067 651.08087,435.803714 642.212174,435.803714" id="Shape" fill="#DD2E44" fill-rule="nonzero" transform="translate(709.633177, 485.105683) scale(-1, 1) rotate(-180.000000) translate(-709.633177, -485.105683) "></path>
                <path d="M793.837217,286.905385 C787.745043,286.905385 781.65287,288.954081 776.585043,293.159298 C771.355478,297.526254 723.965913,335.184515 674.662435,314.320167 C660.941565,308.524515 645.145043,314.886254 639.322435,328.607124 C633.499826,342.301037 639.888522,358.151472 653.609391,363.947124 C713.425913,389.340167 775.857217,363.974081 811.143304,334.564515 C822.545913,325.048863 824.109391,308.039298 814.593739,296.609733 C809.229391,290.221037 801.573739,286.905385 793.837217,286.905385" id="Shape" fill="#DD2E44" fill-rule="nonzero" transform="translate(728.997050, 330.638779) scale(-1, 1) rotate(-180.000000) translate(-728.997050, -330.638779) "></path>
                <path d="M842.768696,140.16313 C833.28,140.16313 824.114783,145.177043 819.181739,154.018783 C806.134783,177.52487 765.376522,211.247478 715.641739,212.622261 C700.734783,213.026609 689.035652,226.262261 689.44,241.169217 C689.844348,255.779652 701.813043,268.206609 716.369565,268.206609 L717.124348,268.206609 C784.650435,268.206609 843.28087,222.542261 866.301739,181.08313 C873.553043,168.036174 868.862609,151.215304 855.815652,143.990957 C851.691304,141.672696 847.189565,140.16313 842.768696,140.16313" id="Shape" fill="#DD2E44" fill-rule="nonzero" transform="translate(779.570919, 204.184870) scale(-1, 1) rotate(-180.000000) translate(-779.570919, -204.184870) "></path>
            </g>
        </g>
    </g>
</svg>