<?xml version="1.0" encoding="UTF-8"?>
<svg width="1024px" height="1024px" viewBox="0 0 1024 1024" version="1.1" xmlns="http://www.w3.org/2000/svg" xmlns:xlink="http://www.w3.org/1999/xlink">
    <!-- Generator: Sketch 43.1 (39012) - http://www.bohemiancoding.com/sketch -->
    <title>twemoji/controller/basketball</title>
    <desc>Created with Sketch.</desc>
    <defs></defs>
    <g id="Twemoji" stroke="none" stroke-width="1" fill="none" fill-rule="evenodd">
        <g id="twemoji/controller/basketball" fill-rule="nonzero">
            <g id="basketball" transform="translate(16.000000, 16.000000)">
                <path d="M975.826087,490.608696 C975.826087,222.633913 758.583478,5.39130435 490.608696,5.39130435 C222.633913,5.39130435 5.39130435,222.633913 5.39130435,490.608696 C5.39130435,758.583478 222.633913,975.826087 490.608696,975.826087 C758.583478,975.826087 975.826087,758.583478 975.826087,490.608696" id="Shape" fill="#F4900C" transform="translate(490.608696, 490.608696) scale(-1, 1) rotate(-180.000000) translate(-490.608696, -490.608696) "></path>
                <path d="M679.70875,463.652174 L517.565217,463.652174 L517.565217,5.39130435 L463.652174,5.39130435 L463.652174,463.652174 L301.508642,463.652174 C295.93054,280.650453 233.339929,180.847451 156.909191,138.358937 C143.328651,151.228641 130.491793,164.875301 118.469794,179.227737 C195.135071,212.902005 242.478705,315.115784 247.547027,463.652174 L5.39130435,463.652174 L5.39130435,517.565217 L247.547027,517.565217 C242.478705,666.101607 195.135071,768.315386 118.469794,801.989654 C130.491793,816.342091 143.328651,829.98875 156.909191,842.858454 C233.339929,800.36994 295.93054,700.566938 301.508642,517.565217 L463.652174,517.565217 L463.652174,975.826087 L517.565217,975.826087 L517.565217,517.565217 L679.70875,517.565217 C685.286851,700.566938 747.877462,800.36994 824.3082,842.858454 C837.88974,829.987803 850.727488,816.340083 862.750251,801.986486 C786.096906,768.308976 738.740465,666.09695 733.670526,517.565217 L975.826087,517.565217 L975.826087,463.652174 L733.670526,463.652174 C738.740465,315.120442 786.096906,212.908415 862.750251,179.230905 C850.727488,164.877309 837.88974,151.229588 824.3082,138.358937 C747.877462,180.847451 685.286851,280.650453 679.70875,463.652174 L679.70875,463.652174 Z" id="Combined-Shape" fill="#231F20"></path>
            </g>
        </g>
    </g>
</svg>