<svg xmlns="http://www.w3.org/2000/svg" width="1024" height="1024" viewBox="0 0 1024 1024">
  <path d="M868.673361,718.461457 C984.503085,654.106476 1009.76624,426.786865 974.484921,426.786865 C937.425113,426.786865 756.213158,563.610722 655.444731,267.36171 C655.306654,266.946463 655.140962,266.649858 654.97527,266.234611 C627.470377,159.605135 543.215931,78.5726667 439.216508,62.8229444 C364.765512,-8.83680895 250.493177,-12.6333519 250.493177,30.0777593 C250.493177,58.4925127 282.250834,66.4711852 321.298945,73.6193645 C228.189047,106.105374 157.854388,192.93314 142.958646,299.308215 C77.9943837,310.476015 2.27978108,359.807398 2.27978108,386.003111 C2.27978108,409.096852 94.4057291,450.171444 167.589628,467.227069 C201.771293,540.533573 264.921113,595.54552 340.905846,615.190321 C361.246176,706.018554 422.421353,779.779848 502.460376,812.558921 C499.03475,838.426873 499.03475,860.559148 499.03475,860.559148 L443.804041,860.559148 C428.53275,860.559148 416.188687,873.84705 416.188687,890.219642 C416.188687,906.621895 428.53275,919.880136 443.804041,919.880136 L474.401854,919.880136 L468.271245,923.439395 C454.850183,931.240105 449.851804,949.244025 457.114642,963.659025 C464.349865,978.074025 481.112385,983.442574 494.533447,975.641864 L567.410367,933.316339 C580.831429,925.54529 585.829808,907.54137 578.56697,893.12637 C575.860665,887.787481 571.663131,884.168902 567.023752,881.529117 C550.749444,862.856535 544.748799,842.992451 543.65563,825.358955 C560.467852,829.000157 577.866337,830.911093 595.685104,830.911093 C631.843052,830.911093 665.056107,825.450711 695.371435,815.645519 C692.340804,840.162903 692.340804,860.559148 692.340804,860.559148 L637.110096,860.559148 C621.838805,860.559148 609.494741,873.84705 609.494741,890.219642 C609.494741,906.621895 621.838805,919.880136 637.110096,919.880136 L667.707908,919.880136 L661.577299,923.439395 C648.156237,931.240105 643.157858,949.244025 650.420696,963.659025 C657.655919,978.074025 674.418439,983.442574 687.839501,975.641864 L760.716421,933.316339 C774.137483,925.54529 779.135862,907.54137 771.873024,893.12637 C769.16672,887.787481 764.969185,884.168902 760.329806,881.529117 C734.649927,852.064904 734.550381,819.633979 738.94794,797.681399 C770.292803,781.790769 797.87942,760.952744 821.778321,736.835524 C842.118346,732.459137 857.60687,725.719417 868.673361,718.461457 L868.673361,718.461457 Z" transform="translate(16 24)"/>
</svg>
