<svg xmlns="http://www.w3.org/2000/svg" width="1024" height="1024" viewBox="0 0 1024 1024">
  <path d="M51.0983357,342.097298 C9.94747245,243.532496 -7.92499659,15.6160597 15.0166607,2.31978761 C35.32373,-9.44955908 177.761322,32.9716013 255.667531,93.0323386 C324.868675,49.2298726 405.692451,23.5759159 494.711591,23.5759159 C583.729692,23.5759159 664.55262,49.2292732 733.753179,93.0307728 C811.667754,32.970864 954.079461,-9.4494568 974.362769,2.31978761 C997.330212,15.615562 979.486583,243.515436 938.320223,342.086231 C968.738668,414.837915 985.312195,494.723702 985.312195,575.768212 C985.312195,858.937209 956.453333,987.41072 494.711591,987.41072 C32.9698499,987.41072 4.11099099,858.937209 4.11099099,575.768212 C4.11099099,494.727811 20.6828368,414.846017 51.0983357,342.097298 L51.0983357,342.097298 Z" transform="translate(16 16)"/>
</svg>
