<svg xmlns="http://www.w3.org/2000/svg" width="1024" height="1024" viewBox="0 0 1024 1024">
  <path d="M471.196317,946.406001 C556.487144,955.549688 614.655548,989.737211 674.092348,969.588348 C737.844522,947.996174 781.918435,896.644 781.918435,809.466609 C781.918435,724.122261 733.261913,636.32487 668.054087,567.262261 C742.292348,438.032696 869.661913,10.2326957 857.369739,5.54226087 C844.781043,0.744 641.771478,112.586609 588.640174,251.682261 C557.20887,333.953565 543.218435,414.957913 544.108,470.353565 C504.50887,449.08487 465.368,436.711826 431.483652,436.711826 C397.599304,436.711826 358.458435,449.057913 318.859304,470.353565 C319.775826,414.957913 305.758435,333.953565 274.354087,251.682261 C221.222783,112.586609 18.1862609,0.744 5.59756522,5.54226087 C-6.66765217,10.2326957 120.648,438.005739 194.96713,567.235304 C129.705391,636.32487 81.0488696,724.095304 81.0488696,809.466609 C81.0488696,896.644 125.122783,947.996174 188.901913,969.588348 C249.549942,990.15594 308.897626,954.105268 397.123897,945.869096 C409.642542,947.834813 422.632963,948.869565 435.953043,948.869565 C448.006015,948.869565 459.788829,948.022765 471.196317,946.406001 L471.196317,946.406001 Z" transform="translate(88 16)"/>
</svg>
