<svg xmlns="http://www.w3.org/2000/svg" width="1024" height="1024" viewBox="0 0 1024 1024">
  <path d="M34.1620347,481.805765 L80.6068293,412.695652 L101.219307,433.405897 C104.581339,414.328566 107.301598,395.737664 108.595122,377.975652 C108.031707,370.212174 107.414634,362.502609 107.414634,354.604348 C107.414634,194.401739 223.45122,61.7486957 375.6,36.0052174 C343.7,29.0234783 321.109756,22.2843478 348.878049,8.34782609 C378.819512,-6.69391304 408.707317,11.8252174 429.339024,31.126087 L429.365854,31.126087 L429.392683,31.126087 C449.997561,11.8252174 479.939024,-6.69391304 509.853659,8.34782609 C537.621951,22.2843478 515.031707,29.0234783 483.131707,36.0052174 C635.307317,61.7486957 751.317073,194.401739 751.317073,354.604348 C751.317073,362.502609 750.7,370.212174 750.136585,377.975652 C751.428383,395.750761 754.149556,414.355984 757.513324,433.448099 L778.167805,412.695652 L827.857047,512.545498 L844.763415,463.993913 C853.509756,495.074783 858.634146,527.422609 858.634146,560.956522 C858.634146,776.851304 666.429268,951.826087 429.365854,951.826087 C192.302439,951.826087 0.0975609756,776.851304 0.0975609756,560.956522 C0.0975609756,520.953043 6.77804878,482.351304 19.0390244,445.986957 L34.1620347,481.805765 Z" transform="translate(88 40)"/>
</svg>
