<svg xmlns="http://www.w3.org/2000/svg" width="1024" height="1024" viewBox="0 0 1024 1024">
  <path d="M113.217391,551.672648 L113.217391,473.479359 C61.5630205,492.203265 5.39130435,501.565217 5.39130435,501.565217 C5.39130435,315.138365 69.060308,240.132269 98.5484677,215.390774 C37.8136524,149.897146 11.7238559,36.5634009 32.3478261,16.3478261 C78.8192487,-29.167769 123.676774,79.0211397 201.405085,113.828208 C249.438364,70.0186925 313.331365,43.3043478 383.456522,43.3043478 L597.787826,43.3043478 C669.137337,43.3043478 734.029007,70.9596767 782.328031,116.138473 C863.458512,84.1453259 909.339521,-30.228107 956.870261,16.3478261 C977.995795,37.0345505 950.172345,155.2305 886.36998,219.890268 C917.189356,247.696957 975.696696,324.019426 975.696696,502.729739 C975.696696,502.729739 919.618738,493.383413 868,474.69076 L868,551.682685 C917.904015,600.609068 948.869565,668.78184 948.869565,744.173913 C948.869565,893.027826 828.158261,959.826087 679.304348,959.826087 L301.913043,959.826087 C153.032174,959.826087 32.3478261,893.027826 32.3478261,744.173913 C32.3478261,668.776684 63.3106962,600.599744 113.217391,551.672648 L113.217391,551.672648 Z" transform="translate(16 32)"/>
</svg>
