<svg xmlns="http://www.w3.org/2000/svg" width="1024" height="1024" viewBox="0 0 1024 1024">
  <path d="M755.882506,782.267581 C785.641561,771.352004 834.79931,735.934389 840.499332,621.015366 C859.887744,640.855592 878.362261,652.347826 894.956522,652.347826 C975.826087,652.347826 975.826087,382.782609 975.826087,274.956522 C975.826087,34.2018133 673.911731,-13.0318349 610.163283,37.2344797 C575.668718,17.1028751 536.066599,5.39130435 490.608696,5.39130435 C445.150792,5.39130435 405.548674,17.1028751 371.054245,37.2343983 C307.305661,-13.0318349 5.39130435,34.2018133 5.39130435,274.956522 C5.39130435,382.782609 5.39130435,652.347826 86.2608696,652.347826 C102.85513,652.347826 121.329647,640.855592 140.718059,621.015366 C146.418081,735.934389 195.575831,771.352004 225.334885,782.267581 C241.261941,846.96942 299.670094,894.972696 369.304348,894.972696 C383.327469,894.972696 396.889793,893.020092 409.73913,889.373538 L409.73913,894.956522 C409.73913,894.956522 409.73913,975.826087 490.608696,975.826087 C571.478261,975.826087 571.478261,894.956522 571.478261,894.956522 L571.478261,889.373538 C584.327599,893.020092 597.889922,894.972696 611.913043,894.972696 C681.547298,894.972696 739.955451,846.96942 755.882506,782.267581 L755.882506,782.267581 Z" transform="translate(16 16)"/>
</svg>
