<?xml version="1.0" encoding="UTF-8"?>
<svg width="1024px" height="1024px" viewBox="0 0 1024 1024" version="1.1" xmlns="http://www.w3.org/2000/svg" xmlns:xlink="http://www.w3.org/1999/xlink">
    <!-- Generator: Sketch 43.1 (39012) - http://www.bohemiancoding.com/sketch -->
    <title>twemoji/controller/earth</title>
    <desc>Created with Sketch.</desc>
    <defs></defs>
    <g id="Twemoji" stroke="none" stroke-width="1" fill="none" fill-rule="evenodd">
        <g id="twemoji/controller/earth">
            <g id="earth" transform="translate(16.000000, 16.000000)">
                <path d="M992,496 C992,222.070222 769.929778,0 496,0 C222.070222,0 0,222.070222 0,496 C0,769.929778 222.070222,992 496,992 C769.929778,992 992,769.929778 992,496" id="Shape" fill="#88C9F9" fill-rule="nonzero" transform="translate(496.000000, 496.000000) scale(-1, 1) rotate(-180.000000) translate(-496.000000, -496.000000) "></path>
                <path d="M984.118039,412.678489 C956.175372,253.527909 851.901241,120.660357 710.437301,53.2174883 C682.184969,68.7214725 658.801085,95.4929372 626.921217,85.9374783 C575.562522,70.5161739 507.084261,36.3044348 462.573391,79.0896522 C418.062522,121.902261 407.790783,161.263565 462.573391,159.537913 C517.356,157.839652 555.019043,92.7853043 582.410348,120.176609 C609.801652,147.567913 602.953826,169.809652 537.899478,178.38313 C472.84513,186.929217 402.641217,197.200957 364.978174,197.200957 C327.342522,197.200957 318.769043,219.470087 344.434696,243.437478 C370.127739,267.40487 329.040783,269.130522 286.255565,293.097913 C243.442957,317.065304 296.527304,327.337043 332.464696,347.880522 C368.402087,368.424 395.793391,342.730957 411.214696,308.491826 C426.608609,274.252696 492.840783,233.165739 520.506,238.287913 C548.171217,243.437478 548.171217,257.13313 543.021652,281.100522 C537.899478,305.067913 563.592522,298.220087 565.290783,270.828783 C567.016435,243.437478 597.831652,222.894 621.799043,221.168348 C645.766435,219.470087 666.282522,253.709217 638.918609,270.828783 C611.527304,287.948348 584.136,301.644 618.37513,310.217478 C652.614261,318.763565 676.554261,363.274435 637.192957,382.119652 C597.831652,400.937478 529.326,412.93487 498.510783,397.513565 C467.695565,382.119652 397.519043,359.850522 378.673826,371.847913 C359.856,383.817913 349.584261,396.198783 327.342522,404.55313 C305.073391,412.93487 214.353391,454.021826 212.627739,507.078783 C210.929478,560.135739 209.203826,620.067913 245.168609,621.766174 C281.106,623.491826 368.402087,599.524435 395.793391,577.255304 C423.184696,555.013565 460.847739,560.135739 472.84513,585.828783 C484.81513,611.494435 476.269043,626.915739 464.271652,668.002696 C452.301652,709.089652 472.132957,729.63313 491.30687,765.570522 C510.508174,801.535304 525.902087,822.078783 525.902087,847.744435 C525.902087,873.437478 553.320783,899.10313 594.407739,856.317913 C635.494696,813.505304 673.130348,729.63313 690.249913,698.817913 C707.369478,668.002696 721.092522,599.524435 741.636,585.828783 C762.179478,572.13313 794.692957,539.592261 770.725565,544.741826 C746.758174,549.864 698.823391,543.016174 686.826,508.777043 C674.856,474.565304 623.497304,409.510957 647.464696,402.66313 C671.432087,395.815304 698.823391,440.709652 709.09513,461.910522 C719.36687,483.111391 733.062522,508.777043 753.606,515.62487 C774.149478,522.472696 818.660348,469.826609 832.356,461.910522 C846.051652,454.021826 835.779913,421.480957 808.388609,424.90487 C780.997304,428.328783 745.059913,424.90487 745.059913,407.785304 C745.059913,390.665739 779.271652,368.424 806.662957,373.546174 C834.081652,378.695739 854.62513,387.241826 871.744696,407.785304 C888.83687,428.328783 923.076,465.991826 936.771652,489.959217 C950.467304,513.926609 960.739043,517.350522 967.58687,474.565304 C972.231508,445.527027 978.451293,429.883798 984.118039,412.678489 L984.118039,412.678489 Z" id="Combined-Shape" fill="#5C913B"></path>
            </g>
        </g>
    </g>
</svg>