<svg xmlns="http://www.w3.org/2000/svg" width="1024" height="1024" viewBox="0 0 1024 1024">
  <path d="M527.019613,57.0742738 C527.002481,57.0606125 526.985168,57.0470685 526.967652,57.0336585 C400.433739,-37.4321951 115.665043,-5.93463415 52.4250435,88.5312195 C-35.3453913,219.538537 20.778087,686.823902 52.4250435,749.765366 C84.0450435,812.787317 178.958957,844.23122 210.578957,812.787317 C242.225913,781.236098 210.578957,781.236098 178.958957,718.321463 C156.045913,672.684878 166.397217,561.101951 185.83287,491.050732 C186.587652,495.558049 187.665913,499.689756 188.528522,504.089756 C199.014609,581.116585 242.225913,702.948293 242.225913,765.514146 C242.225913,861.160488 298.888522,875.72878 368.786783,875.72878 C438.685043,875.72878 495.347652,861.160488 495.347652,765.514146 C495.347652,759.075122 495.132,753.119024 495.024174,746.867805 C515.430261,748.611707 536.402435,749.765366 558.614609,749.765366 C572.012,749.765366 584.95113,749.336098 597.674609,748.692195 C597.566783,754.299512 597.324174,759.719024 597.324174,765.514146 C597.324174,861.160488 653.986783,875.72878 723.858087,875.72878 C793.756348,875.72878 850.445913,861.160488 850.445913,765.514146 C850.445913,717.221463 882.578087,641.42878 905.410261,578.192195 C909.696348,568.721463 913.254609,558.553171 916.705043,548.223902 C919.885913,583.316585 921.907652,620.850732 921.907652,661.094634 C921.907652,675.93122 933.957217,687.923902 948.864174,687.923902 C963.77113,687.923902 975.820696,675.93122 975.820696,661.094634 C975.820696,522.870244 955.010261,412.977561 934.118957,337.319024 C910.828522,141.465366 779.685043,57.0336585 558.614609,57.0336585 C548.101565,57.0336585 538.073739,57.4897561 527.938087,57.8653659 C527.613953,57.6420245 527.359005,57.3498234 527.045255,57.0949154 C527.008101,57.0505834 526.989217,57.0282927 526.989217,57.0282927 L527.019613,57.0742738 L527.019613,57.0742738 Z" transform="translate(16 72)"/>
</svg>
