<svg xmlns="http://www.w3.org/2000/svg" width="1024" height="1024" viewBox="0 0 1024 1024">
  <path d="M577.817008,147.582107 C629.738543,60.5255175 706.628968,32.24435 726.46991,32.24435 C754.071421,32.24435 754.071421,4.87853136 726.46991,4.87853136 C639.319203,4.87853136 483.374744,38.9816899 340.091644,161.027713 C200.40934,235.099158 123.642568,421.32909 69.8489069,517.086419 C68.1717502,520.070238 66.5168781,522.966146 64.8830797,525.768008 C64.054506,527.192897 63.0478279,528.546229 61.8912398,529.837745 C38.7923135,555.609208 -43.9732916,556.766843 37.5848304,610.684381 C-6.43108257,639.777852 -1.90807637,655.180374 15.7789142,666.477216 C32.4912172,677.154416 60.9525362,684.156363 71.3161904,695.574682 C116.174176,745.047759 200.67564,798.349581 293.215059,831.775466 C417.260583,907.21425 591.480944,990.050847 698.861277,990.050847 C781.665808,990.050847 754.064297,962.685028 726.462788,962.685028 C707.224057,962.685028 594.117225,922.799362 517.997678,861.562029 C654.297656,841.701505 778.086674,746.248783 820.95807,620.81883 C853.581432,713.9157 923.125894,798.491525 968.494198,798.491525 C1029.46593,798.491525 913.291178,645.735523 913.291178,524.833333 C913.291178,403.931144 1029.46593,251.175142 968.494198,251.175142 C924.101093,251.175142 856.560001,332.154102 823.112362,422.856972 C790.989112,302.226082 704.162017,190.121369 577.817008,147.582107 L577.817008,147.582107 Z" transform="translate(16 16)"/>
</svg>
