<?xml version="1.0" encoding="UTF-8"?>
<svg width="1024px" height="1024px" viewBox="0 0 1024 1024" version="1.1" xmlns="http://www.w3.org/2000/svg" xmlns:xlink="http://www.w3.org/1999/xlink">
    <!-- Generator: Sketch 43.1 (39012) - http://www.bohemiancoding.com/sketch -->
    <title>twemoji/controller/football</title>
    <desc>Created with Sketch.</desc>
    <defs></defs>
    <g id="Twemoji" stroke="none" stroke-width="1" fill="none" fill-rule="evenodd">
        <g id="twemoji/controller/football">
            <g id="football">
                <path d="M802.820622,224.490844 C610.034622,31.7048444 296.767956,-40.6004889 79.9084,79.9084 C-40.6004889,296.796178 31.7048444,610.062844 224.490844,802.820622 C417.248622,995.606622 730.515289,1067.91196 947.403067,947.403067 C1067.91196,730.543511 995.606622,417.276844 802.820622,224.490844" id="Shape" fill="#662113" fill-rule="nonzero" transform="translate(513.655733, 513.655733) scale(-1, 1) rotate(-180.000000) translate(-513.655733, -513.655733) "></path>
                <path d="M29.0532469,1006.21272 C24.2967828,976.68881 21.6023102,947.118962 21.0761699,917.821907 L331.498408,607.399669 C360.804946,607.925979 390.384454,610.622026 419.91789,615.381365 L29.0532469,1006.21272 L29.0532469,1006.21272 Z" id="Combined-Shape" fill="#E1E8ED" transform="translate(220.497030, 806.806194) scale(-1, 1) rotate(-180.000000) translate(-220.497030, -806.806194) "></path>
                <path d="M998.231758,21.0925598 C1002.99117,50.628457 1005.68704,80.2101896 1006.2129,109.518533 L695.829449,419.901981 C666.522023,419.376597 636.93932,416.681509 607.401318,411.923001 L998.231758,21.0925598 L998.231758,21.0925598 Z" id="Combined-Shape" fill="#E1E8ED" transform="translate(806.807107, 220.497270) scale(-1, 1) rotate(-180.000000) translate(-806.807107, -220.497270) "></path>
                <path d="M649.921089,689.866822 L581.791937,621.73767 L561.825422,641.711244 C550.790533,652.717911 532.925867,652.717911 521.9192,641.711244 C510.884311,630.676356 510.884311,612.811689 521.9192,601.7768 L541.875133,581.820867 L445.524467,485.4702 L425.568533,505.426133 C414.533644,516.461022 396.668978,516.461022 385.634089,505.426133 C374.627422,494.419467 374.627422,476.5548 385.634089,465.519911 L405.607663,445.553397 L337.478511,377.424244 L317.505644,397.397111 C306.498978,408.432 288.634311,408.432 277.599422,397.397111 C266.564533,386.390444 266.592756,368.497556 277.599422,357.490889 L297.568758,337.514492 L269.3416,309.287333 C258.306711,298.224222 258.306711,280.387778 269.3416,269.352889 C280.376489,258.318 298.212933,258.318 309.247822,269.352889 L337.482035,297.587101 L357.411867,277.650222 C368.474978,266.615333 386.311422,266.615333 397.346311,277.650222 C408.3812,288.713333 408.3812,306.521556 397.346311,317.556444 L377.398844,337.503911 L445.535054,405.64012 L465.474756,385.707467 C476.509644,374.644356 494.346089,374.644356 505.380978,385.707467 C516.415867,396.742356 516.415867,414.5788 505.380978,425.613689 L485.4448,445.549867 L581.795467,541.900533 L601.731644,521.964356 C612.766533,510.929467 630.6312,510.929467 641.637867,521.964356 C652.672756,532.999244 652.700978,550.835689 641.637867,561.870578 L621.705213,581.81028 L689.841422,649.946489 L709.788889,629.999022 C720.823778,618.964133 738.660222,618.992356 749.695111,629.999022 C760.73,641.033911 760.73,658.870356 749.695111,669.933467 L729.758232,689.863299 L757.981156,718.086222 C768.987822,729.121111 768.987822,746.957556 757.981156,757.992444 C746.946267,769.027333 729.0816,769.027333 718.046711,757.992444 L689.830842,729.776575 L669.854444,749.745911 C658.847778,760.752578 640.954889,760.752578 629.948222,749.745911 C618.913333,738.739244 618.913333,720.846356 629.948222,709.839689 L649.921089,689.866822 L649.921089,689.866822 Z" id="Combined-Shape" fill="#E1E8ED" fill-rule="nonzero" transform="translate(513.650794, 513.672667) scale(-1, 1) rotate(-180.000000) translate(-513.650794, -513.672667) "></path>
            </g>
        </g>
    </g>
</svg>