<svg xmlns="http://www.w3.org/2000/svg" width="1024" height="1024" viewBox="0 0 1024 1024">
  <path d="M840.222981,618.523491 C871.176141,584.893308 890.088889,539.958503 890.088889,490.608696 C890.088889,386.421739 805.792222,301.913043 701.866667,301.913043 C692.177965,301.913043 682.659864,302.647537 673.364762,304.063994 C661.244181,211.593013 582.294149,140.173913 486.755556,140.173913 C415.843725,140.173913 354.070678,179.519324 321.980035,237.614853 C298.415076,226.968445 272.273414,221.043478 244.755556,221.043478 C225.242071,221.043478 206.42061,224.022861 188.719252,229.55247 C121.388005,167.372638 73.1527554,77.9214123 55.1673778,23.8295652 C50.4618222,9.73130435 35.2696,2.02173913 21.1529333,6.76608696 C7.06315556,11.4834783 -0.573288889,26.7408696 4.13226667,40.866087 C23.3696066,98.6853788 70.2972482,186.914132 137.383031,254.753148 C88.5223187,288.844094 56.5333333,345.557849 56.5333333,409.73913 C56.5333333,464.071601 79.457978,513.052531 116.136065,547.487648 C64.110583,581.066714 29.6444444,639.640895 29.6444444,706.26087 C29.6444444,810.447826 113.941111,894.956522 217.866667,894.956522 C253.925578,894.956522 287.621421,884.782752 316.252983,867.143219 C346.293975,931.34678 411.359147,975.826087 486.755556,975.826087 C539.414049,975.826087 587.033037,954.129394 621.2,919.169688 C655.366963,954.129394 702.985951,975.826087 755.644444,975.826087 C859.57,975.826087 943.866667,891.317391 943.866667,787.130435 C943.866667,713.434271 901.689883,649.583879 840.222981,618.523491 L840.222981,618.523491 Z" transform="translate(40 16)"/>
</svg>
