<svg xmlns="http://www.w3.org/2000/svg" width="1024" height="1024" viewBox="0 0 1024 1024">
  <path d="M201.264293,870.986393 C233.159062,888.090224 267.844446,901.518895 302.775652,911.798933 C347.253913,945.747378 414.86087,967.461156 490.608696,967.461156 C566.383478,967.461156 633.963478,945.747378 678.468696,911.771378 C713.415102,901.484902 748.117032,888.047538 780.024496,870.930932 C804.629132,887.568075 827.962967,908.101686 846.445565,933.281244 C851.729043,940.528356 859.816,944.303467 868.010783,944.303467 C873.644696,944.303467 879.305565,942.512356 884.157739,938.792356 C896.072522,929.671467 898.498609,912.394133 889.549043,900.242133 C872.147676,876.497957 851.479742,856.410954 829.517686,839.408936 C836.953271,833.767586 844.095013,827.847989 850.895571,821.640337 C879.900907,829.93235 908.654514,841.5576 934.997739,857.723911 C939.337739,860.3968 944.136,861.6368 948.826435,861.6368 C957.991652,861.6368 966.914261,856.897244 971.982087,848.272356 C979.637739,835.211022 975.513391,818.291911 962.736,810.466133 C939.596641,796.278503 915.110719,785.129476 890.303199,776.409539 C921.807949,729.681016 936.127916,671.003015 921.913043,598.023822 C907.783651,525.481949 880.077225,478.661081 844.616112,449.061936 C922.174083,411.531493 975.826087,330.800396 975.826087,237.244444 C975.826087,107.871111 873.229565,3.02222222 746.695652,3.02222222 C662.119137,3.02222222 588.237172,49.8657427 548.539469,119.565765 C529.713655,115.443759 510.35807,113.244444 490.608696,113.244444 C470.861169,113.244444 451.507359,115.443347 432.683207,119.564608 C392.991351,49.8652243 319.115804,3.02222222 234.521739,3.02222222 C107.96087,3.02222222 5.39130435,107.871111 5.39130435,237.244444 C5.39130435,330.803376 59.0326285,411.536636 136.596983,449.065522 C101.137928,478.664862 73.4331702,525.484878 59.3043478,598.023822 C45.0901997,670.999295 59.4079823,729.679603 90.9111946,776.41238 C66.095959,785.135673 41.6033871,796.290754 18.4598261,810.488178 C5.7093913,818.313956 1.55808696,835.233067 9.21373913,848.2944 C14.2815652,856.891733 23.2041739,861.658844 32.3693913,861.658844 C37.0867826,861.658844 41.858087,860.391289 46.2250435,857.745956 C72.5665916,841.58676 101.329177,829.964768 130.341761,821.670308 C137.132072,827.868102 144.262429,833.778768 151.685765,839.412077 C129.722249,856.418109 109.054599,876.511201 91.6467826,900.264178 C82.7241739,912.416178 85.1233043,929.693511 97.038087,938.8144 C101.890261,942.5344 107.55113,944.325511 113.185043,944.325511 C121.379826,944.325511 129.466783,940.522844 134.777217,933.303289 C153.229099,908.158686 176.599972,887.631375 201.264293,870.986393 L201.264293,870.986393 Z" transform="translate(16 24)"/>
</svg>
