<svg xmlns="http://www.w3.org/2000/svg" width="1024" height="1024" viewBox="0 0 1024 1024">
  <path d="M464.706609,82.9012496 C478.654067,88.4054154 491.848901,94.8230524 504.235433,102.101608 C538.660954,42.262063 643.876783,5.39130435 655.130435,5.39130435 C668.608696,5.39130435 628.173913,193.062609 628.173913,274.956522 C628.173913,283.710448 627.675243,291.516932 626.739044,298.4785 C627.690625,308.378387 628.173913,318.51346 628.173913,328.869565 C628.173913,423.648696 609.924348,501.930435 574.26087,598.434783 C509.053043,774.784348 574.26087,975.826087 331.652174,975.826087 C331.141873,975.826087 330.632933,975.825197 330.125351,975.823421 C329.617884,975.821644 329.111688,975.81898 328.606845,975.815431 L328.629951,975.815419 C327.425462,975.806936 326.217757,975.793393 325.007037,975.774795 C239.21243,974.436913 193.235581,947.017686 166.28038,904.231192 C119.474724,829.935702 130.022531,709.30532 89.0434783,598.434783 C53.38,501.930435 35.1304348,423.648696 35.1304348,328.869565 C35.1304348,318.51346 35.6137228,308.378387 36.5653041,298.4785 C35.6291048,291.516932 35.1304348,283.710448 35.1304348,274.956522 C35.1304348,193.062609 -5.30434783,5.39130435 8.17391304,5.39130435 C19.4275647,5.39130435 124.643394,42.262063 159.068915,102.101608 C177.849161,91.0659872 198.487541,82.0094553 220.78999,75.1151794 C220.879489,70.4823349 221.841308,65.258684 223.826087,59.3043478 C237.951304,16.9286957 286.985217,5.39130435 331.652174,5.39130435 C403.705415,5.39130435 444.154108,44.0502115 464.706609,82.9012496 L464.706609,82.9012496 Z" transform="translate(184 16)"/>
</svg>
