<svg xmlns="http://www.w3.org/2000/svg" width="1024" height="1024" viewBox="0 0 1024 1024">
  <path d="M987.092641,234.643137 C987.092641,351.470588 928.859709,429.669608 849.227275,453.649019 C850.40397,469.939216 851.088105,486.259804 851.088105,502.610784 C851.088105,676.757843 727.425223,735.870588 616.268193,755.686275 C586.221315,780.303922 542.902365,795.895098 494.520871,795.895098 C446.139377,795.895098 402.820426,780.303922 372.773548,755.686275 C261.616519,735.870588 137.95364,676.727451 137.95364,502.610784 C137.95364,486.259804 138.637767,469.939216 139.814467,453.649019 C60.1820304,429.669608 1.9491012,351.470588 1.9491012,234.643137 C1.9491012,92.8029412 87.711319,36.0911765 193.50479,36.0911765 C237.863614,36.0911765 283.399138,46.85 321.463989,67.3039219 C370.748532,29.9519605 428.70781,7.58333365 494.520871,7.58333365 C560.333932,7.58333365 618.29321,29.9519605 667.577753,67.3039219 C705.642604,46.85 751.178128,36.0911765 795.536952,36.0911765 C901.330425,36.0911765 987.092641,92.8029412 987.092641,234.643137 Z" transform="translate(16 112)"/>
</svg>
