<svg xmlns="http://www.w3.org/2000/svg" width="1024" height="1024" viewBox="0 0 1024 1024">
  <path d="M215.607049,156.290467 C169.564395,112.533603 109.977181,76.4420728 26.4928696,57.472 C11.9633043,54.1653333 2.79808696,39.4506667 6.03286957,24.5982222 C9.26765217,9.74577778 23.6624348,0.404444444 38.192,3.68355556 C131.352011,24.8401516 198.286087,65.2177688 249.608734,113.260241 C261.030195,91.0980695 281.978038,73.6941304 312.846609,67.4801778 C487.52487,32.3468444 540.710087,102.337956 627.02487,69.7948444 C691.718045,45.4036901 660.844076,101.227086 631.805939,138.706911 C704.485971,158.597149 776.662681,197.153318 839.722609,261.614578 C1001.3,426.782578 1004.69652,696.2208 929.91913,843.229689 C929.91913,843.643022 930.053913,843.946133 930,844.414578 C927.466087,874.257244 948.411304,909.307911 919.136522,939.205689 C902.504348,956.235022 853.955652,935.7888 822.982609,941.795911 C822.901739,941.823467 822.82087,941.795911 822.766957,941.851022 C565.547826,996.659022 417.933913,944.882133 284.175652,808.151467 C211.128117,733.480653 171.832151,649.372059 158.233058,566.380327 C142.632715,587.794691 128.838651,605.72177 120.253043,619.947022 C91.813913,667.067022 41.7017391,729.507911 49.6,632.209244 C57.4982609,534.993244 -27.953913,426.534578 41.8095652,283.576356 C98.4944989,167.351182 185.154674,156.340749 215.607049,156.290467 L215.607049,156.290467 Z" transform="translate(16 24)"/>
</svg>
