<svg xmlns="http://www.w3.org/2000/svg" width="1024" height="1024" viewBox="0 0 1024 1024">
  <path d="M612.743253,906.310704 C777.744964,876.722895 948.869565,782.220413 948.869565,568.545455 C948.869565,492.515909 935.849565,414.340909 910.429565,341.315 C933.908696,319.726364 975.826087,270.407727 975.826087,193.090909 C975.826087,60.6359091 793.276522,73.5622727 728.661739,82.2781818 C663.076522,34.3004545 583.446957,5.36363636 490.608696,5.36363636 C397.932174,5.36363636 318.410435,34.3540909 252.906087,82.305 C188.614783,73.5890909 5.39130435,60.3945455 5.39130435,193.090909 C5.39130435,270.622273 47.5243478,319.994545 70.9765217,341.475909 C45.4486957,414.609091 32.3478261,492.784091 32.3478261,568.545455 C32.3478261,780.83368 203.26939,876.097349 368.180384,906.101094 C402.959249,930.00259 445.141666,944 490.608696,944 C535.952914,944 578.023906,930.084405 612.743253,906.310704 L612.743253,906.310704 Z" transform="translate(16 40)"/>
</svg>
