<svg xmlns="http://www.w3.org/2000/svg" width="1024" height="1024" viewBox="0 0 1024 1024">
  <path d="M344.669067,787.689902 C397.185251,832.789606 451.125755,860.909091 490.608696,860.909091 L490.639344,860.909085 C530.128383,860.894536 584.069866,832.76535 636.583576,787.659627 C677.183299,797.172597 786.952245,829.220439 846.429391,908.109091 C851.739826,915.135455 859.799826,918.836364 868.021565,918.836364 C873.655478,918.836364 879.316348,917.093182 884.168522,913.472727 C896.083304,904.595909 898.509391,887.780909 889.559826,875.927273 C859.74717,836.377974 820.39585,807.06017 781.356627,785.574869 C831.918323,792.08693 887.418461,806.146929 934.992348,834.546818 C939.332348,837.148182 944.130609,838.381818 948.848,838.381818 C958.013217,838.381818 966.935826,833.742273 971.976696,825.375 C979.659304,812.663182 975.508,796.196818 962.757565,788.580455 C875.037029,736.21824 767.954085,726.377174 697.363365,726.719455 C762.600476,650.905474 814.086957,552.722029 814.086957,458.636364 C814.086957,455.270344 814.029295,451.948251 813.915267,448.669576 C907.654238,420.09491 975.826087,333.318156 975.826087,230.681818 C975.826087,104.770455 873.229565,2.72727273 746.695652,2.72727273 C624.459668,2.72727273 524.562549,97.9560612 517.917241,217.937144 C508.6262,217.485138 499.500136,217.272727 490.608696,217.272727 C481.717284,217.272727 472.59125,217.485137 463.300244,217.937211 C456.656609,97.9560589 356.783762,2.72727273 234.521739,2.72727273 C107.96087,2.72727273 5.39130435,104.770455 5.39130435,230.681818 C5.39130435,333.321743 73.5500056,420.100975 167.30202,448.672571 C167.188061,451.950274 167.130435,455.271369 167.130435,458.636364 C167.130435,552.722053 218.616942,650.905524 283.854076,726.719512 C213.264929,726.376071 106.185278,736.215306 18.4598261,788.580455 C5.7093913,796.196818 1.55808696,812.663182 9.24069565,825.375 C14.2815652,833.742273 23.2041739,838.381818 32.3693913,838.381818 C37.0867826,838.381818 41.8850435,837.148182 46.2250435,834.546818 C93.7814957,806.161427 149.269653,792.107713 199.826142,785.596788 C160.797993,807.080109 121.460085,836.391422 91.6575652,875.927273 C82.7349565,887.780909 85.134087,904.595909 97.0488696,913.472727 C101.901043,917.093182 107.58887,918.836364 113.195826,918.836364 C121.390609,918.836364 129.477565,915.135455 134.788,908.109091 C194.036443,829.531044 304.001308,797.284903 344.669067,787.689902 L344.669067,787.689902 Z" transform="translate(16 48)"/>
</svg>
