<svg xmlns="http://www.w3.org/2000/svg" width="1024" height="1024" viewBox="0 0 1024 1024">
  <path d="M806.85574,795.902628 C858.183725,805.590593 905.503946,805.311685 937.986872,794.396724 C1020.12362,766.797009 992.744706,683.997863 910.607954,711.597579 C881.731281,721.300762 852.854608,708.175318 831.116261,681.076993 C903.147454,651.209521 875.681431,575.414677 797.339512,600.732747 C794.212308,581.800411 793.499126,561.442191 795.808261,540.41273 C830.560323,460.861246 850.705709,376.483765 850.705709,306.101674 C850.705709,107.935718 691.333031,2.50481197 494.779783,2.50481197 C298.199157,2.50481197 138.853858,107.935718 138.853858,306.101674 C138.853858,376.47413 158.973136,460.838146 193.710976,540.38006 C196.024332,561.420143 195.312203,581.788743 192.183744,600.730146 C113.850299,575.420614 86.3879347,651.20608 158.408681,681.074355 C136.670093,708.174466 107.792482,721.301077 78.9148718,711.597579 C-3.22188034,683.997863 -30.6007977,766.797009 51.5359544,794.396724 C84.0236737,805.313296 131.353068,805.590675 182.68981,795.898338 C153.801817,847.645968 113.529496,880.074931 78.9214071,868.445869 C-3.21534476,840.846154 -30.5942621,951.245014 51.5424901,978.844729 C133.679242,1006.44444 279.061294,961.539708 380.089499,868.445869 C440.021949,813.246438 494.779783,813.246438 494.779783,813.246438 C494.779783,813.246438 549.537619,813.246438 609.442689,868.445869 C710.470894,961.539708 855.852943,1006.44444 937.989695,978.844729 C1020.12645,951.245014 992.747536,840.846154 910.610783,868.445869 C876.016327,880.07461 835.746213,847.64776 806.85574,795.902628 L806.85574,795.902628 Z" transform="translate(16 16)"/>
</svg>
