<svg xmlns="http://www.w3.org/2000/svg" width="1024" height="1024" viewBox="0 0 1024 1024">
  <path d="M524.122937,78.3136191 C526.425581,78.2784951 528.732471,78.2608696 531.043478,78.2608696 C776.698261,78.2608696 975.826087,277.415652 975.826087,523.043478 C975.826087,768.698261 776.698261,967.826087 531.043478,967.826087 C285.388696,967.826087 86.2608696,768.698261 86.2608696,523.043478 C86.2608696,406.374064 131.186156,300.189447 204.683808,220.851215 C127.70276,176.027156 29.1249358,158.975415 27.8892174,158.742261 C13.197913,156.289217 3.30486957,142.379652 5.75791304,127.715304 C8.21095652,113.050957 22.0396522,103.157913 36.757913,105.584 C41.2613343,106.328367 111.424086,118.377804 183.711685,149.997824 C189.258616,116.810132 239.536018,51.6656481 318.491304,17.8243478 C410.062609,-21.4243478 571.478261,24.3478261 571.478261,24.3478261 C571.478261,24.3478261 553.668263,49.107508 524.122937,78.3136191 L524.122937,78.3136191 Z M246.381671,181.273283 C245.321464,181.236134 244.270005,181.194136 243.22768,181.147259 C243.855782,181.542771 244.482576,181.940118 245.108014,182.339309 C245.531956,181.983138 245.956496,181.627806 246.381709,181.273253 L246.381671,181.273283 Z" transform="translate(16 24)"/>
</svg>
