<svg xmlns="http://www.w3.org/2000/svg" width="1024" height="1024" viewBox="0 0 1024 1024">
  <path d="M632.645158,922.589553 C855.652701,887.46651 985.294321,765.170874 985.294321,604.289094 C985.294321,604.289094 975.816971,453.058726 909.388452,302.152558 C955.20033,272.591465 985.297297,222.733637 985.297297,166.22359 C985.297297,75.5172362 907.753544,1.95008547 812.144144,1.95008547 C765.293681,1.95008547 722.781124,19.6149587 691.604844,48.305224 C636.739664,19.3798267 571.721655,1.95290885 494.693717,1.95290885 C417.666666,1.95290885 352.649268,19.3794258 297.784525,48.3042111 C266.608304,19.614549 224.09619,1.95008547 177.24627,1.95008547 C81.6368708,1.95008547 4.09311712,75.5172362 4.09311712,166.22359 C4.09311712,222.732684 34.1890697,272.589783 79.9996446,302.151062 C13.5705305,453.057726 4.09311712,604.289094 4.09311712,604.289094 C4.09311712,765.166775 133.72813,887.460279 356.725232,922.586869 C388.352298,962.082658 438.387271,987.591111 494.68627,987.591111 C550.983995,987.591111 601.017975,962.083814 632.645158,922.589553 L632.645158,922.589553 Z" transform="translate(16 16)"/>
</svg>
