<svg xmlns="http://www.w3.org/2000/svg" width="1024" height="1024" viewBox="0 0 1024 1024">
  <path d="M751.121409,153.713235 C787.74787,133.732517 827.963911,110.279826 827.963911,110.279826 C827.963911,110.279826 757.339022,26.0406957 636.783467,26.0406957 C516.227911,26.0406957 499.005689,133.866783 499.005689,133.866783 C499.005689,133.866783 449.075022,0.755478261 280.297244,0.755478261 C139.075022,0.755478261 4.74168889,135.538087 4.74168889,135.538087 C4.74168889,135.538087 58.9646089,164.32188 126.014326,193.792937 C57.4795975,246.246028 3.02222222,336.726881 3.02222222,481.988696 C3.02222222,936.367826 555.290667,965.453913 555.290667,965.453913 C555.290667,965.453913 967.466667,794.28 967.466667,483.444348 C967.466667,313.275088 876.431915,196.966762 751.121409,153.713235 L751.121409,153.713235 Z" transform="translate(24 24)"/>
</svg>
