<svg xmlns="http://www.w3.org/2000/svg" width="1024" height="1024" viewBox="0 0 1024 1024">
  <path d="M158.077107,210.616312 C218.219649,157.985793 359.566311,195.168223 461.527692,293.110435 C534.166154,362.82 678.42,333.491304 771.116154,422.609565 C865.158462,513.021739 858.831538,674.949565 688.92,847.633043 C552.016154,986.755652 363.554615,986.755652 251.42,889.28087 C133.281538,786.576522 184.785385,657.185217 132.662308,523.076522 C86.3385057,403.926505 30.4551641,274.737137 104.990731,242.105812 C24.4565786,159.491073 6.34040061,45.3573153 5.60692308,39.2986087 C3.61461538,23.4751304 14.9761538,8.10991304 30.8607692,4.84817391 C46.8261538,1.58643478 61.3376923,11.7490435 63.3030769,27.5186087 C63.4646154,28.8664348 81.0184615,135.263826 153.764615,205.189043 C155.472359,206.832667 156.909564,208.658781 158.077107,210.616312 L158.077107,210.616312 Z" transform="translate(104 32)"/>
</svg>
