<svg xmlns="http://www.w3.org/2000/svg" width="1024" height="1024" viewBox="0 0 1024 1024">
  <path d="M927.153199,337.496 C958.046085,406.520286 975.864756,481.950286 975.864756,558.683143 C975.864756,829.840286 759.911082,898.566 490.63618,898.566 C221.33432,898.566 5.40760292,829.840286 5.40760292,558.683143 C5.40760292,481.651714 23.3341031,405.923143 54.4965606,336.654571 C44.4145891,326.747429 35.3300318,315.537429 27.835946,302.753143 C-17.559883,225.314571 20.5844745,23.3988571 43.7945748,9.61028571 C62.5028321,-1.51828571 192.220605,37.9202857 265.570991,94.2417143 C332.775149,53.8531429 409.171693,29.9945714 490.63618,29.9945714 C572.34328,29.9945714 649.036353,53.9888571 716.402253,94.6217143 C789.617854,38.1102857 919.928684,-1.54542857 938.690856,9.61028571 C961.900956,23.3988571 1000.07227,225.314571 954.649485,302.753143 C946.912784,315.917429 937.585613,327.426 927.153199,337.496 Z" transform="translate(16 64)"/>
</svg>
