<svg xmlns="http://www.w3.org/2000/svg" width="1024" height="1024" viewBox="0 0 1024 1024">
  <path d="M439.088367,18.2087141 C408.770139,8.56155725 373.856614,5.32820457 335.714844,7.53295238 C222.506034,14.0709553 162.030885,94.0011684 159.129084,157.575379 C76.5390743,217.19482 5.52213333,322.532733 5.52213333,409.738095 C5.52213333,537.034286 104.887467,544.132381 220.758578,544.353333 C227.179022,633.977143 254.541689,700.318095 310.286578,744.867619 C317.919467,776.629524 352.5568,903.428571 418.855467,903.428571 C456.138133,903.428571 476.694578,856.614286 488.019911,809.054286 C519.102578,812.810476 553.023467,814.826667 590.554133,814.826667 C638.307911,814.826667 681.184356,811.622857 719.955022,805.574286 C722.435022,851.339048 734.587022,903.428571 777.077689,903.428571 C840.923911,903.428571 894.822578,766.548571 910.281244,723.352381 C964.538133,671.704762 990.633244,597.79619 990.633244,499.748571 C990.633244,292.557247 875.561011,192.081863 619.902623,185.09089 C621.525089,106.899873 577.119523,58.6370082 489.4528,28.9874286 C472.979618,23.4173637 456.079547,19.9085043 439.088367,18.2087141 L439.088367,18.2087141 Z" transform="translate(16 56)"/>
</svg>
