<?xml version="1.0" encoding="UTF-8"?>
<svg width="1024px" height="1024px" viewBox="0 0 1024 1024" version="1.1" xmlns="http://www.w3.org/2000/svg" xmlns:xlink="http://www.w3.org/1999/xlink">
    <!-- Generator: Sketch 43.1 (39012) - http://www.bohemiancoding.com/sketch -->
    <title>twemoji/controller/rugby</title>
    <desc>Created with Sketch.</desc>
    <defs></defs>
    <g id="Twemoji" stroke="none" stroke-width="1" fill="none" fill-rule="evenodd">
        <g id="twemoji/controller/rugby">
            <g id="rugby">
                <path d="M777.638957,238.601956 C578.29287,36.4179556 243.767652,-48.7284889 87.1067826,88.3468444 C-48.0445217,247.266178 35.9067826,586.525511 235.25287,788.709511 C434.598957,990.893511 769.096348,1076.03996 925.785043,938.964622 C1090.09809,720.863289 976.985043,440.785956 777.638957,238.601956" id="Shape" fill="#3B88C3" fill-rule="nonzero" transform="translate(512.926198, 513.655733) scale(-1, 1) rotate(-180.000000) translate(-512.926198, -513.655733) "></path>
                <path d="M489.66413,969.789613 C593.96184,933.286907 696.881888,870.593669 777.627826,788.698222 C931.903265,632.226501 1034.5309,429.101901 996.889185,244.156471 C956.157251,396.337114 712.505443,764.98643 323.266783,911.114933 C290.793739,925.226044 293.103304,967.559378 346.445913,972.272489 C365.977995,973.987921 421.571884,973.815187 489.66413,969.789613 Z" id="Combined-Shape" fill="#CCD6DD"></path>
                <path d="M933.208035,98.5112591 C930.796041,95.1048439 928.318236,91.7127696 925.773913,88.3355556 C915.210704,79.0932393 903.839189,70.8605385 891.755126,63.6056937 C811.804759,23.4363975 619.952077,-3.04938497 339.483826,231.433511 C128.450783,407.8224 95.1986087,631.935067 109.918609,765.313289 C115.539478,816.480178 177.118609,804.457511 230.489043,791.193067 C448.244767,737.142203 971.536872,497.655494 933.208035,98.5112591 L933.208035,98.5112591 Z" id="Combined-Shape" fill="#E1E8ED"></path>
            </g>
        </g>
    </g>
</svg>