<svg xmlns="http://www.w3.org/2000/svg" width="1024" height="1024" viewBox="0 0 1024 1024">
  <path fill-rule="evenodd" d="M106.315225,352.381802 C74.1952394,349.497954 32.2869113,318.906972 27.290186,277.132454 L7.36436526,109.939568 C1.87325625,63.756912 32.6826523,22.529368 76.1840727,17.85264 L233.847951,0.983032 C272.837749,-3.2054969 308.00326,17.0563455 319.549927,60.1287069 L458.720373,45.233744 C528.662896,37.7458668 591.113137,78.661722 602.601692,164.427825 C602.47288,163.466188 602.33766,162.510189 602.196096,161.559833 L702.174161,150.85164 L727.113944,148.180136 C778.410269,142.710361 826.724124,156.569516 862.601806,188.971564 C863.684383,189.84052 864.764367,190.73094 865.841718,191.643048 C1011.2739,314.796786 1053.59161,786.449982 908.225185,909.520205 C762.727239,1032.67394 507.571515,1014.83001 362.17221,891.704113 C353.007306,883.944916 344.453804,874.968669 336.596648,864.970146 C304.727252,836.241576 280.221579,797.514623 274.903033,752.952946 L271.760899,726.523394 L258.628051,616.450677 C260.135928,616.466086 261.626556,616.440426 263.097923,616.372988 C210.029832,618.805299 131.905184,566.890791 123.170868,493.865212 L106.315225,352.381802 L106.315225,352.381802 Z" transform="translate(8 16)"/>
</svg>
