<?xml version="1.0" encoding="UTF-8"?>
<svg width="1024px" height="1024px" viewBox="0 0 1024 1024" version="1.1" xmlns="http://www.w3.org/2000/svg" xmlns:xlink="http://www.w3.org/1999/xlink">
    <!-- Generator: Sketch 43.1 (39012) - http://www.bohemiancoding.com/sketch -->
    <title>twemoji/controller/soccer</title>
    <desc>Created with Sketch.</desc>
    <defs></defs>
    <g id="Twemoji" stroke="none" stroke-width="1" fill="none" fill-rule="evenodd">
        <g id="twemoji/controller/soccer">
            <g id="soccer" transform="translate(16.000000, 16.000000)">
                <path d="M975.826087,490.608696 C975.826087,222.633913 758.583478,5.39130435 490.608696,5.39130435 C222.633913,5.39130435 5.39130435,222.633913 5.39130435,490.608696 C5.39130435,758.583478 222.633913,975.826087 490.608696,975.826087 C758.583478,975.826087 975.826087,758.583478 975.826087,490.608696" id="Shape" fill="#F5F8FA" fill-rule="nonzero" transform="translate(490.608696, 490.608696) scale(-1, 1) rotate(-180.000000) translate(-490.608696, -490.608696) "></path>
                <path d="M490.608696,59.3043478 C475.728696,59.3043478 463.652174,71.3808696 463.652174,86.2608696 L463.652174,274.956522 C463.652174,289.836522 475.728696,301.913043 490.608696,301.913043 C505.488696,301.913043 517.565217,289.836522 517.565217,274.956522 L517.565217,86.2608696 C517.565217,71.3808696 505.488696,59.3043478 490.608696,59.3043478" id="Shape" fill="#CCD6DD" fill-rule="nonzero" transform="translate(490.608696, 180.608696) scale(-1, 1) rotate(-180.000000) translate(-490.608696, -180.608696) "></path>
                <path d="M313.148522,300.787658 C310.45287,300.787658 307.703304,301.192006 305.007652,302.054615 L88.2502609,370.551137 C74.0441739,375.052876 66.1728696,390.202441 70.6476522,404.381571 C75.1224348,418.587658 90.3528696,426.458963 104.478087,421.98418 L321.262435,353.460702 C335.468522,348.985919 343.339826,333.836354 338.838087,319.630267 C335.198957,308.146789 324.578087,300.787658 313.148522,300.787658" id="Shape" fill="#CCD6DD" fill-rule="nonzero" transform="translate(204.749196, 362.013307) scale(-1, 1) rotate(-180.000000) translate(-204.749196, -362.013307) "></path>
                <path d="M680.425739,308.650616 C668.726609,308.650616 657.970957,316.333225 654.547478,328.113225 C650.396174,342.400181 658.617913,357.361051 672.931826,361.512355 L854.888348,414.293225 C869.202261,418.444529 884.136174,410.195833 888.260522,395.935833 C892.411826,381.62192 884.190087,366.661051 869.876174,362.536703 L687.919652,309.728877 C685.439652,309.001051 682.905739,308.650616 680.425739,308.650616" id="Shape" fill="#CCD6DD" fill-rule="nonzero" transform="translate(771.404000, 362.009134) scale(-1, 1) rotate(-180.000000) translate(-771.404000, -362.009134) "></path>
                <path d="M734.381913,566.996976 C726.133217,566.996976 718.046261,570.770889 712.735826,577.860455 L565.580174,775.532628 C556.684522,787.474368 559.164522,804.376107 571.106261,813.244802 C583.048,822.167411 599.949739,819.660455 608.818435,807.718715 L755.974087,610.046541 C764.869739,598.104802 762.389739,581.203063 750.448,572.334368 C745.622783,568.722194 739.961913,566.996976 734.381913,566.996976" id="Shape" fill="#CCD6DD" fill-rule="nonzero" transform="translate(660.777130, 692.795532) scale(-1, 1) rotate(-180.000000) translate(-660.777130, -692.795532) "></path>
                <path d="M241.228522,563.627459 C235.918087,563.627459 230.553739,565.190937 225.863304,568.452676 C213.652,576.943981 210.63287,593.737894 219.124174,605.949198 L357.276348,804.753546 C365.767652,816.991807 382.561565,820.037894 394.799826,811.519633 C407.01113,803.028328 410.030261,786.234415 401.538957,774.023111 L263.386783,575.218763 C258.157217,567.643981 249.746783,563.627459 241.228522,563.627459" id="Shape" fill="#CCD6DD" fill-rule="nonzero" transform="translate(310.331565, 689.989382) scale(-1, 1) rotate(-180.000000) translate(-310.331565, -689.989382) "></path>
                <path d="M99.7175652,463.676287 C87.8566957,463.676287 76.9662609,471.574548 73.7045217,483.5702 L14.7506087,700.920635 C10.841913,715.261504 19.3332174,730.087591 33.7010435,733.996287 C48.1227826,737.7702 62.8949565,729.386722 66.7766957,715.018895 L125.757565,497.695417 C129.639304,483.327591 121.148,468.528461 106.780174,464.619765 C104.434957,463.972808 102.035826,463.676287 99.7175652,463.676287" id="Shape" fill="#CCD6DD" fill-rule="nonzero" transform="translate(70.248474, 599.287883) scale(-1, 1) rotate(-180.000000) translate(-70.248474, -599.287883) "></path>
                <path d="M598.434783,868 L355.826087,868 C340.946087,868 328.869565,880.049565 328.869565,894.956522 C328.869565,909.863478 340.946087,921.913043 355.826087,921.913043 L598.434783,921.913043 C613.341739,921.913043 625.391304,909.863478 625.391304,894.956522 C625.391304,880.049565 613.341739,868 598.434783,868" id="Shape" fill="#CCD6DD" fill-rule="nonzero" transform="translate(477.130435, 894.956522) scale(-1, 1) rotate(-180.000000) translate(-477.130435, -894.956522) "></path>
                <path d="M871.385739,450.180568 C869.256174,450.180568 867.072696,450.423177 864.916174,450.962307 C850.467478,454.520568 841.625739,469.131003 845.184,483.579699 L902.466609,716.079699 C906.051826,730.528394 920.770087,739.31622 935.084,735.811873 C949.532696,732.253612 958.401391,717.643177 954.816174,703.194481 L897.533565,470.694481 C894.487478,458.402307 883.489217,450.180568 871.385739,450.180568" id="Shape" fill="#CCD6DD" fill-rule="nonzero" transform="translate(900.004467, 593.381067) scale(-1, 1) rotate(-180.000000) translate(-900.004467, -593.381067) "></path>
                <path d="M822.497391,40.7538453 C817.914783,40.7538453 813.278261,41.9129757 809.01913,44.3660192 L605.146957,162.300802 C592.288696,169.767758 587.867826,186.238193 595.334783,199.150367 C602.774783,212.035584 619.218261,216.483411 632.157391,208.989497 L836.029565,91.0547149 C848.887826,83.5877583 853.335652,67.1173236 845.841739,54.2051497 C840.881739,45.5790627 831.824348,40.7538453 822.497391,40.7538453" id="Shape" fill="#CCD6DD" fill-rule="nonzero" transform="translate(720.594251, 126.693444) scale(-1, 1) rotate(-180.000000) translate(-720.594251, -126.693444) "></path>
                <path d="M153.673739,39.0985052 C145.263304,39.0985052 137.014609,43.0072009 131.758087,50.3393748 C123.078087,62.4428531 125.827652,79.2906792 137.93113,87.9437226 L304.738087,207.576766 C316.841565,216.256766 333.662435,213.480244 342.342435,201.403723 C351.022435,189.273288 348.245913,172.452418 336.169391,163.772418 L169.362435,44.1393748 C164.59113,40.7428531 159.118957,39.0985052 153.673739,39.0985052" id="Shape" fill="#CCD6DD" fill-rule="nonzero" transform="translate(237.046462, 125.865774) scale(-1, 1) rotate(-180.000000) translate(-237.046462, -125.865774) "></path>
                <path d="M692.610087,510.404641 L498.307478,647.424641 C488.926609,654.028989 476.36487,654.002032 466.984,647.262902 L273.786609,507.978554 C264.540522,501.320293 260.497043,489.540293 263.677913,478.568989 L331.069217,247.228119 C334.411826,235.717685 344.978783,227.792467 356.947478,227.792467 L598.450957,227.792467 C610.042261,227.792467 620.285739,235.205511 624.005739,246.149859 L702.637913,479.782032 C706.438783,491.076815 702.341391,503.530728 692.610087,510.404641" id="Shape" fill="#292F33" fill-rule="nonzero" transform="translate(483.323953, 440.070147) scale(-1, 1) rotate(-180.000000) translate(-483.323953, -440.070147) "></path>
                <path d="M5.824513,161.050037 C5.53666793,167.911114 5.39130435,174.809018 5.39130435,181.74087 C5.39130435,319.500159 62.8028112,443.85227 155.004275,532.175652 L167.141217,532.175652 C175.228174,532.175652 182.883826,528.536522 188.005565,522.255652 C193.127304,516.001739 195.176,507.753043 193.558609,499.827826 L157.598609,323.478261 C157.032522,320.728696 156.03513,318.086957 154.687304,315.633913 L63.7090435,153.894783 C59.7464348,146.886087 52.8455652,141.98 44.9203478,140.578261 C43.3568696,140.308696 41.7664348,140.173913 40.2029565,140.173913 C33.8412174,140.173913 27.6142609,142.438261 22.6812174,146.643478 L5.824513,161.050037 L5.824513,161.050037 Z" id="Combined-Shape" fill="#292F33" transform="translate(99.745811, 336.174783) scale(-1, 1) rotate(-180.000000) translate(-99.745811, -336.174783) "></path>
                <path d="M657.446344,96.1453651 C605.423644,115.194372 549.230054,125.590435 490.608696,125.590435 C425.353918,125.590435 363.107434,112.70848 306.273588,89.3489132 C301.393577,80.4113837 296.415327,71.3274283 292.073913,63.4286957 C288.92,57.6869565 288.731304,50.7321739 291.615652,44.8286957 C294.473043,38.9252174 300.053043,34.8008696 306.522609,33.7226087 L478.370435,5.66086957 C479.448696,5.47217391 480.553913,5.39130435 481.632174,5.39130435 C482.737391,5.39130435 483.842609,5.47217391 484.92087,5.66086957 L648.924348,32.6173913 C654.315652,33.5069565 659.167826,36.5530435 662.267826,41.0817391 C665.394783,45.6104348 666.526957,51.1904348 665.448696,56.5817391 L657.446344,96.1453651 L657.446344,96.1453651 Z" id="Combined-Shape" fill="#292F33" transform="translate(477.710153, 65.490870) scale(-1, 1) rotate(-180.000000) translate(-477.710153, -65.490870) "></path>
                <path d="M975.783545,177.591089 C975.811877,179.751652 975.826087,181.91562 975.826087,184.082908 C975.826087,312.036287 926.29696,428.423242 845.365246,515.11723 L804.129217,517.702212 C797.956174,518.052647 791.864,515.653516 787.685739,510.990038 C783.588348,506.32656 781.809217,500.153516 782.968348,494.007429 L814.426609,326.930908 C814.88487,324.612647 815.720522,322.941343 816.933565,320.892647 C857.152696,253.393516 901.927478,177.996125 908.073565,165.056995 C908.720522,162.792647 909.771826,162.900473 911.146609,160.98656 C914.947478,155.703082 921.174435,157.131777 927.670957,157.131777 L927.832696,157.131777 C933.180838,157.131777 936.423998,154.479157 975.783545,177.591089 L975.783545,177.591089 Z" id="Combined-Shape" fill="#292F33" transform="translate(879.223284, 337.345802) scale(-1, 1) rotate(-180.000000) translate(-879.223284, -337.345802) "></path>
                <path d="M63.1856722,900.491851 C123.438827,788.68838 226.278357,703.225976 349.982813,665.826087 L390.567652,701.904779 C394.61113,705.46304 397.037217,710.503909 397.333739,715.868257 C397.630261,721.232605 395.770261,726.54304 392.185043,730.532605 L270.880696,865.315214 C269.263304,867.094344 267.349391,868.603909 265.19287,869.709127 C106.553739,952.438692 103.615478,953.436083 101.674609,954.08304 C99.5989565,954.756953 97.3615652,955.134344 95.178087,955.134344 C80.6609056,955.134344 76.4466448,953.565025 63.1856722,900.491851 L63.1856722,900.491851 Z" id="Combined-Shape" fill="#292F33" transform="translate(230.275066, 810.480215) scale(-1, 1) rotate(-180.000000) translate(-230.275066, -810.480215) "></path>
                <path d="M626.868358,672.54761 C746.25344,707.412174 846.593038,786.92677 908.591307,891.795552 L889.171652,943.34036 C887.203826,948.516013 883.187304,952.694273 878.092522,954.850795 C872.970783,957.007317 867.17513,956.953404 862.134261,954.716013 L698.157739,882.822969 C695.300348,881.582969 692.766435,879.696013 690.771652,877.296882 L576.206435,740.276882 C572.729043,736.098621 571.057739,730.76123 571.569913,725.396882 C572.082087,720.005578 574.723826,715.045578 578.902087,711.649056 C597.338583,696.5643 613.198678,683.632954 626.868358,672.54761 L626.868358,672.54761 Z" id="Combined-Shape" fill="#292F33" transform="translate(740.035249, 814.489745) scale(-1, 1) rotate(-180.000000) translate(-740.035249, -814.489745) "></path>
            </g>
        </g>
    </g>
</svg>