<svg xmlns="http://www.w3.org/2000/svg" width="1024" height="1024" viewBox="0 0 1024 1024">
  <path d="M103.359418,184.910953 C35.0292125,234.614126 5.53618711,305.423568 5.52230769,403.728522 C5.49538462,536.516348 148.322308,629.624174 224.326154,768.099826 C274.78,859.994609 424.23,1026.77461 533.618462,936.685913 C626.826154,905.578087 698.306923,854.899826 698.387692,684.022435 C698.441538,575.899826 813.241538,455.646783 813.214615,345.69113 C813.195403,270.266352 749.932845,159.947949 611.119568,113.709033 C634.793443,111.819133 646.868214,106.206363 631.553846,93.68 C597.146154,65.5373913 543.246154,51.8973913 487.515385,48.473913 C494.865385,47.4765217 502.107692,46.4252174 509.619231,45.94 C535.788462,44.2147826 606.919231,12.7026087 547.311538,16.6113043 C521.223077,18.3095652 496.130769,23.5930435 470.930769,28.013913 C477.311538,23.8626087 483.826923,19.7652174 490.853846,16.0991304 C490.153846,-2.60869565 382.461538,-2.60869565 328.103846,42.893913 C314.319231,39.8747826 301.692308,24.3478261 220.923077,24.3478261 C167.076923,24.3478261 94.7884615,49.3095652 140.153846,51.3043478 C164.869231,52.3826087 194,51.3043478 190.176923,61.1165217 C172.542308,62.7608696 86.3076923,78.2608696 86.3076923,105.217391 C86.3076923,114.733043 160.615385,100.526957 167.076923,105.217391 C120.715385,122.550435 86.3076923,159.130435 86.3076923,186.086957 C86.3076923,189.996616 93.3058357,188.610742 103.359418,184.910953 L103.359418,184.910953 Z" transform="translate(112 24)"/>
</svg>
