<?xml version="1.0" encoding="UTF-8"?>
<svg width="1024px" height="1024px" viewBox="0 0 1024 1024" version="1.1" xmlns="http://www.w3.org/2000/svg" xmlns:xlink="http://www.w3.org/1999/xlink">
    <!-- Generator: Sketch 43.1 (39012) - http://www.bohemiancoding.com/sketch -->
    <title>twemoji/controller/tennis</title>
    <desc>Created with Sketch.</desc>
    <defs></defs>
    <g id="Twemoji" stroke="none" stroke-width="1" fill="none" fill-rule="evenodd">
        <g id="twemoji/controller/tennis">
            <g id="tennis" transform="translate(16.000000, 16.000000)">
                <path d="M490.608696,5.39130435 C222.633913,5.39130435 5.39130435,222.633913 5.39130435,490.608696 C5.39130435,758.583478 222.633913,975.826087 490.608696,975.826087 C758.583478,975.826087 975.826087,758.583478 975.826087,490.608696 C975.826087,222.633913 758.556522,5.39130435 490.608696,5.39130435" id="Shape" fill="#77B255" fill-rule="nonzero" transform="translate(490.608696, 490.608696) scale(-1, 1) rotate(-180.000000) translate(-490.608696, -490.608696) "></path>
                <path d="M824.297271,138.354823 C917.61573,226.785487 975.826087,351.899237 975.826087,490.605034 C975.826087,629.312745 917.621345,754.428035 824.303859,842.858906 C744.19531,798.331497 679.304348,690.846875 679.304348,490.605034 C679.304348,290.368682 744.191753,182.884464 824.297271,138.354823 Z" id="Combined-Shape" fill="#A6D388" transform="translate(827.565217, 490.606865) scale(-1, 1) rotate(-180.000000) translate(-827.565217, -490.606865) "></path>
                <path d="M824.297271,138.354823 C837.879352,151.225507 850.71772,164.873267 862.741148,179.226908 C781.52557,214.904673 733.217391,327.502032 733.217391,490.605034 C733.217391,653.712353 781.528128,766.311356 862.747602,801.985994 C850.724318,816.339958 837.886005,829.987996 824.303859,842.858906 C744.19531,798.331497 679.304348,690.846875 679.304348,490.605034 C679.304348,290.368682 744.191753,182.884464 824.297271,138.354823 Z" id="Combined-Shape" fill="#FFFFFF" transform="translate(771.025973, 490.606865) scale(-1, 1) rotate(-180.000000) translate(-771.025973, -490.606865) "></path>
                <path d="M156.909191,138.358937 C63.5942409,226.789575 5.39130435,351.903135 5.39130435,490.608696 C5.39130435,629.314256 63.5942409,754.427816 156.909191,842.858454 C237.012117,798.328539 301.913043,690.84437 301.913043,490.608696 C301.913043,290.373021 237.012117,182.888853 156.909191,138.358937 Z" id="Combined-Shape" fill="#A6D388" transform="translate(153.652174, 490.608696) scale(-1, 1) rotate(-180.000000) translate(-153.652174, -490.608696) "></path>
                <path d="M118.46714,179.230905 C130.489904,164.877309 143.327652,151.229588 156.909191,138.358937 C237.012117,182.888853 301.913043,290.373021 301.913043,490.608696 C301.913043,690.84437 237.012117,798.328539 156.909191,842.858454 C143.327652,829.987803 130.489904,816.340083 118.46714,801.986486 C199.674111,766.308352 248,653.711187 248,490.608696 C248,327.506204 199.674111,214.909039 118.467136,179.230903 Z" id="Combined-Shape" fill="#FFFFFF" transform="translate(210.190092, 490.608696) scale(-1, 1) rotate(-180.000000) translate(-210.190092, -490.608696) "></path>
            </g>
        </g>
    </g>
</svg>