<?xml version="1.0" encoding="UTF-8"?>
<svg width="1024px" height="1024px" viewBox="0 0 1024 1024" version="1.1" xmlns="http://www.w3.org/2000/svg" xmlns:xlink="http://www.w3.org/1999/xlink">
    <!-- Generator: Sketch 43.1 (39012) - http://www.bohemiancoding.com/sketch -->
    <title>twemoji/controller/volleyball</title>
    <desc>Created with Sketch.</desc>
    <defs></defs>
    <g id="Twemoji" stroke="none" stroke-width="1" fill="none" fill-rule="evenodd">
        <g id="twemoji/controller/volleyball" fill-rule="nonzero">
            <g id="volleyball" transform="translate(16.000000, 16.000000)">
                <circle id="Oval" fill="#E8E8E8" cx="496" cy="496" r="496"></circle>
                <path d="M436.546133,263.855467 C434.810133,213.164267 441.5888,165.630933 451.608,124.3472 C690.812267,129.670933 868.3472,241.634667 956.420267,311.570667 C948.212774,291.082089 938.634838,271.169484 927.751467,251.968 C827.9232,182.891733 666.458667,100.0928 460.023467,93.5456 C469.663842,61.3941522 481.997283,30.1125611 496.8928,0.0330666667 L496,0 C484.558933,0 473.250133,0.5456 461.990933,1.2896 C422.1952,87.7589333 350.0272,299.121067 478.127467,496.744 C448.126781,556.042885 404.33946,607.280232 350.440533,646.155733 C183.4208,343.066667 257.4736,110.376533 283.182933,47.9136 C268.8816,54.6922667 254.960533,62.1818667 241.4528,70.2997333 C209.56,167.085867 170.3264,385.656533 324.698133,663.631467 C281.661867,690.465067 237.121067,708.3872 196.382933,720.3408 C81.4432,510.632 89.5114667,301.0224 106.028267,189.686933 C92.4161665,206.979591 79.9667636,225.156603 68.7621333,244.098133 C58.8752,365.089067 67.8693333,546.377067 165.498667,728.4752 C132.836527,736.203283 99.580014,741.158852 66.0837333,743.289067 C71.9034667,753.3248 77.9216,763.2448 84.3696,772.834133 C179.1056,764.121067 398.403733,721.0352 505.589333,511.111467 C571.932523,507.448503 638.185759,519.763611 698.781333,547.021867 C519.973333,842.935467 281.6288,895.313067 214.486933,904.323733 C227.47059,913.278231 240.866222,921.620158 254.629867,929.322133 C354.392,908.5232 563.3072,833.197333 726.821867,560.5792 C771.561067,584.4368 809.339733,614.048 840.058667,643.378133 C715.8768,847.8128 530.224,945.590933 425.584533,986.924267 C447.456121,990.041327 469.510424,991.703822 491.602133,991.9008 C601.317333,939.936533 753.705067,841.546667 862.577067,666.0784 C885.584574,690.500097 906.495884,716.814832 925.0896,744.744 C930.909333,734.741333 936.464533,724.523733 941.5568,714.074667 C886.633067,636.450667 739.618667,468.0752 504.3328,480.161067 C467.974454,424.54588 445.503864,361.012454 438.8112,294.905067 C784.2752,301.782933 948.765333,481.748267 990.3136,535.547733 C991.322133,522.4864 992,509.309333 992,496 C992,493.4208 991.834667,490.825067 991.8016,488.245867 C923.866133,412.209067 754.168,269.146133 436.546133,263.855467 L436.546133,263.855467 Z" id="Shape" fill="#B2C1C0"></path>
            </g>
        </g>
    </g>
</svg>