<svg xmlns="http://www.w3.org/2000/svg" width="128" height="128" viewBox="0 0 128 128">
  <path fill-rule="evenodd" d="M13.984377,35.9689564 C13.9405525,35.3709996 13.9183673,34.7689733 13.9183673,34.1632653 C13.9183673,24.9011736 19.105823,16.4999521 27.5290131,10.3463503 C29.4287797,5.75828921 33.9497026,2.53061224 39.2244898,2.53061224 C40.3371748,2.53061224 41.4163147,2.67423545 42.4443824,2.94395457 C48.4188413,1.05178152 55.0365511,-3.55271368e-15 62,-3.55271368e-15 C68.9634489,-3.55271368e-15 75.5811587,1.05178152 81.5556176,2.94395457 C82.5836853,2.67423545 83.6628252,2.53061224 84.7755102,2.53061224 C90.0502974,2.53061224 94.5712203,5.75828921 96.4709831,10.3463475 C104.894177,16.4999521 110.081633,24.9011736 110.081633,34.1632653 C110.081633,34.7689733 110.059447,35.3709996 110.015623,35.9689564 C118.75628,45.1286466 124,56.8353546 124,69.5918367 C124,88.45432 112.534964,105.021544 95.2522217,114.452941 C95.0007866,114.811038 94.6691935,115.121353 94.2653061,115.354537 C93.7729943,115.638774 93.2351439,115.772686 92.704905,115.770517 C91.2378159,116.488749 89.7331969,117.157096 88.1941929,117.772864 C87.8604235,118.352159 87.3376901,118.828281 86.669748,119.098147 C85.9337956,119.395491 85.1507123,119.390258 84.4583813,119.140976 C83.1978126,119.561049 81.9172465,119.946799 80.6182451,120.296887 C80.2255635,121.012657 79.5526111,121.573186 78.7017514,121.801173 C77.782572,122.047466 76.8491567,121.853853 76.1250342,121.349389 C74.9917027,121.575735 73.8464319,121.775437 72.6901694,121.947684 C72.2173373,122.748807 71.390776,123.329215 70.3960881,123.451347 C69.3817768,123.575889 68.4218136,123.195756 67.7680984,122.507754 C65.8689145,122.657933 63.9449155,122.734694 62,122.734694 C60.055104,122.734694 58.131124,122.657935 56.2319585,122.507758 C55.5654307,123.209182 54.5814801,123.589212 53.5502488,123.444282 C52.5771071,123.307516 51.7732944,122.732981 51.3098777,121.947691 C50.1535992,121.775442 49.0083127,121.575738 47.8749658,121.349389 C47.1508433,121.853853 46.217428,122.047466 45.2982486,121.801173 C44.4473889,121.573186 43.7744365,121.012657 43.3817549,120.296887 C42.0827452,119.946797 40.802171,119.561044 39.5415945,119.140967 C38.8323727,119.396243 38.0288068,119.395179 37.280246,119.077434 C36.6349916,118.80354 36.1306099,118.33679 35.8057486,117.77284 C34.266765,117.157079 32.7621655,116.48874 31.295095,115.770517 C30.7648561,115.772686 30.2270057,115.638774 29.7346939,115.354537 C29.3308065,115.121353 28.9992134,114.811038 28.7477783,114.452941 C11.4650357,105.021544 0,88.45432 0,69.5918367 C0,56.8353546 5.24372038,45.1286466 13.984377,35.9689564 L13.984377,35.9689564 Z" transform="translate(2 2)"/>
</svg>
