<?xml version="1.0" encoding="UTF-8"?>
<svg width="128px" height="128px" viewBox="0 0 128 128" version="1.1" xmlns="http://www.w3.org/2000/svg" xmlns:xlink="http://www.w3.org/1999/xlink">
    <!-- Generator: Sketch 43.1 (39012) - http://www.bohemiancoding.com/sketch -->
    <title>twemoji/ball/8ball</title>
    <desc>Created with Sketch.</desc>
    <defs></defs>
    <g id="Twemoji" stroke="none" stroke-width="1" fill="none" fill-rule="evenodd">
        <g id="twemoji/ball/8ball" fill-rule="nonzero">
            <g id="8ball" transform="translate(2.000000, 2.000000)">
                <path d="M61.326087,0.673913043 C27.8292391,0.673913043 0.673913043,27.8292391 0.673913043,61.326087 C0.673913043,94.8229348 27.8292391,121.978261 61.326087,121.978261 C94.8229348,121.978261 121.978261,94.8229348 121.978261,61.326087 C121.978261,27.8292391 94.8195652,0.673913043 61.326087,0.673913043" id="Shape" fill="#292F33" transform="translate(61.326087, 61.326087) scale(-1, 1) rotate(-180.000000) translate(-61.326087, -61.326087) "></path>
                <path d="M91.6521739,61.326087 C91.6521739,44.5759783 78.0761957,31 61.326087,31 C44.5759783,31 31,44.5759783 31,61.326087 C31,78.0761957 44.5759783,91.6521739 61.326087,91.6521739 C78.0761957,91.6521739 91.6521739,78.0761957 91.6521739,61.326087" id="Shape" fill="#E1E8ED" transform="translate(61.326087, 61.326087) scale(-1, 1) rotate(-180.000000) translate(-61.326087, -61.326087) "></path>
                <path d="M57.2125217,69.9339783 C57.2125217,67.2686522 58.752413,65.4322391 61.4783913,65.4322391 C64.201,65.4322391 65.8015435,67.2686522 65.8015435,69.9339783 C65.8015435,72.4813696 64.2616522,74.4357174 61.4783913,74.4357174 C58.6917609,74.4357174 57.2125217,72.4813696 57.2125217,69.9339783 M56.087087,52.7559348 C56.087087,49.7368043 57.8628478,46.8356087 61.4783913,46.8356087 C64.8546957,46.8356087 66.8663261,49.7368043 66.8663261,52.7559348 C66.8663261,56.489413 64.7333913,58.6796304 61.4783913,58.6796304 C58.0414348,58.6796304 56.087087,56.0749565 56.087087,52.7559348 M46.8477391,52.1662609 C46.8477391,56.9038696 49.452413,60.3981087 53.1858913,62.4131087 C50.4026304,64.4247391 48.6841522,67.1507174 48.6841522,70.8808261 C48.6841522,77.8120217 54.4292609,82.2531087 61.4783913,82.2531087 C68.3489348,82.2531087 74.329913,77.8693043 74.329913,70.8808261 C74.329913,67.5651739 72.672087,64.2495217 69.7708913,62.4131087 C73.7975217,60.3981087 76.1056739,56.7252826 76.1056739,52.1662609 C76.1056739,43.9310435 69.4137174,38.6610435 61.4783913,38.6610435 C53.3038261,38.6610435 46.8477391,44.2275652 46.8477391,52.1662609" id="Shape" fill="#292F33" transform="translate(61.476707, 60.457076) scale(-1, 1) rotate(-180.000000) translate(-61.476707, -60.457076) "></path>
            </g>
        </g>
    </g>
</svg>