<svg xmlns="http://www.w3.org/2000/svg" xmlns:xlink="http://www.w3.org/1999/xlink" width="128" height="128" viewBox="0 0 128 128">
  <defs>
    <polygon id="alien-a" points="0 47.5 47.5 47.5 47.5 0 0 0"/>
  </defs>
  <g fill="none" fill-rule="evenodd" transform="matrix(1 0 0 -1 40 87.5)">
    <mask id="alien-b" fill="#fff">
      <use xlink:href="#alien-a"/>
    </mask>
    <g mask="url(#alien-b)">
      <g transform="translate(2.5 1.25)">
        <path fill="#CCD6DD" fill-rule="nonzero" d="M42.5,23.75 C42.5,12.01375 25.97125,0 21.25,0 C16.5275,0 0,12.01375 0,23.75 C0,35.48625 9.51375,45 21.25,45 C32.98625,45 42.5,35.48625 42.5,23.75"/>
        <path fill="#292F33" fill-rule="nonzero" d="M12.5,12.5 C16.405,8.595 17.9875,3.84625 16.035,1.89375 C14.08375,-0.05875 9.33375,1.5225 5.42875,5.42875 C1.5225,9.33375 -0.06,14.0825 1.89375,16.035 C3.84625,17.9875 8.595,16.40625 12.5,12.5" transform="translate(3.129 13.944)"/>
        <path fill="#292F33" fill-rule="nonzero" d="M5,12.5 C1.095,8.595 -0.4875,3.84625 1.465,1.89375 C3.41625,-0.06 8.16625,1.5225 12.07125,5.42875 C15.9775,9.335 17.56,14.0825 15.60625,16.035 C13.65375,17.9875 8.905,16.40625 5,12.5" transform="translate(21.871 13.944)"/>
        <path fill="#292F33" fill-rule="nonzero" d="M5,0 C2.06625,0 0.53125,1.45 0.36625,1.61625 C-0.1225,2.105 -0.1225,2.895 0.36625,3.38375 C0.85,3.8675 1.6325,3.8725 2.12125,3.39625 C2.18625,3.3375 3.12875,2.5 5,2.5 C6.89875,2.5 7.84125,3.36125 7.88125,3.39875 C8.37875,3.86625 9.165,3.8525 9.64125,3.36125 C10.115,2.87125 10.11625,2.09875 9.63375,1.61625 C9.46875,1.45 7.93375,0 5,0" transform="translate(16.25 6.25)"/>
      </g>
    </g>
  </g>
</svg>
