<svg xmlns="http://www.w3.org/2000/svg" width="128" height="128" viewBox="0 0 128 128">
  <path d="M47.0973523,27.4957997 C47.8229849,17.2692019 51.7136746,7.99395184 58.0225658,1.66119565 C59.3344737,0.343695652 61.4583553,0.343695652 62.7702632,1.66119565 C64.0788158,2.97869565 64.0788158,5.11163043 62.7702632,6.42576087 C58.5235225,10.6881255 55.6088277,16.6600066 54.3638486,23.4286246 C56.8837096,20.4909129 66.2882383,10.7826087 80.5263158,10.7826087 C93.9473684,10.7826087 100.657895,17.5217391 100.657895,17.5217391 C100.657895,17.5217391 92.0775268,23.9844459 83.4926097,26.575011 C92.7745031,30.166175 100.657895,38.4180682 100.657895,54.5869565 C100.657895,91.6521739 80.5263158,121.978261 67.1052632,121.978261 C57.0394737,121.978261 57.0394737,118.608696 50.3289474,118.608696 C43.6184211,118.608696 43.6184211,121.978261 33.5526316,121.978261 C20.1315789,121.978261 4.53917998e-15,91.6521739 0,54.5869565 C-2.88856908e-15,31 16.7763158,24.2608696 30.1973684,24.2608696 C39.051896,24.2608696 40.1174013,26.8682774 47.0973523,27.4957997 L47.0973523,27.4957997 Z" transform="translate(13 2)"/>
</svg>
