<?xml version="1.0" encoding="UTF-8"?>
<svg width="128px" height="128px" viewBox="0 0 128 128" version="1.1" xmlns="http://www.w3.org/2000/svg" xmlns:xlink="http://www.w3.org/1999/xlink">
    <!-- Generator: Sketch 43.1 (39012) - http://www.bohemiancoding.com/sketch -->
    <title>twemoji/ball/baseball</title>
    <desc>Created with Sketch.</desc>
    <defs></defs>
    <g id="Twemoji" stroke="none" stroke-width="1" fill="none" fill-rule="evenodd">
        <g id="twemoji/ball/baseball">
            <g id="baseball" transform="translate(2.000000, 2.000000)">
                <path d="M61.326087,0.673913043 C27.8292391,0.673913043 0.673913043,27.8292391 0.673913043,61.326087 C0.673913043,94.8229348 27.8292391,121.978261 61.326087,121.978261 C94.8229348,121.978261 121.978261,94.8229348 121.978261,61.326087 C121.978261,27.8292391 94.8195652,0.673913043 61.326087,0.673913043" id="Shape" fill="#E1E8ED" fill-rule="nonzero" transform="translate(61.326087, 61.326087) scale(-1, 1) rotate(-180.000000) translate(-61.326087, -61.326087) "></path>
                <path d="M103.037159,105.357363 C104.734919,103.748528 106.339715,102.042558 107.842644,100.248353 C97.6906961,95.7886316 91.6521739,81.7139618 91.6521739,61.326087 C91.6521739,40.9376724 97.6910158,26.8627972 107.84345,22.4034672 C106.34054,20.6092214 104.735751,18.9032167 103.037982,17.2943529 C93.0244138,22.8602791 84.9130435,36.2958568 84.9130435,61.326087 C84.9130435,86.355631 93.0239691,99.7911582 103.037159,105.357363 L103.037159,105.357363 Z" id="Combined-Shape" fill="#B3BEC4"></path>
                <path d="M14.8083925,100.248311 C16.311238,102.04251 17.9159565,103.748475 19.6136489,105.357307 C29.6265147,99.7910673 37.7391304,86.3555463 37.7391304,61.326087 C37.7391304,36.2966276 29.6265147,22.8611066 19.6136489,17.2948671 C17.9159565,18.9036985 16.311238,20.6096636 14.8083925,22.4038632 C24.9592641,26.8636304 31,40.9382759 31,61.326087 C31,81.713898 24.9592641,95.7885435 14.8083925,100.248311 L14.8083925,100.248311 Z" id="Combined-Shape" fill="#B3BEC4"></path>
                <path d="M17.8317391,17.7332144 C17.0331522,17.7332144 16.2918478,17.8006058 15.6381522,17.9219101 C13.8084783,18.2656058 12.6055435,20.0278884 12.9458696,21.8541927 C13.2895652,23.6872362 15.0518478,24.8935405 16.8781522,24.5464753 C18.3270652,24.2870188 25.9456522,24.5262579 27.4855435,32.2156058 C27.8494565,34.0385405 29.6151087,35.2178884 31.4515217,34.8573449 C33.2744565,34.4934318 34.4605435,32.717671 34.0932609,30.8913666 C32.1321739,21.0791927 23.5161957,17.7332144 17.8317391,17.7332144" id="Shape" fill="#DD2E44" fill-rule="nonzero" transform="translate(23.524140, 26.327694) scale(-1, 1) rotate(-180.000000) translate(-23.524140, -26.327694) "></path>
                <path d="M23.6246957,33.5388516 C21.8388261,33.5388516 20.3494783,34.2060255 20.2618696,36.0121125 C20.1742609,37.8687429 21.6096957,39.0817864 23.4696957,39.1693951 L23.8538261,39.0042864 C27.9107826,39.1896125 32.1092609,39.2873299 36.5065435,46.8991777 C37.4331739,48.5098299 39.4919783,49.0220038 41.1093696,48.0852647 C42.7200217,47.1552647 43.2726304,45.0695038 42.3392609,43.4588516 C36.0988261,32.6560255 28.914913,33.0502647 24.1638261,32.8346125 L23.7864348,33.5388516 L23.6246957,33.5388516 Z" id="Shape" fill="#DD2E44" fill-rule="nonzero" transform="translate(31.525635, 40.693339) scale(-1, 1) rotate(-180.000000) translate(-31.525635, -40.693339) "></path>
                <path d="M31,53.3227271 C28.5267391,53.3227271 26.2354348,53.7776184 24.5034783,54.5964228 C22.8220652,55.3950097 22.1043478,57.4032706 22.9029348,59.0846836 C23.6981522,60.7694663 25.7131522,61.4804445 27.3911957,60.6885967 C30.1845652,59.3643576 37.2471739,59.8832706 39.9596739,64.0985967 C40.9671739,65.6654445 43.0529348,66.1169663 44.616413,65.1128358 C46.1832609,64.1053358 46.6347826,62.0195749 45.6306522,60.4560967 C42.3790217,55.4017489 36.2767391,53.3227271 31,53.3227271" id="Shape" fill="#DD2E44" fill-rule="nonzero" transform="translate(34.370815, 59.484972) scale(-1, 1) rotate(-180.000000) translate(-34.370815, -59.484972) "></path>
                <path d="M34.9113913,73.3284508 C29.675087,73.3284508 24.8195435,75.6837769 21.6824783,78.3019291 C20.250413,79.4913856 20.0583478,81.6175813 21.2511739,83.0496465 C22.444,84.4817117 24.5668261,84.6670378 25.9955217,83.4809508 C26.6492174,82.9317117 32.572913,78.2042117 38.7392174,80.8358421 C40.447587,81.5569291 42.4288913,80.7617117 43.1567174,79.046603 C43.8845435,77.3314943 43.082587,75.3569291 41.3708478,74.629103 C39.2143261,73.7125813 37.0308478,73.3284508 34.9113913,73.3284508" id="Shape" fill="#DD2E44" fill-rule="nonzero" transform="translate(31.947043, 78.794573) scale(-1, 1) rotate(-180.000000) translate(-31.947043, -78.794573) "></path>
                <path d="M33.5285217,86.457053 L33.4341739,86.457053 C24.9967826,86.457053 17.6646087,91.7472704 14.787,96.9296617 C13.880587,98.5571617 14.4702609,100.447488 16.0943913,101.353901 C17.7218913,102.260314 19.7739565,101.58977 20.677,99.96564 C22.3078696,97.0307487 27.4026522,92.7749878 33.6195,92.60314 C35.4828696,92.5525965 36.9486304,91.2991183 36.8947174,89.4391183 C36.8441739,87.6094443 35.348087,86.457053 33.5285217,86.457053" id="Shape" fill="#DD2E44" fill-rule="nonzero" transform="translate(25.628732, 94.108961) scale(-1, 1) rotate(-180.000000) translate(-25.628732, -94.108961) "></path>
                <path d="M92.2883478,85.1980509 C92.0693261,85.1980509 91.8469348,85.2182683 91.6245435,85.2654422 C89.8016087,85.6293552 88.6155217,87.4017465 88.9828043,89.2280509 C91.2201957,100.425116 102.100522,103.215116 107.437913,102.197507 C109.267587,101.853812 110.470522,100.094899 110.126826,98.2652248 C109.78313,96.4389204 108.047804,95.2225074 106.194543,95.5763117 C104.762478,95.845877 97.130413,95.5998987 95.5871522,87.9071813 C95.270413,86.3032683 93.8619348,85.1980509 92.2883478,85.1980509" id="Shape" fill="#DD2E44" fill-rule="nonzero" transform="translate(99.550756, 93.794852) scale(-1, 1) rotate(-180.000000) translate(-99.550756, -93.794852) "></path>
                <path d="M83.646087,70.802072 C83.0732609,70.802072 82.4936957,70.9469633 81.9646739,71.2535937 C80.3506522,72.1835937 79.7980435,74.2457677 80.731413,75.8564198 C86.9718478,86.6592459 94.1557609,86.9894633 98.9068478,87.2084851 L99.2842391,87.2253329 C101.100435,87.3365285 102.721196,85.8808764 102.808804,84.0208764 C102.899783,82.1608764 101.464348,80.5805503 99.6043478,80.4929416 L99.2168478,80.4760937 C95.1598913,80.2873981 90.9647826,80.0987024 86.5675,72.4868546 C85.9441304,71.4052242 84.8119565,70.802072 83.646087,70.802072" id="Shape" fill="#DD2E44" fill-rule="nonzero" transform="translate(91.545244, 79.016688) scale(-1, 1) rotate(-180.000000) translate(-91.545244, -79.016688) "></path>
                <path d="M80.2765217,54.4754642 C79.6497826,54.4754642 79.0230435,54.6473121 78.4569565,55.0112251 C76.8934783,56.0153555 76.438587,58.1011164 77.446087,59.6679642 C82.2140217,67.0911164 93.1347826,68.0952468 98.5698913,65.5242686 C100.251304,64.7256816 100.972391,62.7174208 100.170435,61.0360077 C99.378587,59.3512251 97.3602174,58.6335077 95.6855435,59.4320947 C92.8921739,60.7597034 85.8261957,60.2374208 83.1136957,56.0220947 C82.4701087,55.0213338 81.3851087,54.4754642 80.2765217,54.4754642" id="Shape" fill="#DD2E44" fill-rule="nonzero" transform="translate(88.704147, 60.638210) scale(-1, 1) rotate(-180.000000) translate(-88.704147, -60.638210) "></path>
                <path d="M99.2296522,35.8631731 C98.4681304,35.8631731 97.7066087,36.1192601 97.0731304,36.6449122 C96.4194348,37.1907818 90.4957391,41.8980644 84.3328043,39.2900209 C82.6176957,38.5655644 80.6431304,39.3607818 79.9153043,41.0758905 C79.1874783,42.7876296 79.9860652,44.768934 81.7011739,45.4933905 C89.1782391,48.6675209 96.9821522,45.4967601 101.392913,41.8205644 C102.818239,40.6311079 103.013674,38.5049122 101.824217,37.0762166 C101.153674,36.2776296 100.196717,35.8631731 99.2296522,35.8631731" id="Shape" fill="#DD2E44" fill-rule="nonzero" transform="translate(91.124631, 41.329847) scale(-1, 1) rotate(-180.000000) translate(-91.124631, -41.329847) "></path>
                <path d="M105.346087,17.5203913 C104.16,17.5203913 103.014348,18.1471304 102.397717,19.2523478 C100.766848,22.1906087 95.6720652,26.4059348 89.4552174,26.5777826 C87.5918478,26.6283261 86.1294565,28.2827826 86.18,30.1461522 C86.2305435,31.9724565 87.7266304,33.5258261 89.5461957,33.5258261 L89.6405435,33.5258261 C98.0813043,33.5258261 105.410109,27.8177826 108.287717,22.6353913 C109.19413,21.0045217 108.607826,18.901913 106.976957,17.9988696 C106.461413,17.709087 105.898696,17.5203913 105.346087,17.5203913" id="Shape" fill="#DD2E44" fill-rule="nonzero" transform="translate(97.446365, 25.523109) scale(-1, 1) rotate(-180.000000) translate(-97.446365, -25.523109) "></path>
            </g>
        </g>
    </g>
</svg>