<?xml version="1.0" encoding="UTF-8"?>
<svg width="128px" height="128px" viewBox="0 0 128 128" version="1.1" xmlns="http://www.w3.org/2000/svg" xmlns:xlink="http://www.w3.org/1999/xlink">
    <!-- Generator: Sketch 43.1 (39012) - http://www.bohemiancoding.com/sketch -->
    <title>twemoji/ball/basketball</title>
    <desc>Created with Sketch.</desc>
    <defs></defs>
    <g id="Twemoji" stroke="none" stroke-width="1" fill="none" fill-rule="evenodd">
        <g id="twemoji/ball/basketball" fill-rule="nonzero">
            <g id="basketball" transform="translate(2.000000, 2.000000)">
                <path d="M121.978261,61.326087 C121.978261,27.8292391 94.8229348,0.673913043 61.326087,0.673913043 C27.8292391,0.673913043 0.673913043,27.8292391 0.673913043,61.326087 C0.673913043,94.8229348 27.8292391,121.978261 61.326087,121.978261 C94.8229348,121.978261 121.978261,94.8229348 121.978261,61.326087" id="Shape" fill="#F4900C" transform="translate(61.326087, 61.326087) scale(-1, 1) rotate(-180.000000) translate(-61.326087, -61.326087) "></path>
                <path d="M84.9635937,57.9565217 L64.6956522,57.9565217 L64.6956522,0.673913043 L57.9565217,0.673913043 L57.9565217,57.9565217 L37.6885802,57.9565217 C36.9913175,35.0813067 29.1674912,22.6059314 19.6136489,17.2948671 C17.9160814,18.9035802 16.3114741,20.6094126 14.8087242,22.4034672 C24.3918839,26.6127506 30.3098381,39.389473 30.9433784,57.9565217 L0.673913043,57.9565217 L0.673913043,64.6956522 L30.9433784,64.6956522 C30.3098381,83.2627009 24.3918839,96.0394233 14.8087242,100.248707 C16.3114741,102.042761 17.9160814,103.748594 19.6136489,105.357307 C29.1674912,100.046243 36.9913175,87.5708672 37.6885802,64.6956522 L57.9565217,64.6956522 L57.9565217,121.978261 L64.6956522,121.978261 L64.6956522,64.6956522 L84.9635937,64.6956522 C85.6608564,87.5708672 93.4846828,100.046243 103.038525,105.357307 C104.736217,103.748475 106.340936,102.04251 107.843781,100.248311 C98.2621132,96.038622 92.3425582,83.2621187 91.7088158,64.6956522 L121.978261,64.6956522 L121.978261,57.9565217 L91.7088158,57.9565217 C92.3425582,39.3900552 98.2621132,26.6135519 107.843781,22.4038632 C106.340936,20.6096636 104.736217,18.9036985 103.038525,17.2948671 C93.4846828,22.6059314 85.6608564,35.0813067 84.9635937,57.9565217 L84.9635937,57.9565217 Z" id="Combined-Shape" fill="#231F20"></path>
            </g>
        </g>
    </g>
</svg>