<svg xmlns="http://www.w3.org/2000/svg" xmlns:xlink="http://www.w3.org/1999/xlink" width="128" height="128" viewBox="0 0 128 128">
  <defs>
    <polygon id="cherry-blossom-a" points="0 47.5 47.5 47.5 47.5 0 0 0"/>
  </defs>
  <g fill="none" fill-rule="evenodd" transform="matrix(1 0 0 -1 40 87.5)">
    <mask id="cherry-blossom-b" fill="#fff">
      <use xlink:href="#cherry-blossom-a"/>
    </mask>
    <g mask="url(#cherry-blossom-b)">
      <g transform="translate(1.25 1.25)">
        <path fill="#F4ABBA" fill-rule="nonzero" d="M22.5,18.75 C22.2975,19.115 22.05875,19.4225 21.765,19.63625 C21.4725,19.85 21.105,19.98125 20.695,20.0625 C20.98,20.3675 21.19875,20.69 21.31125,21.035 C21.42375,21.38 21.435,21.77 21.385,22.18375 C21.7625,22.00625 22.1375,21.89875 22.5,21.89875 C22.8625,21.89875 23.2375,22.00625 23.6175,22.18375 C23.56625,21.77 23.5775,21.38 23.69,21.035 C23.8025,20.69 24.02125,20.3675 24.305,20.0625 C23.89625,19.98125 23.52875,19.85 23.23625,19.63625 C22.9425,19.4225 22.7025,19.115 22.5,18.75 M39.1225,18.1625 C44.36875,19.8675 45.40625,22.14 44.36125,26.1825 C43.17125,25.7975 41.73,26.18375 41.52125,26.83 C41.31125,27.47125 42.2475,28.63375 43.4375,29.02125 C41.90875,32.905 39.7325,34.1325 34.48625,32.43 C32.4775,31.7775 30.43875,30.565 28.6675,29.1375 C29.4775,31.2625 30,33.5775 30,35.68875 C30,41.20375 28.15875,42.895 23.99125,43.14875 C23.99125,41.89875 23.17625,40.64875 22.5,40.64875 C21.82375,40.64875 21.0075,41.89875 21.0075,43.14875 C16.84,42.895 15,41.20375 15,35.68875 C15,33.5775 15.52125,31.2625 16.3325,29.1375 C14.5625,30.565 12.52125,31.77625 10.51375,32.42875 C5.2675,34.13375 3.09125,32.905 1.56125,29.02 C2.75,28.6325 3.6875,27.4725 3.47875,26.82875 C3.27,26.185 1.82875,25.79625 0.64,26.18125 C-0.40625,22.14 0.63375,19.8675 5.8775,18.1625 C7.88625,17.51125 10.24875,17.29125 12.52,17.40625 C10.615,16.16375 8.8325,14.5975 7.59125,12.89 C4.34875,8.42625 4.845,5.97625 8.0675,3.32125 C8.8025,4.3325 10.19625,4.86625 10.745,4.4675 C11.29125,4.07125 11.2175,2.57875 10.4825,1.5675 C14.0025,-0.67625 16.485,-0.39 19.7275,4.07125 C20.96875,5.77875 21.90625,7.96 22.5,10.155 C23.09375,7.95875 24.0325,5.77875 25.2725,4.07125 C28.515,-0.39125 30.9975,-0.67625 34.51875,1.5675 C33.785,2.57875 33.7075,4.07 34.25625,4.46875 C34.8025,4.86625 36.1975,4.335 36.93375,3.3225 C40.155,5.97625 40.65,8.42625 37.41,12.89 C36.16875,14.5975 34.385,16.16375 32.48,17.40625 C34.75125,17.29125 37.11375,17.51125 39.1225,18.1625" transform="translate(0 .829)"/>
        <path fill="#FFF" fill-rule="nonzero" d="M10,1.25 C9.85,0.575 9.18375,0.15 8.50875,0.3 L1.1875,1.9275 C0.51375,2.0775 0.08875,2.74375 0.2375,3.41875 C0.38875,4.0925 1.05625,4.5175 1.73,4.3675 L9.05125,2.74 C9.725,2.59125 10.15,1.92375 10,1.25" transform="translate(10.994 20.393)"/>
        <path fill="#FFF" fill-rule="nonzero" d="M1.25,3.75 C1.4,4.425 2.0675,4.85 2.74125,4.7 L10.0625,3.0725 C10.7375,2.9225 11.16125,2.25625 11.0125,1.58125 C10.8625,0.90875 10.195,0.4825 9.52125,0.6325 L2.19875,2.26 C1.525,2.40875 1.1,3.0775 1.25,3.75" transform="translate(20.964 17.62)"/>
        <path fill="#FFF" fill-rule="nonzero" d="M6.25,1.25 C5.6675,0.88 4.89625,1.05125 4.525,1.635 L0.4975,7.96125 C0.1275,8.54375 0.29875,9.31625 0.88125,9.6875 C1.46375,10.0575 2.23625,9.88625 2.60625,9.30375 L6.63375,2.97625 C7.00375,2.39375 6.8325,1.62125 6.25,1.25" transform="translate(15.964 20.12)"/>
        <path fill="#FFF" fill-rule="nonzero" d="M1.25,8.75 C1.8325,9.12 2.605,8.94875 2.975,8.36625 L7.00375,2.03875 C7.3725,1.455 7.2025,0.685 6.61875,0.3125 C6.03625,-0.0575 5.26375,0.11375 4.8925,0.69625 L0.86625,7.02375 C0.495,7.60625 0.66875,8.37875 1.25,8.75" transform="translate(21.96 11.056)"/>
        <path fill="#FFF" fill-rule="nonzero" d="M1.25,1.25 C0.57625,1.4 0.15125,2.0675 0.30125,2.74125 L1.92875,10.0625 C2.0775,10.73625 2.74375,11.1625 3.41875,11.0125 C4.09375,10.8625 4.5175,10.19375 4.3675,9.52 L2.74125,2.19875 C2.59125,1.525 1.92375,1.1 1.25,1.25" transform="translate(21.235 21.341)"/>
        <path fill="#FFF" fill-rule="nonzero" d="M3.75,10 C4.425,9.85125 4.84875,9.18375 4.69875,8.51 L3.07375,1.1875 C2.9225,0.5125 2.25625,0.0875 1.58125,0.2375 C0.90875,0.38875 0.4825,1.05625 0.63125,1.73 L2.26,9.05125 C2.40875,9.725 3.07625,10.15 3.75,10" transform="translate(18.464 11.37)"/>
        <path fill="#FFF" fill-rule="nonzero" d="M1.25,1.25 C0.87875,1.8325 1.05125,2.60375 1.63375,2.975 L7.96125,7.00125 C8.54375,7.37125 9.31625,7.20125 9.68625,6.6175 C10.0575,6.03625 9.885,5.26375 9.3025,4.8925 L2.975,0.86625 C2.3925,0.495 1.62,0.66625 1.25,1.25" transform="translate(20.964 20.122)"/>
        <path fill="#FFF" fill-rule="nonzero" d="M8.75,6.25 C9.12,5.66625 8.94875,4.895 8.36625,4.52375 L2.03875,0.49625 C1.45625,0.1275 0.685,0.29625 0.3125,0.88125 C-0.0575,1.4625 0.11375,2.235 0.69625,2.60625 L7.02375,6.63375 C7.6075,7.005 8.38,6.8325 8.75,6.25" transform="translate(13.464 15.122)"/>
        <path fill="#EA596E" fill-rule="nonzero" d="M1.25,5 C2.415,5.74 3.96,5.39625 4.7025,4.2325 C5.4425,3.0675 5.1,1.5225 3.93375,0.78 C2.77,0.03875 1.22375,0.3825 0.4825,1.5475 C-0.2575,2.7125 0.085,4.2575 1.25,5" transform="translate(26.265 8.042)"/>
        <path fill="#EA596E" fill-rule="nonzero" d="M5,1.25 C3.835,0.50875 2.29,0.85125 1.54875,2.01625 C0.8075,3.18125 1.15125,4.72625 2.31625,5.46875 C3.48125,6.20875 5.02625,5.865 5.7675,4.70125 C6.50875,3.53625 6.165,1.99 5,1.25" transform="translate(13.187 26.449)"/>
        <path fill="#EA596E" fill-rule="nonzero" d="M3.75,5 C5.0975,4.69875 5.9475,3.3625 5.65,2.015 C5.35,0.6675 4.01375,-0.1825 2.665,0.1175 C1.3175,0.4175 0.4675,1.7525 0.7675,3.1 C1.0675,4.44875 2.4025,5.2975 3.75,5" transform="translate(16.837 9.052)"/>
        <path fill="#EA596E" fill-rule="nonzero" d="M2.5,1.25 C1.1525,1.54875 0.3025,2.885 0.60125,4.2325 C0.90125,5.58 2.23625,6.43 3.58375,6.13125 C4.93125,5.83125 5.7825,4.49625 5.4825,3.14875 C5.1825,1.8 3.8475,0.95 2.5,1.25" transform="translate(21.884 29.883)"/>
        <path fill="#EA596E" fill-rule="nonzero" d="M5,5 C5.74,3.83375 5.39625,2.28875 4.2325,1.54625 C3.06875,0.80625 1.5225,1.14875 0.78125,2.31625 C0.04,3.47875 0.3825,5.025 1.5475,5.76625 C2.7125,6.50625 4.2575,6.16375 5,5" transform="translate(11.867 12.97)"/>
        <path fill="#EA596E" fill-rule="nonzero" d="M1.25,1.25 C0.50875,2.415 0.85375,3.96 2.0175,4.70125 C3.1825,5.4425 4.7275,5.09875 5.46875,3.93375 C6.21,2.77 5.865,1.22375 4.7025,0.4825 C3.53625,-0.25875 1.99125,0.085 1.25,1.25" transform="translate(27.291 24.148)"/>
        <path fill="#EA596E" fill-rule="nonzero" d="M1.25,3.75 C1.55,5.09875 2.88625,5.94875 4.23375,5.65 C5.58125,5.34875 6.43125,4.01375 6.13125,2.66625 C5.83125,1.31875 4.49625,0.46875 3.14875,0.7675 C1.8,1.0675 0.95125,2.4025 1.25,3.75" transform="translate(28.285 15.994)"/>
        <path fill="#EA596E" fill-rule="nonzero" d="M5,2.5 C4.7,1.15125 3.365,0.3025 2.0175,0.60125 C0.67,0.90125 -0.18125,2.2375 0.11875,3.585 C0.4175,4.9325 1.75375,5.78125 3.10125,5.4825 C4.45,5.1825 5.29875,3.8475 5,2.5" transform="translate(8.672 20.77)"/>
        <path fill="#FFCC4D" fill-rule="nonzero" d="M10,5 C10,2.23875 7.76125,0 5,0 C2.23875,0 0,2.23875 0,5 C0,7.76125 2.23875,10 5,10 C7.76125,10 10,7.76125 10,5" transform="translate(17.5 16.477)"/>
      </g>
    </g>
  </g>
</svg>
