<svg xmlns="http://www.w3.org/2000/svg" width="128" height="128" viewBox="0 0 128 128">
  <path d="M4.27025434,60.2257207 L10.0758537,51.5869565 L12.6524134,54.1757371 C13.0726674,51.7910708 13.4126997,49.467208 13.5743902,47.2469565 C13.5039634,46.2765217 13.4268293,45.3128261 13.4268293,44.3255435 C13.4268293,24.3002174 27.9314024,7.71858696 46.95,4.50065217 C42.9625,3.62793478 40.1387195,2.78554348 43.6097561,1.04347826 C47.352439,-0.83673913 51.0884146,1.47815217 53.667378,3.89076087 L53.6707317,3.89076087 L53.6740854,3.89076087 C56.2496951,1.47815217 59.992378,-0.83673913 63.7317073,1.04347826 C67.2027439,2.78554348 64.3789634,3.62793478 60.3914634,4.50065217 C79.4134146,7.71858696 93.9146341,24.3002174 93.9146341,44.3255435 C93.9146341,45.3128261 93.8375,46.2765217 93.7670732,47.2469565 C93.9285479,49.4688452 94.2686945,51.794498 94.6891655,54.1810123 L97.2709756,51.5869565 L103.482131,64.0681872 L105.595427,57.9992391 C106.68872,61.8843478 107.329268,65.9278261 107.329268,70.1195652 C107.329268,97.106413 83.3036585,118.978261 53.6707317,118.978261 C24.0378049,118.978261 0.012195122,97.106413 0.012195122,70.1195652 C0.012195122,65.1191304 0.847256098,60.293913 2.37987805,55.7483696 L4.27025434,60.2257207 Z" transform="translate(11 5)"/>
</svg>
