<svg xmlns="http://www.w3.org/2000/svg" xmlns:xlink="http://www.w3.org/1999/xlink" width="128" height="128" viewBox="0 0 128 128">
  <defs>
    <polygon id="clover-a" points="0 47.5 47.5 47.5 47.5 0 0 0"/>
  </defs>
  <g fill="none" fill-rule="evenodd" transform="matrix(1 0 0 -1 40 87.5)">
    <mask id="clover-b" fill="#fff">
      <use xlink:href="#clover-a"/>
    </mask>
    <g mask="url(#clover-b)">
      <path fill="#77B255" fill-rule="nonzero" d="M40,22.5 C37.38375,24.81 31.6425,26.58 27.2775,27.3 C31.6425,28.02125 37.38375,29.79125 40,32.1 C42.5175,34.32 43.70375,35.78375 42.67625,38.00125 C41.9675,39.52625 39.1075,39.66875 37.46875,41.115 C35.82875,42.5625 35.66375,45.08625 33.935,45.70875 C31.42375,46.61625 29.765,45.5675 27.2525,43.34875 C24.635,41.04 22.63,35.975 21.81125,32.1225 C20.995,35.975 18.98875,41.04125 16.3725,43.34875 C13.85375,45.56875 12.19625,46.61625 9.68375,45.70875 C7.955,45.08375 7.79375,42.56125 6.155,41.115 C4.515,39.6675 1.65125,39.5225 0.94625,37.9975 C-0.0825,35.78125 1.1075,34.31875 3.62125,32.1 C6.23875,29.79125 11.98125,28.02125 16.3475,27.3 C11.98125,26.58 6.23875,24.80875 3.62125,22.5 C1.105,20.28125 -0.0825,18.81875 0.9475,16.59875 C1.655,15.07625 4.515,14.93125 6.155,13.48625 C7.79375,12.03875 7.96,9.51375 9.6875,8.89125 C12.2,7.98375 13.85875,9.03625 16.3725,11.2525 C18.4375,13.07375 20.11875,16.6125 21.14,19.91875 C20.8125,14.24875 21.8,6.68 25.95625,2.09125 C27.635,0.23625 28.965,1.4025 29.48375,1.8575 C30.00375,2.315 31.48875,3.625 29.715,5.38625 C24.8275,10.23875 23.13375,15.2825 22.68125,19.31 C23.715,16.1875 25.31375,12.96375 27.2525,11.2525 C29.76625,9.03375 31.42625,7.98375 33.94,8.89125 C35.6675,9.51625 35.83,12.04125 37.46875,13.48625 C39.10875,14.93375 41.97125,15.07875 42.67625,16.60375 C43.70375,18.82125 42.515,20.28375 40,22.5" transform="translate(1.938 .185)"/>
    </g>
  </g>
</svg>
