<svg xmlns="http://www.w3.org/2000/svg" xmlns:xlink="http://www.w3.org/1999/xlink" width="128" height="128" viewBox="0 0 128 128">
  <defs>
    <polygon id="copter-a" points="0 47.5 47.5 47.5 47.5 0 0 0"/>
  </defs>
  <g fill="none" fill-rule="evenodd" transform="matrix(1 0 0 -1 40 87.5)">
    <polygon fill="#66757F" fill-rule="nonzero" points="25 7.5 22.5 7.5 22.5 13.75 25 13.75"/>
    <polygon fill="#66757F" fill-rule="nonzero" points="12.5 13.75 15 13.75 15 7.5 12.5 7.5"/>
    <mask id="copter-b" fill="#fff">
      <use xlink:href="#copter-a"/>
    </mask>
    <g mask="url(#copter-b)">
      <g transform="translate(1.25 3.75)">
        <path fill="#99AAB5" fill-rule="nonzero" d="M15,1.25 C15,0.56 11.6425,0 7.5,0 C3.3575,0 0,0.56 0,1.25 C0,1.94 3.3575,2.5 7.5,2.5 C11.6425,2.5 15,1.94 15,1.25" transform="translate(1.249 37.5)"/>
        <path fill="#99AAB5" fill-rule="nonzero" d="M15,1.25 C15,0.56 11.6425,0 7.5,0 C3.3575,0 0,0.56 0,1.25 C0,1.94 3.3575,2.5 7.5,2.5 C11.6425,2.5 15,1.94 15,1.25" transform="translate(18.749 37.5)"/>
        <polygon fill="#99AAB5" fill-rule="nonzero" points="18.75 31.25 16.25 31.25 16.25 38.75 18.75 38.75"/>
        <path fill="#66757F" fill-rule="nonzero" d="M5,1.25 C5,0.56 3.88,0 2.5,0 C1.12,0 0,0.56 0,1.25 C0,1.94 1.12,2.5 2.5,2.5 C3.88,2.5 5,1.94 5,1.25" transform="translate(14.999 37.5)"/>
        <path fill="#FFCC4D" fill-rule="nonzero" d="M7.5,1.25 C7.5,5 7.5,10 6.25,10 C5,10 2.5,5 1.25,2.5 C-6.66133815e-16,0 7.5,1.25 7.5,1.25" transform="translate(36.249 28.75)"/>
        <path fill="#FFCC4D" fill-rule="nonzero" d="M42.5,22.5 C42.5,25.26125 32.5,26.25 18.75,26.25 L16.26375,26.25 L16.25,26.25 C7.96625,26.25 0.3125,19.43625 0.3125,12.1875 C0.3125,4.93875 5,0 16.25,0 C27.5,0 31.25,5.87625 31.25,13.125 C31.25,14.225 31.0775,15.28875 30.78625,16.31125 C36.25,17.5 42.5,19.99125 42.5,22.5" transform="translate(1.249 7.5)"/>
        <path fill="#3B88C3" fill-rule="nonzero" d="M2.5,10 C-0.11375,6.3525 -1.335,0.51375 4.01625,0.27 C10,-2.77555756e-16 12.5,-2.77555756e-16 13.82875,3.23375 C15.535,7.385 15,12.5 13.48375,13.47875 C10.58375,15.35 5.115,13.6475 2.5,10" transform="translate(3.749 16.25)"/>
        <path fill="#3B88C3" fill-rule="nonzero" d="M7.5,10 C10.19875,5.67 10.0875,2.29875 5.19875,0.66875 C1.44875,-0.58125 0.19875,3.16875 0.3975,7.5875 C0.5375,10.6925 0.655,12.8325 2.69875,13.17 C4.5075,13.46875 5.8575,12.63625 7.5,10" transform="translate(19.8 16.831)"/>
        <path fill="#99AAB5" fill-rule="nonzero" d="M3.75,3.75 C4.87875,2.15875 5.33875,0.545 4.775,0.145 C4.2125,-0.255 2.84,0.7125 1.71125,2.3025 C0.5825,3.89375 0.1225,5.5075 0.68625,5.9075 C1.24875,6.3075 2.62125,5.34125 3.75,3.75" transform="translate(36.476 29.858)"/>
        <path fill="#99AAB5" fill-rule="nonzero" d="M3.75,3.75 C4.88625,2.15125 5.35,0.53125 4.7875,0.13125 C4.225,-0.26875 2.84625,0.70375 1.7125,2.3025 C0.57625,3.9025 0.11375,5.5225 0.67625,5.9225 C1.23875,6.3225 2.61625,5.34875 3.75,3.75" transform="translate(40.575 24.08)"/>
        <path fill="#66757F" fill-rule="nonzero" d="M2.5,2.5 C2.89875,1.9375 2.7675,1.1575 2.205,0.7575 C1.64125,0.3575 0.86125,0.49 0.46125,1.0525 C0.0625,1.615 0.19375,2.39625 0.7575,2.795 C1.32125,3.19625 2.10125,3.0625 2.5,2.5" transform="translate(39.77 28.226)"/>
        <path fill="#99AAB5" fill-rule="nonzero" d="M30,2.5 C30,1.12 28.88,0 27.5,0 L2.5,0 C1.12,0 0,1.12 0,2.5 C0,3.88 1.12,5 2.5,5 L27.5,5 C28.88,5 30,3.88 30,2.5" transform="translate(2.5)"/>
      </g>
    </g>
  </g>
</svg>
