<?xml version="1.0" encoding="UTF-8"?>
<svg width="128px" height="128px" viewBox="0 0 128 128" version="1.1" xmlns="http://www.w3.org/2000/svg" xmlns:xlink="http://www.w3.org/1999/xlink">
    <!-- Generator: Sketch 43.1 (39012) - http://www.bohemiancoding.com/sketch -->
    <title>twemoji/ball/earth</title>
    <desc>Created with Sketch.</desc>
    <defs></defs>
    <g id="Twemoji" stroke="none" stroke-width="1" fill="none" fill-rule="evenodd">
        <g id="twemoji/ball/earth">
            <g id="earth" transform="translate(2.000000, 2.000000)">
                <path d="M124,62 C124,27.7587778 96.2412222,0 62,0 C27.7587778,0 0,27.7587778 0,62 C0,96.2412222 27.7587778,124 62,124 C96.2412222,124 124,96.2412222 124,62" id="Shape" fill="#88C9F9" fill-rule="nonzero" transform="translate(62.000000, 62.000000) scale(-1, 1) rotate(-180.000000) translate(-62.000000, -62.000000) "></path>
                <path d="M123.014755,51.5848111 C119.521922,31.6909886 106.487655,15.0825446 88.8046626,6.65218604 C85.2731211,8.59018407 82.3501356,11.9366171 78.3651522,10.7421848 C71.9453152,8.81452174 63.3855326,4.53805435 57.8216739,9.88620652 C52.2578152,15.2377826 50.9738478,20.1579457 57.8216739,19.9422391 C64.6695,19.7299565 69.3773804,11.598163 72.8012935,15.0220761 C76.2252065,18.4459891 75.3692283,21.2262065 67.2374348,22.2978913 C59.1056413,23.3661522 50.3301522,24.6501196 45.6222717,24.6501196 C40.9178152,24.6501196 39.8461304,27.4337609 43.054337,30.4296848 C46.2659674,33.4256087 41.1300978,33.6413152 35.7819457,36.6372391 C30.4303696,39.633163 37.065913,40.9171304 41.558087,43.4850652 C46.0502609,46.053 49.4741739,42.8413696 51.401837,38.5614783 C53.3260761,34.281587 61.6050978,29.1457174 65.06325,29.7859891 C68.5214022,30.4296848 68.5214022,32.1416413 67.8777065,35.1375652 C67.2374348,38.1334891 70.4490652,37.2775109 70.6613478,33.8535978 C70.8770543,30.4296848 74.7289565,27.86175 77.7248804,27.6460435 C80.7208043,27.4337609 83.2853152,31.7136522 79.8648261,33.8535978 C76.440913,35.9935435 73.017,37.7055 77.2968913,38.7771848 C81.5767826,39.8454457 84.5692826,45.4093043 79.6491196,47.7649565 C74.7289565,50.1171848 66.16575,51.6168587 62.3138478,49.6891957 C58.4619457,47.7649565 49.6898804,44.9813152 47.3342283,46.4809891 C44.982,47.9772391 43.6980326,49.5248478 40.9178152,50.5691413 C38.1341739,51.6168587 26.7941739,56.7527283 26.5784674,63.3848478 C26.3661848,70.0169674 26.1504783,77.5084891 30.6460761,77.7207717 C35.13825,77.9364783 46.0502609,74.9405543 49.4741739,72.156913 C52.898087,69.3766957 57.6059674,70.0169674 59.1056413,73.2285978 C60.6018913,76.4368043 59.5336304,78.3644674 58.0339565,83.500337 C56.5377065,88.6362065 59.0166196,91.2041413 61.4133587,95.6963152 C63.8135217,100.191913 65.7377609,102.759848 65.7377609,105.968054 C65.7377609,109.179685 69.1650978,112.387891 74.3009674,107.039739 C79.436837,101.688163 84.1412935,91.2041413 86.2812391,87.3522391 C88.4211848,83.500337 90.1365652,74.9405543 92.7045,73.2285978 C95.2724348,71.5166413 99.3366196,67.4490326 96.3406957,68.0927283 C93.3447717,68.733 87.3529239,67.8770217 85.85325,63.5971304 C84.357,59.320663 77.937163,51.1888696 80.933087,50.3328913 C83.9290109,49.476913 87.3529239,55.0887065 88.6368913,57.7388152 C89.9208587,60.3889239 91.6328152,63.5971304 94.20075,64.4531087 C96.7686848,65.309087 102.332543,58.7283261 104.0445,57.7388152 C105.756457,56.7527283 104.472489,52.6851196 101.048576,53.1131087 C97.624663,53.5410978 93.1324891,53.1131087 93.1324891,50.973163 C93.1324891,48.8332174 97.4089565,46.053 100.83287,46.6932717 C104.260207,47.3369674 106.828141,48.4052283 108.968087,50.973163 C111.104609,53.5410978 115.3845,58.2489783 117.096457,61.2449022 C118.808413,64.2408261 120.09238,64.6688152 120.948359,59.320663 C121.528938,55.6908784 122.306412,53.7354748 123.014755,51.5848111 L123.014755,51.5848111 Z" id="Combined-Shape" fill="#5C913B"></path>
            </g>
        </g>
    </g>
</svg>