<svg xmlns="http://www.w3.org/2000/svg" xmlns:xlink="http://www.w3.org/1999/xlink" width="128" height="128" viewBox="0 0 128 128">
  <defs>
    <polygon id="fire-a" points="0 47.5 47.5 47.5 47.5 0 0 0"/>
    <path id="fire-c" d="M20.72875,33.54125 C17.0325,33.2525 13.64625,36.71875 14.89625,42.34375 L14.89625,42.34375 C10.8475,39.36125 10.73125,34.34 11.98,31.09375 L11.98,31.09375 C13.28125,27.70875 11.9275,24.89625 8.75,24.58375 L8.75,24.58375 C5.20125,24.23375 3.23,28.38625 5.0475,35 L5.0475,35 C1.9,31.29375 0,26.49375 0,21.25 L0,21.25 C0,9.51375 9.51375,0 21.25,0 L21.25,0 C32.98625,0 42.5,9.51375 42.5,21.25 L42.5,21.25 C42.5,23.82875 42.04125,26.29875 41.2,28.585 L41.2,28.585 C40.625,21.85 37.03375,18.38875 33.28125,20 L33.28125,20 C29.76625,21.51 32.135,27.39625 32.31,30.205 L32.31,30.205 C32.605,34.96625 32.295,40.41625 23.64625,44.9475 L23.64625,44.9475 C27.24,38.07375 24.0625,33.80125 20.72875,33.54125"/>
  </defs>
  <g fill="none" fill-rule="evenodd" transform="matrix(1 0 0 -1 40 87.5)">
    <mask id="fire-b" fill="#fff">
      <use xlink:href="#fire-a"/>
    </mask>
    <g mask="url(#fire-b)">
      <path fill="#F4900C" fill-rule="nonzero" d="M42.5,21.25 C42.5,23.82875 42.04125,26.29875 41.2,28.585 C40.625,21.84875 37.03375,18.38875 33.28125,20 C29.765,21.51 32.135,27.39625 32.31,30.205 C32.605,34.96625 32.295,40.41625 23.64625,44.9475 C27.24,38.0725 24.0625,33.8025 20.72875,33.54125 C17.03125,33.25375 13.64625,36.71875 14.89625,42.34375 C10.84875,39.36125 10.73,34.34125 11.97875,31.09375 C13.28125,27.70875 11.9275,24.89625 8.75,24.58375 C5.20125,24.23375 3.22875,28.385 5.0475,35 C1.9,31.29375 0,26.49375 0,21.25 C0,9.51375 9.51375,0 21.25,0 C32.98625,0 42.5,9.51375 42.5,21.25" transform="translate(2.5 1.25)"/>
    </g>
    <g transform="translate(2.5 1.25)">
      <mask id="fire-d" fill="#fff">
        <use xlink:href="#fire-c"/>
      </mask>
      <g mask="url(#fire-d)">
        <path fill="#FFCC4D" fill-rule="nonzero" d="M30,15 C30,17.73375 29.27,20.295 27.99375,22.50125 C28.1775,18.64625 24.79125,17.135 22.96875,17.865 C20.3375,18.91875 21.0425,20.72875 20.365,24.47875 C19.6875,28.22875 17.08375,30.83375 13.22875,31.97875 C16.04125,24.0625 11.67,21.145 9.37875,20.62375 C7.03875,20.09125 4.6875,20.625 4.41875,25.6325 C1.69,22.915 0,19.155 0,15 C0,6.71625 6.71625,0 15,0 C23.28375,0 30,6.71625 30,15" transform="translate(6.25 -7.5)"/>
      </g>
    </g>
  </g>
</svg>
