<?xml version="1.0" encoding="UTF-8"?>
<svg width="128px" height="128px" viewBox="0 0 128 128" version="1.1" xmlns="http://www.w3.org/2000/svg" xmlns:xlink="http://www.w3.org/1999/xlink">
    <!-- Generator: Sketch 43.1 (39012) - http://www.bohemiancoding.com/sketch -->
    <title>twemoji/ball/football</title>
    <desc>Created with Sketch.</desc>
    <defs></defs>
    <g id="Twemoji" stroke="none" stroke-width="1" fill="none" fill-rule="evenodd">
        <g id="twemoji/ball/football">
            <g id="football">
                <path d="M100.352578,28.0613556 C76.2543278,3.96310556 37.0959944,-5.07506111 9.98855,9.98855 C-5.07506111,37.0995222 3.96310556,76.2578556 28.0613556,100.352578 C52.1560778,124.450828 91.3144111,133.488994 118.425383,118.425383 C133.488994,91.3179389 124.450828,52.1596056 100.352578,28.0613556" id="Shape" fill="#662113" fill-rule="nonzero" transform="translate(64.206967, 64.206967) scale(-1, 1) rotate(-180.000000) translate(-64.206967, -64.206967) "></path>
                <path d="M3.63165586,125.77659 C3.03709785,122.086101 2.70028878,118.38987 2.63452124,114.727738 L41.437301,75.9249586 C45.1006182,75.9907474 48.7980567,76.3277533 52.4897362,76.9226707 L3.63165586,125.77659 L3.63165586,125.77659 Z" id="Combined-Shape" fill="#E1E8ED" transform="translate(27.562129, 100.850774) scale(-1, 1) rotate(-180.000000) translate(-27.562129, -100.850774) "></path>
                <path d="M124.77897,2.63656998 C125.373897,6.32855713 125.71088,10.0262737 125.776612,13.6898166 L86.9786811,52.4877476 C83.3152529,52.4220747 79.617415,52.0851886 75.9251647,51.4903751 L124.77897,2.63656998 L124.77897,2.63656998 Z" id="Combined-Shape" fill="#E1E8ED" transform="translate(100.850888, 27.562159) scale(-1, 1) rotate(-180.000000) translate(-100.850888, -27.562159) "></path>
                <path d="M81.2401361,86.2333528 L72.7239921,77.7172087 L70.2281778,80.2139056 C68.8488167,81.5897389 66.6157333,81.5897389 65.2399,80.2139056 C63.8605389,78.8345444 63.8605389,76.6014611 65.2399,75.2221 L67.7343917,72.7276083 L55.6905583,60.683775 L53.1960667,63.1782667 C51.8167056,64.5576278 49.5836222,64.5576278 48.2042611,63.1782667 C46.8284278,61.8024333 46.8284278,59.56935 48.2042611,58.1899889 L50.7009579,55.6941746 L42.1848139,47.1780306 L39.6882056,49.6746389 C38.3123722,51.054 36.0792889,51.054 34.6999278,49.6746389 C33.3205667,48.2988056 33.3240944,46.0621944 34.6999278,44.6863611 L37.1960948,42.1893114 L33.6677,38.6609167 C32.2883389,37.2780278 32.2883389,35.0484722 33.6677,33.6691111 C35.0470611,32.28975 37.2766167,32.28975 38.6559778,33.6691111 L42.1852543,37.1983877 L44.6764833,34.7062778 C46.0593722,33.3269167 48.2889278,33.3269167 49.6682889,34.7062778 C51.04765,36.0891667 51.04765,38.3151944 49.6682889,39.6945556 L47.1748556,42.1879889 L55.6918817,50.705015 L58.1843444,48.2134333 C59.5637056,46.8305444 61.7932611,46.8305444 63.1726222,48.2134333 C64.5519833,49.5927944 64.5519833,51.82235 63.1726222,53.2017111 L60.6806,55.6937333 L72.7244333,67.7375667 L75.2164556,65.2455444 C76.5958167,63.8661833 78.8289,63.8661833 80.2047333,65.2455444 C81.5840944,66.6249056 81.5876222,68.8544611 80.2047333,70.2338222 L77.7131516,72.726285 L86.2301778,81.2433111 L88.7236111,78.7498778 C90.1029722,77.3705167 92.3325278,77.3740444 93.7118889,78.7498778 C95.09125,80.1292389 95.09125,82.3587944 93.7118889,83.7416833 L91.219779,86.2329123 L94.7476444,89.7607778 C96.1234778,91.1401389 96.1234778,93.3696944 94.7476444,94.7490556 C93.3682833,96.1284167 91.1352,96.1284167 89.7558389,94.7490556 L86.2288552,91.2220719 L83.7318056,93.7182389 C82.3559722,95.0940722 80.1193611,95.0940722 78.7435278,93.7182389 C77.3641667,92.3424056 77.3641667,90.1057944 78.7435278,88.7299611 L81.2401361,86.2333528 L81.2401361,86.2333528 Z" id="Combined-Shape" fill="#E1E8ED" fill-rule="nonzero" transform="translate(64.206349, 64.209083) scale(-1, 1) rotate(-180.000000) translate(-64.206349, -64.209083) "></path>
            </g>
        </g>
    </g>
</svg>