<svg xmlns="http://www.w3.org/2000/svg" xmlns:xlink="http://www.w3.org/1999/xlink" width="128" height="128" viewBox="0 0 128 128">
  <defs>
    <polygon id="leaf-a" points="0 47.5 47.5 47.5 47.5 0 0 0"/>
  </defs>
  <g fill="none" fill-rule="evenodd" transform="matrix(1 0 0 -1 40 87.5)">
    <mask id="leaf-b" fill="#fff">
      <use xlink:href="#leaf-a"/>
    </mask>
    <g mask="url(#leaf-b)">
      <g transform="translate(0 1.25)">
        <path fill="#A6D388" fill-rule="nonzero" d="M6.25,8.75 C12.5075,2.4925 26.8775,-6.21125 43.16625,8.8375 C33.95875,10.60875 32.33875,22.32375 26.08,28.58125 C19.8225,34.84 11.09125,36.255 4.83375,29.9975 C-1.425,23.73875 -0.00875,15.00875 6.25,8.75" transform="translate(3.002 .563)"/>
        <path fill="#77B255" fill-rule="nonzero" d="M31.25,6.25 C38.91,4.2075 44.5725,7.1725 45.095,7.695 C45.095,7.695 40.3625,5.50625 32.14625,9.54125 C33.33625,11.05625 36.9625,13.1775 36.9625,13.1775 C36.2725,13.61 31.865,13.45875 28.85625,11.39125 C27.40875,12.30875 25.87625,13.4125 24.265,14.735 L25.315,15.82375 C29.3775,20.05375 33.995,19.05375 33.995,19.05375 C33.19875,19.82 26.9975,23.355 22.0175,18.17875 L21.25125,17.38125 C20.71875,17.88125 20.18125,18.3975 19.635,18.94375 L17.3225,21.25625 L18.6525,22.5875 C22.80375,26.73875 28.935,26.90125 28.935,26.90125 C28.1525,27.685 20.3575,30.21375 15.28125,25.13625 L14.36,24.2175 L3.99375,34.58375 C3.2125,35.36625 1.87875,35.3025 1.0975,34.52 C0.31375,33.7375 0.25125,32.40625 1.03375,31.62375 L11.4,21.2575 L11.3275,21.18375 C6.25,16.1075 8.35875,7.89125 9.14125,7.10875 C9.14125,7.10875 9.72625,13.66125 13.8775,17.81125 L14.36125,18.29625 L18.73875,13.91875 C18.80875,13.8475 18.88,13.785 18.95125,13.715 C15.91875,7.71875 20.48625,0.79 21.39875,0.235 C21.39875,0.235 19.56625,6.1375 21.99875,11.0275 C23.90625,9.53375 25.77375,8.41 27.57,7.58375 C27.67375,3.8425 30.95375,0.45875 31.74875,0.17125 C31.74875,0.17125 30.61,3.925 31.08125,5.78 L31.25,6.25 Z" transform="translate(.855 1.488)"/>
        <path fill="#55ACEE" fill-rule="nonzero" d="M1.25,0 C0.755,0 0.28625,0.2975 0.09,0.785 C-0.16625,1.425 0.1425,2.15125 0.78125,2.40875 C0.98875,2.495 5.80125,4.53125 6.30125,10.1125 C6.36375,10.79875 6.95625,11.30125 7.6575,11.24625 C8.34625,11.18375 8.8525,10.57625 8.79125,9.88875 C8.15125,2.75 1.9775,0.195 1.715,0.09 C1.5625,0.02875 1.405,0 1.25,0" transform="translate(27.604 32.5)"/>
        <path fill="#55ACEE" fill-rule="nonzero" d="M1.25,0 C0.7325,0 0.24875,0.32375 0.07,0.83875 C-0.15625,1.48875 0.18375,2.19875 0.8325,2.42875 C1.0675,2.51375 6.48875,4.5675 7.5575,12.66375 C7.6475,13.3475 8.2575,13.8325 8.96,13.74 C9.645,13.65 10.12625,13.02125 10.035,12.3375 C8.75875,2.64875 1.95125,0.17125 1.66125,0.07 C1.525,0.0225 1.38625,0 1.25,0" transform="translate(33.854 27.5)"/>
        <path fill="#55ACEE" fill-rule="nonzero" d="M2.5,0 C2.05875,0 1.6325,0.23375 1.40375,0.64875 C1.07125,1.25125 1.2925,2.01125 1.89625,2.345 C1.93,2.36375 5.335,4.265 6.39625,6.7425 C6.66875,7.3775 7.40625,7.67 8.0375,7.39875 C8.67125,7.1275 8.96625,6.3925 8.69375,5.7575 C7.29,2.4825 3.27,0.2475 3.1,0.15375 C2.90875,0.05 2.70375,0 2.5,0" transform="translate(36.355 20)"/>
      </g>
    </g>
  </g>
</svg>
