<svg xmlns="http://www.w3.org/2000/svg" xmlns:xlink="http://www.w3.org/1999/xlink" width="128" height="128" viewBox="0 0 128 128">
  <defs>
    <polygon id="maple-leaf-a" points="0 47.5 47.5 47.5 47.5 0 0 0"/>
  </defs>
  <g fill="none" fill-rule="evenodd" transform="matrix(1 0 0 -1 42 66.5)">
    <mask id="maple-leaf-b" fill="#fff">
      <use xlink:href="#maple-leaf-a"/>
    </mask>
    <g mask="url(#maple-leaf-b)">
      <path fill="#DD2E44" fill-rule="nonzero" d="M45,20 C45,20.85875 41.38125,20.625 41.09375,21.25 C40.80625,21.875 45.10375,26.98 44.47875,28.125 C43.85375,29.27125 38.12125,26.6675 37.76,27.24 C37.4,27.8125 38.125,31.615 37.5,32.08375 C36.875,32.5525 30.9375,25.93875 30.10375,26.71875 C29.27125,27.5 32.03125,39.84375 31.46125,40.0925 C30.89125,40.34 27.1875,38.385 26.72,38.49 C26.2525,38.59375 23.3525,46.14625 22.5,46.14625 C21.6475,46.14625 18.7475,38.59375 18.28,38.49 C17.8125,38.385 14.10875,40.34 13.53875,40.0925 C12.96875,39.84375 15.72875,27.5 14.89625,26.71875 C14.0625,25.93875 8.125,32.5525 7.5,32.08375 C6.875,31.615 7.6,27.8125 7.24,27.24 C6.87875,26.6675 1.14625,29.27125 0.52125,28.125 C-0.10375,26.98 4.19375,21.875 3.90625,21.25 C3.61875,20.625 0,20.85875 0,20 C0,19.14125 10.5475,13.45625 11.25,12.78625 C11.9525,12.1175 7.6075,9.285 8.22875,8.75 C8.94875,8.13 13.02875,9.7875 21.25,9.94625 L21.25,2.39625 C21.25,1.705 21.81,1.14625 22.5,1.14625 C23.19125,1.14625 23.75,1.705 23.75,2.39625 L23.75,9.94625 C31.97125,9.7875 36.05125,8.13 36.77125,8.75 C37.39125,9.285 33.04625,12.1175 33.75,12.78625 C34.4525,13.45625 45,19.14125 45,20" transform="translate(1.25 .104)"/>
    </g>
  </g>
</svg>
