<svg xmlns="http://www.w3.org/2000/svg" xmlns:xlink="http://www.w3.org/1999/xlink" width="128" height="128" viewBox="0 0 128 128">
  <defs>
    <polygon id="moon-a" points="0 47.5 47.5 47.5 47.5 0 0 0"/>
  </defs>
  <g fill="none" fill-rule="evenodd" transform="matrix(1 0 0 -1 40 87.5)">
    <mask id="moon-b" fill="#fff">
      <use xlink:href="#moon-a"/>
    </mask>
    <g mask="url(#moon-b)">
      <g transform="translate(1.25 1.25)">
        <path fill="#CCD6DD" fill-rule="nonzero" d="M45,22.5 C45,10.07375 34.92625,0 22.5,0 C10.07375,0 0,10.07375 0,22.5 C0,34.92625 10.07375,45 22.5,45 C34.92625,45 45,34.92625 45,22.5"/>
        <path fill="#B8C5CD" fill-rule="nonzero" d="M8.75,5 C8.75,2.58375 6.7925,0.625 4.375,0.625 C1.9575,0.625 0,2.58375 0,5 C0,7.41625 1.9575,9.375 4.375,9.375 C6.7925,9.375 8.75,7.41625 8.75,5" transform="translate(7.5 30.625)"/>
        <path fill="#B8C5CD" fill-rule="nonzero" d="M8.75,5 C8.75,2.5825 6.7925,0.625 4.375,0.625 C1.9575,0.625 0,2.5825 0,5 C0,7.4175 1.9575,9.375 4.375,9.375 C6.7925,9.375 8.75,7.4175 8.75,5" transform="translate(26.25 4.375)"/>
        <path fill="#B8C5CD" fill-rule="nonzero" d="M5,2.5 C5,1.12 3.88,0 2.5,0 C1.12,0 0,1.12 0,2.5 C0,3.88 1.12,5 2.5,5 C3.88,5 5,3.88 5,2.5" transform="translate(25 36.25)"/>
        <path fill="#B8C5CD" fill-rule="nonzero" d="M0,1.25 C0,0.55875 0.56,0 1.25,0 C1.94,0 2.5,0.55875 2.5,1.25 C2.5,1.94 1.94,2.5 1.25,2.5 C0.56,2.5 0,1.94 0,1.25" transform="translate(2.5 21.25)"/>
        <path fill="#B8C5CD" fill-rule="nonzero" d="M0,1.25 C0,0.55875 0.55875,0 1.25,0 C1.94125,0 2.5,0.55875 2.5,1.25 C2.5,1.94 1.94125,2.5 1.25,2.5 C0.55875,2.5 0,1.94 0,1.25" transform="translate(36.25 32.5)"/>
        <path fill="#B8C5CD" fill-rule="nonzero" d="M0,1.25 C0,0.55875 0.55875,0 1.25,0 C1.94125,0 2.5,0.55875 2.5,1.25 C2.5,1.94125 1.94125,2.5 1.25,2.5 C0.55875,2.5 0,1.94125 0,1.25" transform="translate(18.75 5)"/>
        <path fill="#B8C5CD" fill-rule="nonzero" d="M5,2.5 C5,1.12 3.88,0 2.5,0 C1.12,0 0,1.12 0,2.5 C0,3.88 1.12,5 2.5,5 C3.88,5 5,3.88 5,2.5" transform="translate(37.5 18.75)"/>
        <path fill="#B8C5CD" fill-rule="nonzero" d="M5,2.5 C5,1.12 3.88,0 2.5,0 C1.12,0 0,1.12 0,2.5 C0,3.88 1.12,5 2.5,5 C3.88,5 5,3.88 5,2.5" transform="translate(5 10)"/>
        <path fill="#99AAB5" fill-rule="nonzero" d="M11.25,5 C2.5,5 0,8.2725 0,6.72625 C0,5.17875 5,1.13 11.25,1.13 C17.5,1.13 22.5,5.17875 22.5,6.72625 C22.5,8.2725 20,5 11.25,5" transform="translate(11.25 8.87)"/>
        <path fill="#99AAB5" fill-rule="nonzero" d="M7.5,3.75 C7.5,1.67875 5.82,0 3.75,0 C1.68,0 0,1.67875 0,3.75 C0,5.82125 1.68,7.5 3.75,7.5 C5.82,7.5 7.5,5.82125 7.5,3.75" transform="translate(26.25 22.5)"/>
        <path fill="#99AAB5" fill-rule="nonzero" d="M7.5,3.75 C7.5,1.67875 5.82,0 3.75,0 C1.68,0 0,1.67875 0,3.75 C0,5.82125 1.68,7.5 3.75,7.5 C5.82,7.5 7.5,5.82125 7.5,3.75" transform="translate(11.25 22.5)"/>
      </g>
    </g>
  </g>
</svg>
