<svg xmlns="http://www.w3.org/2000/svg" width="128" height="128" viewBox="0 0 128 128">
  <path d="M43.0836333,98.4612378 C49.6481564,104.098701 56.3907194,107.613636 61.326087,107.613636 L61.329918,107.613636 C66.2660479,107.611817 73.0087333,104.095669 79.572947,98.4574533 C84.6479123,99.6465746 98.3690306,103.652555 105.803674,113.513636 C106.467478,114.391932 107.474978,114.854545 108.502696,114.854545 C109.206935,114.854545 109.914543,114.636648 110.521065,114.184091 C112.010413,113.074489 112.313674,110.972614 111.194978,109.490909 C107.468396,104.547247 102.549481,100.882521 97.6695784,98.1968587 C103.98979,99.0108663 110.927308,100.768366 116.874043,104.318352 C117.416543,104.643523 118.016326,104.797727 118.606,104.797727 C119.751652,104.797727 120.866978,104.217784 121.497087,103.171875 C122.457413,101.582898 121.9385,99.5246023 120.344696,98.5725568 C109.379629,92.02728 95.9942606,90.7971467 87.1704206,90.8399318 C95.3250594,81.3631843 101.76087,69.0902536 101.76087,57.3295455 C101.76087,56.908793 101.753662,56.4935313 101.739408,56.0836969 C113.45678,52.5118637 121.978261,41.6647695 121.978261,28.8352273 C121.978261,13.0963068 109.153696,0.340909091 93.3369565,0.340909091 C78.0574585,0.340909091 65.5703186,12.2445076 64.7396552,27.242143 C63.578275,27.1856423 62.4375171,27.1590909 61.326087,27.1590909 C60.2146604,27.1590909 59.0739063,27.1856421 57.9125306,27.2421514 C57.0820762,12.2445074 44.5979703,0.340909091 29.3152174,0.340909091 C13.4951087,0.340909091 0.673913043,13.0963068 0.673913043,28.8352273 C0.673913043,41.6652178 9.1937507,52.5126219 20.9127525,56.0840714 C20.8985077,56.4937843 20.8913043,56.9089212 20.8913043,57.3295455 C20.8913043,69.0902566 27.3271177,81.3631905 35.4817595,90.839939 C26.6581162,90.7970089 13.2731597,92.0269132 2.30747826,98.5725568 C0.713673913,99.5246023 0.19476087,101.582898 1.15508696,103.171875 C1.78519565,104.217784 2.90052174,104.797727 4.04617391,104.797727 C4.63584783,104.797727 5.23563043,104.643523 5.77813043,104.318352 C11.722687,100.770178 18.6587066,99.0134641 24.9782678,98.1995985 C20.0997492,100.885014 15.1825106,104.548928 11.4571957,109.490909 C10.3418696,110.972614 10.6417609,113.074489 12.1311087,114.184091 C12.7376304,114.636648 13.4486087,114.854545 14.1494783,114.854545 C15.1738261,114.854545 16.1846957,114.391932 16.8485,113.513636 C24.2545554,103.691381 38.0001635,99.6606129 43.0836333,98.4612378 L43.0836333,98.4612378 Z" transform="translate(2 6)"/>
</svg>
