<svg xmlns="http://www.w3.org/2000/svg" xmlns:xlink="http://www.w3.org/1999/xlink" width="128" height="128" viewBox="0 0 128 128">
  <defs>
    <polygon id="mushroom-a" points="0 47.5 47.5 47.5 47.5 0 0 0"/>
    <path id="mushroom-c" d="M0,5 C0,2.23875 2.23875,0 5,0 L5,0 L40,0 C42.76125,0 45,2.23875 45,5 L45,5 C45,17.5 34.92625,27.5 22.5,27.5 L22.5,27.5 C10.07375,27.5 0,17.5 0,5"/>
  </defs>
  <g fill="none" fill-rule="evenodd" transform="matrix(1 0 0 -1 28 77.5)">
    <mask id="mushroom-b" fill="#fff">
      <use xlink:href="#mushroom-a"/>
    </mask>
    <g mask="url(#mushroom-b)">
      <path fill="#99AAB5" fill-rule="nonzero" d="M22.5,3.75 C22.5,0.98875 20.26125,0 17.5,0 L5,0 C2.23875,0 0,0.98875 0,3.75 C0,6.51125 3.75,12.5 3.75,20 C3.75,27.5 18.75,27.5 18.75,20 C18.75,12.5 22.5,6.51125 22.5,3.75" transform="translate(12.5 1.25)"/>
    </g>
    <g transform="translate(1.25 18.75)">
      <mask id="mushroom-d" fill="#fff">
        <use xlink:href="#mushroom-c"/>
      </mask>
      <g mask="url(#mushroom-d)">
        <g transform="translate(-1.25 -2.5)">
          <path fill="#DD2E44" fill-rule="nonzero" d="M23.75,30 C10.6325,30 0,19.20125 0,6.0075 C0,3.0925 2.36375,0.48625 5.2775,0.48625 L42.22125,0.48625 C45.13625,0.48625 47.5,3.0925 47.5,6.0075 C47.5,19.20125 36.8675,30 23.75,30" transform="translate(0 .764)"/>
          <path fill="#F4ABBA" fill-rule="nonzero" d="M8.75,0 C4.5,0 1.04125,3.4575 1.04125,7.70875 C1.04125,11.95875 4.5,15.41625 8.75,15.41625 C13,15.41625 16.45875,11.95875 16.45875,7.70875 C16.45875,3.4575 13,0 8.75,0" transform="translate(2.136 9.428)"/>
          <path fill="#F4ABBA" fill-rule="nonzero" d="M8.75,16.25 C4.40625,16.25 0.885,12.72875 0.885,8.385 C0.885,4.0425 4.40625,0.52125 8.75,0.52125 C13.09375,0.52125 16.615,4.0425 16.615,8.385 C16.615,12.72875 13.09375,16.25 8.75,16.25 M8.75,15.9375 C12.91375,15.9375 16.3025,12.55 16.3025,8.385 C16.3025,4.22125 12.91375,0.83375 8.75,0.83375 C4.58625,0.83375 1.1975,4.22125 1.1975,8.385 C1.1975,12.55 4.58625,15.9375 8.75,15.9375" transform="translate(2.136 8.75)"/>
          <path fill="#F4ABBA" fill-rule="nonzero" d="M11.25,3.75 C10.05,6.69625 8.245,9.31875 5.98875,11.48 C2.9075,11.45 0.4175,8.94875 0.4175,5.86 C0.4175,2.75375 2.93625,0.235 6.0425,0.235 C8.40125,0.235 10.41375,1.69125 11.25,3.75" transform="translate(33.333 12.264)"/>
          <path fill="#F4ABBA" fill-rule="nonzero" d="M11.25,6.25 C11.25,3.14375 8.73125,0.625 5.625,0.625 C2.51875,0.625 0,3.14375 0,6.25 C0,9.35625 2.51875,11.875 5.625,11.875 C8.73125,11.875 11.25,9.35625 11.25,6.25" transform="translate(22.5 3.75)"/>
          <path fill="#F4ABBA" fill-rule="nonzero" d="M7.5,3.75 C7.5,1.68 5.82125,0 3.75,0 C1.67875,0 0,1.68 0,3.75 C0,5.82125 1.67875,7.5 3.75,7.5 C5.82125,7.5 7.5,5.82125 7.5,3.75" transform="translate(22.5 20)"/>
        </g>
      </g>
    </g>
  </g>
</svg>
