<svg xmlns="http://www.w3.org/2000/svg" width="128" height="128" viewBox="0 0 128 128">
  <path d="M100.856968,99.4878284 C107.272966,100.698824 113.187993,100.663961 117.248359,99.2995905 C127.515453,95.8496261 124.093088,85.4997329 113.825994,88.9496973 C110.21641,90.1625952 106.606826,88.5219147 103.889533,85.1346241 C112.893432,81.4011901 109.460179,71.9268347 99.667439,75.0915933 C99.2765385,72.7250514 99.1873908,70.1802739 99.4760326,67.5515912 C103.82004,57.6076558 106.338214,47.0604706 106.338214,38.2627092 C106.338214,13.4919647 86.4166289,0.313101496 61.8474729,0.313101496 C37.2748946,0.313101496 17.3567322,13.4919647 17.3567322,38.2627092 C17.3567322,47.0592663 19.871642,57.6047682 24.213872,67.5475075 C24.5030415,70.1775179 24.4140253,72.7235929 24.022968,75.0912682 C14.2312874,71.9275768 10.7984918,81.40076 19.8010852,85.1342943 C17.0837616,88.5218082 13.4740603,90.1626346 9.86435897,88.9496973 C-0.402735043,85.4997329 -3.82509972,95.8496261 6.4419943,99.2995905 C10.5029592,100.664162 16.4191335,100.698834 22.8362262,99.4872922 C19.2252271,105.955746 14.191187,110.009366 9.86517589,108.555734 C-0.401918095,105.105769 -3.82428276,118.905627 6.44281126,122.355591 C16.7099053,125.805556 34.8826617,120.192463 47.5111874,108.555734 C55.0027436,101.655805 61.8474729,101.655805 61.8474729,101.655805 C61.8474729,101.655805 68.6922023,101.655805 76.1803361,108.555734 C88.8088618,120.192463 106.981618,125.805556 117.248712,122.355591 C127.515806,118.905627 124.093442,105.105769 113.826348,108.555734 C109.502041,110.009326 104.468277,105.95597 100.856968,99.4878284 L100.856968,99.4878284 Z" transform="translate(2 2)"/>
</svg>
