<svg xmlns="http://www.w3.org/2000/svg" width="128" height="128" viewBox="0 0 128 128">
  <path d="M19.7596384,26.327039 C27.2774562,19.7482241 44.9457889,24.3960278 57.6909615,36.6388043 C66.7707692,45.3525 84.8025,41.686413 96.3895192,52.8261957 C108.144808,64.1277174 107.353942,84.3686957 86.115,105.95413 C69.0020192,123.344457 45.4443269,123.344457 31.4275,111.160109 C16.6601923,98.3220652 23.0981731,82.1481522 16.5827885,65.3845652 C10.7923132,50.4908131 3.80689551,34.3421421 13.1238414,30.2632266 C3.05707233,19.9363841 0.792550076,5.66966441 0.700865385,4.91232609 C0.451826923,2.9343913 1.87201923,1.01373913 3.85759615,0.606021739 C5.85326923,0.198304348 7.66721154,1.46863043 7.91288462,3.43982609 C7.93307692,3.60830435 10.1273077,16.9079783 19.2205769,25.6486304 C19.4340449,25.8540834 19.6136955,26.0823477 19.7596384,26.327039 L19.7596384,26.327039 Z" transform="translate(13 4)"/>
</svg>
