<svg xmlns="http://www.w3.org/2000/svg" xmlns:xlink="http://www.w3.org/1999/xlink" width="128" height="128" viewBox="0 0 128 128">
  <defs>
    <polygon id="pumpkin-a" points="0 47.5 47.5 47.5 47.5 0 0 0"/>
  </defs>
  <g fill="none" fill-rule="evenodd" transform="matrix(1 0 0 -1 40 87.5)">
    <mask id="pumpkin-b" fill="#fff">
      <use xlink:href="#pumpkin-a"/>
    </mask>
    <g mask="url(#pumpkin-b)">
      <g transform="translate(2.5 1.25)">
        <path fill="#F18F26" fill-rule="nonzero" d="M21.25,38.75 L28.75,38.75 C37.5,38.75 42.5,28.89125 42.5,18.75 C42.5,-0.00125 31.25,0 21.25,0 C11.25,0 0,0 0,18.75 C0,31.1975 7.5,38.75 13.75,38.75 L21.25,38.75"/>
        <path fill="#642116" fill-rule="nonzero" d="M26.25,8.75 C26.20625,7.91375 25.81,6.99375 25.035,6.08875 C23.02875,3.7475 20.8025,4.2375 19.98625,7.11375 C18.45625,6.87125 16.8,6.71375 15.035,6.71375 C6.285,6.71375 0.035,10.46375 0.035,10.46375 C0.035,7.1225 1.30375,4.91625 3.11625,3.43375 C3.30125,3.83375 3.5475,4.22625 3.91,4.58875 C5.76625,6.445 7.79125,5.4325 8.41125,2.33875 C8.5075,1.8525 8.535,1.4225 8.53125,1.0175 C11.09625,0.4675 13.60875,0.46375 15.035,0.46375 C18.785,0.46375 30.035,0.46375 30.035,10.46375 C30.035,10.46375 28.63375,9.63 26.25,8.75" transform="translate(6.215 5.786)"/>
        <path fill="#3F7123" fill-rule="nonzero" d="M7.5,1.25 C7.58625,0.725 7.2225,0.295 6.69125,0.295 L1.12625,0.295 C0.595,0.295 0.23,0.725 0.3175,1.25 L1.25,6.84 C1.3375,7.365 1.845,7.795 2.37625,7.795 L5.44125,7.795 C5.9725,7.795 6.48125,7.365 6.5675,6.84 L7.5,1.25 Z" transform="translate(17.341 37.205)"/>
        <path fill="#5C913B" fill-rule="nonzero" d="M0,0 C0,0 2.5,6.25 10,6.25 C16.25,6.25 18.75,0 18.75,0 L0,0 Z" transform="translate(18.75 37.5)"/>
        <path fill="#642116" fill-rule="nonzero" d="M3.75,8.75 C4.74125,10.59875 6.36625,10.59875 7.35875,8.74875 L10.0625,3.7075 C11.05625,1.85875 9.68,0.34625 7.005,0.34625 L4.1,0.34625 C1.42625,0.34625 0.05125,1.85875 1.0425,3.7075 L3.75,8.75 Z" transform="translate(5.864 22.364)"/>
        <path fill="#642116" fill-rule="nonzero" d="M3.75,8.75 C4.7425,10.59875 6.36625,10.59875 7.35875,8.74875 L10.06375,3.7075 C11.05625,1.85875 9.68,0.34625 7.005,0.34625 L4.1,0.34625 C1.4275,0.34625 0.05125,1.85875 1.04375,3.7075 L3.75,8.75 Z" transform="translate(25.529 22.364)"/>
        <path fill="#642116" fill-rule="nonzero" d="M5,1.25 C4.2675,-0.11375 3.07,-0.11375 2.33625,1.25 L0.34,4.97125 C-0.3925,6.33625 0.6225,7.4525 2.59625,7.4525 L4.74,7.4525 C6.715,7.4525 7.73125,6.33625 6.9975,4.97125 L5,1.25 Z" transform="translate(17.748 15.048)"/>
      </g>
    </g>
  </g>
</svg>
