<svg xmlns="http://www.w3.org/2000/svg" width="128" height="128" viewBox="0 0 128 128">
  <g fill="none" transform="translate(1 2)">
    <path fill="#A0041E" d="M1.41111111,99.3409091 L29.6333333,124 L86.0777778,120.477273 L89.6055556,64.1136364 L64.9111111,35.9318182 C64.9111111,35.9318182 64.9111111,57.0646591 43.7444444,78.2045455 C22.57425,99.3444318 1.41111111,99.3409091 1.41111111,99.3409091" transform="matrix(1 0 0 -1 0 159.932)"/>
    <path fill="#FFAC33" d="M1.31515556,75.329834 C1.31515556,75.329834 1.18815556,103.437675 11.8455722,114.079834 C22.5029889,124.721993 50.7992944,123.989266 50.7992944,123.989266 C50.7992944,123.989266 50.7957667,96.4661976 40.2124333,85.8980158 C29.6291,75.329834 1.31515556,75.329834 1.31515556,75.329834" transform="matrix(1 0 0 -1 0 199.33)"/>
    <path fill="#FFCC4D" d="M15.5194,95.8181818 C15.5194,103.599886 21.83765,109.909091 29.6305111,109.909091 C37.4233722,109.909091 43.7416222,103.599886 43.7416222,95.8181818 C43.7416222,88.0364773 37.4233722,81.7272727 29.6305111,81.7272727 C21.83765,81.7272727 15.5194,88.0364773 15.5194,95.8181818" transform="matrix(1 0 0 -1 0 191.636)"/>
    <path fill="#55ACEE" d="M124.880511,96.5091733 C124.880511,96.5091733 89.6027333,96.5091733 47.2694,61.2819006 C26.1027333,43.6682642 26.1027333,11.9637188 33.1582889,4.91826422 C40.2138444,-2.12719033 71.9638444,-2.12719033 89.6027333,19.0091733 C124.880511,61.2819006 124.880511,96.5091733 124.880511,96.5091733" transform="matrix(1 0 0 -1 0 97.214)"/>
    <path fill="#000" d="M93.1305111,45.2318182 C87.4049278,45.2318182 82.5013167,41.81125 80.2858722,36.9181818 C82.0568167,37.7178409 84.0076778,38.1863636 86.0749556,38.1863636 C93.8678167,38.1863636 100.186067,31.8771591 100.186067,24.0954545 C100.186067,22.0311364 99.7168722,20.0830682 98.9195944,18.3181818 C103.81615,20.5269318 107.241622,25.4235227 107.241622,31.1409091 C107.241622,38.9226136 100.923372,45.2318182 93.1305111,45.2318182" transform="matrix(1 0 0 -1 0 63.55)"/>
    <path fill="#A0041E" d="M26.1055556,46.253205 C26.1055556,46.253205 26.1055556,60.3441141 29.6333333,63.8668414 C33.1611111,67.3895686 75.4979722,102.613319 79.0222222,99.0941141 C82.5464722,95.5749095 47.2686944,53.2986595 43.7409167,49.7759323 C40.2131389,46.253205 26.1055556,46.253205 26.1055556,46.253205" transform="matrix(1 0 0 -1 0 145.594)"/>
  </g>
</svg>
