<?xml version="1.0" encoding="UTF-8"?>
<svg width="128px" height="128px" viewBox="0 0 128 128" version="1.1" xmlns="http://www.w3.org/2000/svg" xmlns:xlink="http://www.w3.org/1999/xlink">
    <!-- Generator: Sketch 43.1 (39012) - http://www.bohemiancoding.com/sketch -->
    <title>twemoji/ball/rugby</title>
    <desc>Created with Sketch.</desc>
    <defs></defs>
    <g id="Twemoji" stroke="none" stroke-width="1" fill="none" fill-rule="evenodd">
        <g id="twemoji/ball/rugby">
            <g id="rugby">
                <path d="M97.2048696,29.8252444 C72.2866087,4.55224444 30.4709565,-6.09106111 10.8883478,11.0433556 C-6.00556522,30.9082722 4.48834783,73.3156889 29.4066087,98.5886889 C54.3248696,123.861689 96.1370435,134.504994 115.72313,117.370578 C136.262261,90.1079111 122.12313,55.0982444 97.2048696,29.8252444" id="Shape" fill="#3B88C3" fill-rule="nonzero" transform="translate(64.115775, 64.206967) scale(-1, 1) rotate(-180.000000) translate(-64.115775, -64.206967) "></path>
                <path d="M61.2080162,121.223702 C74.24523,116.660863 87.110236,108.824209 97.2034783,98.5872778 C116.487908,79.0283126 129.316362,53.6377377 124.611148,30.5195588 C119.519656,49.5421393 89.0631803,95.6233038 40.4083478,113.889367 C36.3492174,115.653256 36.637913,120.944922 43.3057391,121.534061 C45.7472493,121.74849 52.6964855,121.726898 61.2080162,121.223702 Z" id="Combined-Shape" fill="#CCD6DD"></path>
                <path d="M116.651004,12.3139074 C116.349505,11.8881055 116.03978,11.4640962 115.721739,11.0419444 C114.401338,9.88665491 112.979899,8.85756732 111.469391,7.95071171 C101.475595,2.92954969 77.4940097,-0.381173121 42.4354783,28.9291889 C16.0563478,50.9778 11.8998261,78.9918833 13.7398261,95.6641611 C14.4424348,102.060022 22.1398261,100.557189 28.8111304,98.8991333 C56.0305959,92.1427754 121.442109,62.2069368 116.651004,12.3139074 L116.651004,12.3139074 Z" id="Combined-Shape" fill="#E1E8ED"></path>
            </g>
        </g>
    </g>
</svg>