<svg xmlns="http://www.w3.org/2000/svg" xmlns:xlink="http://www.w3.org/1999/xlink" width="128" height="128" viewBox="0 0 128 128">
  <defs>
    <polygon id="snowflake-a" points="0 47.5 47.5 47.5 47.5 0 0 0"/>
  </defs>
  <g fill="none" fill-rule="evenodd" transform="matrix(1 0 0 -1 40 87.5)">
    <mask id="snowflake-b" fill="#fff">
      <use xlink:href="#snowflake-a"/>
    </mask>
    <g mask="url(#snowflake-b)">
      <g transform="translate(1.25)">
        <path fill="#88C9F9" fill-rule="nonzero" d="M10,11.25 L10,35.21375 L16.035,41.25 C16.035,41.25 16.91875,42.13375 16.035,43.01875 C15.15125,43.9025 14.2675,43.01875 14.2675,43.01875 L10,38.75 L10,44.4825 C10,44.4825 10,45.7325 8.75,45.7325 C7.5,45.7325 7.5,44.4825 7.5,44.4825 L7.5,38.75 L3.2325,43.01875 C3.2325,43.01875 2.34875,43.9025 1.465,43.01875 C0.58125,42.13375 1.465,41.25 1.465,41.25 L7.5,35.21375 L7.5,11.25 L1.465,5.215 C1.465,5.215 0.58125,4.33125 1.465,3.4475 C2.34875,2.56375 3.2325,3.4475 3.2325,3.4475 L7.5,7.715 L7.5,1.9825 C7.5,1.9825 7.5,0.7325 8.75,0.7325 C10,0.7325 10,1.9825 10,1.9825 L10,7.715 L14.2675,3.4475 C14.2675,3.4475 15.15125,2.56375 16.035,3.4475 C16.91875,4.33125 16.035,5.215 16.035,5.215 L10,11.25 Z" transform="translate(13.75 .518)"/>
        <path fill="#88C9F9" fill-rule="nonzero" d="M42.5,13.75 C42.17625,14.9575 40.96875,14.63375 40.96875,14.63375 L32.72625,12.425 L11.97125,24.4075 L9.7625,32.65125 C9.7625,32.65125 9.43875,33.85875 8.23125,33.535 C7.0225,33.21125 7.3475,32.005 7.3475,32.005 L8.90875,26.175 L3.945,29.04125 C3.945,29.04125 2.8625,29.66625 2.2375,28.58375 C1.6125,27.50125 2.695,26.87625 2.695,26.87625 L7.65875,24.01 L1.83,22.44875 C1.83,22.44875 0.62125,22.125 0.94625,20.9175 C1.27,19.71 2.47625,20.03375 2.47625,20.03375 L10.72125,22.2425 L31.47625,10.26 L33.68375,2.015 C33.68375,2.015 34.0075,0.8075 35.215,1.13125 C36.4225,1.45625 36.09875,2.6625 36.09875,2.6625 L34.53625,8.4925 L39.50125,5.62625 C39.50125,5.62625 40.585,5.00125 41.21,6.0825 C41.835,7.16625 40.75125,7.79125 40.75125,7.79125 L35.7875,10.6575 L41.61625,12.21875 C41.61625,12.21875 42.82375,12.5425 42.5,13.75" transform="translate(.778 6.417)"/>
        <path fill="#88C9F9" fill-rule="nonzero" d="M41.25,22.5 L35.42,24.0625 L40.385,26.9275 C40.385,26.9275 41.46875,27.55375 40.84375,28.63625 C40.2175,29.72 39.135,29.09375 39.135,29.09375 L34.17125,26.2275 L35.7325,32.0575 C35.7325,32.0575 36.05625,33.26375 34.84875,33.5875 C33.64125,33.91125 33.3175,32.70375 33.3175,32.70375 L31.10875,24.46 L10.35375,12.47625 L2.11,14.68625 C2.11,14.68625 0.90375,15.01 0.58,13.8025 C0.255,12.59375 1.46375,12.27125 1.46375,12.27125 L7.29125,10.71 L2.3275,7.84375 C2.3275,7.84375 1.24625,7.2175 1.87125,6.135 C2.49625,5.05375 3.5775,5.67875 3.5775,5.67875 L8.5425,8.545 L6.98,2.71625 C6.98,2.71625 6.65625,1.5075 7.86375,1.185 C9.0725,0.86 9.39625,2.0675 9.39625,2.0675 L11.605,10.31375 L32.36,22.295 L40.6025,20.085 C40.6025,20.085 41.81,19.7625 42.13375,20.96875 C42.45625,22.1775 41.25,22.5 41.25,22.5" transform="translate(1.144 6.366)"/>
      </g>
    </g>
  </g>
</svg>
