<?xml version="1.0" encoding="UTF-8"?>
<svg width="128px" height="128px" viewBox="0 0 128 128" version="1.1" xmlns="http://www.w3.org/2000/svg" xmlns:xlink="http://www.w3.org/1999/xlink">
    <!-- Generator: Sketch 43.1 (39012) - http://www.bohemiancoding.com/sketch -->
    <title>twemoji/ball/soccer</title>
    <desc>Created with Sketch.</desc>
    <defs></defs>
    <g id="Twemoji" stroke="none" stroke-width="1" fill="none" fill-rule="evenodd">
        <g id="twemoji/ball/soccer">
            <g id="soccer" transform="translate(2.000000, 2.000000)">
                <path d="M121.978261,61.326087 C121.978261,27.8292391 94.8229348,0.673913043 61.326087,0.673913043 C27.8292391,0.673913043 0.673913043,27.8292391 0.673913043,61.326087 C0.673913043,94.8229348 27.8292391,121.978261 61.326087,121.978261 C94.8229348,121.978261 121.978261,94.8229348 121.978261,61.326087" id="Shape" fill="#F5F8FA" fill-rule="nonzero" transform="translate(61.326087, 61.326087) scale(-1, 1) rotate(-180.000000) translate(-61.326087, -61.326087) "></path>
                <path d="M61.326087,7.41304348 C59.466087,7.41304348 57.9565217,8.9226087 57.9565217,10.7826087 L57.9565217,34.3695652 C57.9565217,36.2295652 59.466087,37.7391304 61.326087,37.7391304 C63.186087,37.7391304 64.6956522,36.2295652 64.6956522,34.3695652 L64.6956522,10.7826087 C64.6956522,8.9226087 63.186087,7.41304348 61.326087,7.41304348" id="Shape" fill="#CCD6DD" fill-rule="nonzero" transform="translate(61.326087, 22.576087) scale(-1, 1) rotate(-180.000000) translate(-61.326087, -22.576087) "></path>
                <path d="M39.1435652,37.5984573 C38.8066087,37.5984573 38.462913,37.6490008 38.1259565,37.7568269 L11.0312826,46.3188921 C9.25552174,46.8816095 8.2716087,48.7753051 8.83095652,50.5476964 C9.39030435,52.3234573 11.2941087,53.3073703 13.0597609,52.7480225 L40.1578043,44.1825877 C41.9335652,43.6232399 42.9174783,41.7295443 42.3547609,39.9537834 C41.8998696,38.5183486 40.5722609,37.5984573 39.1435652,37.5984573" id="Shape" fill="#CCD6DD" fill-rule="nonzero" transform="translate(25.593649, 45.251663) scale(-1, 1) rotate(-180.000000) translate(-25.593649, -45.251663) "></path>
                <path d="M85.0532174,38.581327 C83.5908261,38.581327 82.2463696,39.5416531 81.8184348,41.0141531 C81.2995217,42.8000227 82.3272391,44.6701314 84.1164783,45.1890444 L106.861043,51.7866531 C108.650283,52.3055661 110.517022,51.2744792 111.032565,49.4919792 C111.551478,47.7027401 110.523761,45.8326314 108.734522,45.3170879 L85.9899565,38.7161096 C85.6799565,38.6251314 85.3632174,38.581327 85.0532174,38.581327" id="Shape" fill="#CCD6DD" fill-rule="nonzero" transform="translate(96.425500, 45.251142) scale(-1, 1) rotate(-180.000000) translate(-96.425500, -45.251142) "></path>
                <path d="M91.7977391,70.874622 C90.7666522,70.874622 89.7557826,71.3463612 89.0919783,72.2325568 L70.6975217,96.9415786 C69.5855652,98.4342959 69.8955652,100.547013 71.3882826,101.6556 C72.881,102.770926 74.9937174,102.457557 76.1023043,100.964839 L94.4967609,76.2558177 C95.6087174,74.7631003 95.2987174,72.6503829 93.806,71.5417959 C93.2028478,71.0902742 92.4952391,70.874622 91.7977391,70.874622" id="Shape" fill="#CCD6DD" fill-rule="nonzero" transform="translate(82.597141, 86.599441) scale(-1, 1) rotate(-180.000000) translate(-82.597141, -86.599441) "></path>
                <path d="M30.1535652,70.4534324 C29.4897609,70.4534324 28.8192174,70.6488671 28.232913,71.0565845 C26.7065,72.1179976 26.3291087,74.2172367 27.3905217,75.7436498 L44.6595435,100.594193 C45.7209565,102.123976 47.8201957,102.504737 49.3499783,101.439954 C50.8763913,100.378541 51.2537826,98.2793019 50.1923696,96.7528889 L32.9233478,71.9023454 C32.2696522,70.9554976 31.2183478,70.4534324 30.1535652,70.4534324" id="Shape" fill="#CCD6DD" fill-rule="nonzero" transform="translate(38.791446, 86.248673) scale(-1, 1) rotate(-180.000000) translate(-38.791446, -86.248673) "></path>
                <path d="M12.4646957,57.9595358 C10.982087,57.9595358 9.62078261,58.9468185 9.21306522,60.446275 L1.84382609,87.6150793 C1.35523913,89.407688 2.41665217,91.2609489 4.21263043,91.7495358 C6.01534783,92.221275 7.86186957,91.1733402 8.34708696,89.3773619 L15.7196957,62.2119271 C16.204913,60.4159489 15.1435,58.5660576 13.3475217,58.0774706 C13.0543696,57.9966011 12.7544783,57.9595358 12.4646957,57.9595358" id="Shape" fill="#CCD6DD" fill-rule="nonzero" transform="translate(8.781059, 74.910985) scale(-1, 1) rotate(-180.000000) translate(-8.781059, -74.910985) "></path>
                <path d="M74.8043478,108.5 L44.4782609,108.5 C42.6182609,108.5 41.1086957,110.006196 41.1086957,111.869565 C41.1086957,113.732935 42.6182609,115.23913 44.4782609,115.23913 L74.8043478,115.23913 C76.6677174,115.23913 78.173913,113.732935 78.173913,111.869565 C78.173913,110.006196 76.6677174,108.5 74.8043478,108.5" id="Shape" fill="#CCD6DD" fill-rule="nonzero" transform="translate(59.641304, 111.869565) scale(-1, 1) rotate(-180.000000) translate(-59.641304, -111.869565) "></path>
                <path d="M108.923217,56.272571 C108.657022,56.272571 108.384087,56.3028971 108.114522,56.3702884 C106.308435,56.815071 105.203217,58.6413754 105.648,60.4474623 L112.808326,89.5099623 C113.256478,91.3160493 115.096261,92.4145276 116.8855,91.9764841 C118.691587,91.5317015 119.800174,89.7053971 119.352022,87.8993102 L112.191696,58.8368102 C111.810935,57.3002884 110.436152,56.272571 108.923217,56.272571" id="Shape" fill="#CCD6DD" fill-rule="nonzero" transform="translate(112.500558, 74.172633) scale(-1, 1) rotate(-180.000000) translate(-112.500558, -74.172633) "></path>
                <path d="M102.812174,5.09423066 C102.239348,5.09423066 101.659783,5.23912197 101.127391,5.5457524 L75.6433696,20.2876002 C74.036087,21.2209698 73.4834783,23.2797741 74.4168478,24.8937959 C75.3468478,26.5044481 77.4022826,27.0604263 79.0196739,26.1236872 L104.503696,11.3818394 C106.110978,10.4484698 106.666957,8.38966545 105.730217,6.77564371 C105.110217,5.69738284 103.978043,5.09423066 102.812174,5.09423066" id="Shape" fill="#CCD6DD" fill-rule="nonzero" transform="translate(90.074281, 15.836681) scale(-1, 1) rotate(-180.000000) translate(-90.074281, -15.836681) "></path>
                <path d="M19.2092174,4.88731315 C18.157913,4.88731315 17.1268261,5.37590011 16.4697609,6.29242185 C15.3847609,7.80535663 15.7284565,9.91133489 17.2413913,10.9929653 L38.0922609,25.9470958 C39.6051957,27.0320958 41.7078043,26.6850305 42.7928043,25.1754653 C43.8778043,23.659161 43.5307391,21.5565523 42.0211739,20.4715523 L21.1703043,5.51742185 C20.5738913,5.09285663 19.8898696,4.88731315 19.2092174,4.88731315" id="Shape" fill="#CCD6DD" fill-rule="nonzero" transform="translate(29.630808, 15.733222) scale(-1, 1) rotate(-180.000000) translate(-29.630808, -15.733222) "></path>
                <path d="M86.5762609,63.8005801 L62.2884348,80.9280801 C61.1158261,81.7536236 59.5456087,81.7502541 58.373,80.9078628 L34.2233261,63.4973193 C33.0675652,62.6650367 32.5621304,61.1925367 32.9597391,59.8211236 L41.3836522,30.9035149 C41.8014783,29.4647106 43.1223478,28.4740584 44.6184348,28.4740584 L74.8063696,28.4740584 C76.2552826,28.4740584 77.5357174,29.4006888 78.0007174,30.7687323 L87.8297391,59.9727541 C88.3048478,61.3846019 87.7926739,62.941341 86.5762609,63.8005801" id="Shape" fill="#292F33" fill-rule="nonzero" transform="translate(60.415494, 55.008768) scale(-1, 1) rotate(-180.000000) translate(-60.415494, -55.008768) "></path>
                <path d="M0.728064125,20.1312547 C0.692083491,20.9888892 0.673913043,21.8511273 0.673913043,22.7176087 C0.673913043,39.9375199 7.8503514,55.4815338 19.3755344,66.5219565 L20.8926522,66.5219565 C21.9035217,66.5219565 22.8604783,66.0670652 23.5006957,65.2819565 C24.140913,64.5002174 24.397,63.4691304 24.1948261,62.4784783 L19.6998261,40.4347826 C19.6290652,40.091087 19.5043913,39.7608696 19.335913,39.4542391 L7.96363043,19.2368478 C7.46830435,18.3607609 6.60569565,17.7475 5.61504348,17.5722826 C5.4196087,17.538587 5.22080435,17.5217391 5.02536957,17.5217391 C4.23015217,17.5217391 3.45178261,17.8047826 2.83515217,18.3304348 L0.728064125,20.1312547 L0.728064125,20.1312547 Z" id="Combined-Shape" fill="#292F33" transform="translate(12.468226, 42.021848) scale(-1, 1) rotate(-180.000000) translate(-12.468226, -42.021848) "></path>
                <path d="M82.180793,12.0181706 C75.6779555,14.3992964 68.6537568,15.6988043 61.326087,15.6988043 C53.1692397,15.6988043 45.3884292,14.0885599 38.2841985,11.1686141 C37.6741972,10.051423 37.0519159,8.91592854 36.5092391,7.92858696 C36.115,7.21086957 36.091413,6.34152174 36.4519565,5.60358696 C36.8091304,4.86565217 37.5066304,4.3501087 38.3153261,4.21532609 L59.7963043,0.707608696 C59.931087,0.684021739 60.0692391,0.673913043 60.2040217,0.673913043 C60.3421739,0.673913043 60.4803261,0.684021739 60.6151087,0.707608696 L81.1155435,4.07717391 C81.7894565,4.18836957 82.3959783,4.56913043 82.7834783,5.13521739 C83.1743478,5.70130435 83.3158696,6.39880435 83.181087,7.07271739 L82.180793,12.0181706 L82.180793,12.0181706 Z" id="Combined-Shape" fill="#292F33" transform="translate(59.713769, 8.186359) scale(-1, 1) rotate(-180.000000) translate(-59.713769, -8.186359) "></path>
                <path d="M121.972943,22.1988862 C121.976485,22.4689565 121.978261,22.7394526 121.978261,23.0103635 C121.978261,39.0045359 115.78712,53.5529052 105.670656,64.3896538 L100.516152,64.7127765 C99.7445217,64.7565809 98.983,64.4566896 98.4607174,63.8737548 C97.9485435,63.29082 97.7261522,62.5191896 97.8710435,61.7509287 L101.803326,40.8663635 C101.860609,40.5765809 101.965065,40.3676678 102.116696,40.1115809 C107.144087,31.6741896 112.740935,22.2495156 113.509196,20.6321243 C113.590065,20.3490809 113.721478,20.3625591 113.893326,20.12332 C114.368435,19.4628852 115.146804,19.6414722 115.95887,19.6414722 L115.979087,19.6414722 C116.647605,19.6414722 117.053,19.3098946 121.972943,22.1988862 L121.972943,22.1988862 Z" id="Combined-Shape" fill="#292F33" transform="translate(109.902910, 42.168225) scale(-1, 1) rotate(-180.000000) translate(-109.902910, -42.168225) "></path>
                <path d="M7.89820902,112.561481 C15.4298534,98.5860475 28.2847947,87.9032469 43.7478517,83.2282609 L48.8209565,87.7380973 C49.3263913,88.18288 49.6296522,88.8129886 49.6667174,89.4835321 C49.7037826,90.1540756 49.4712826,90.81788 49.0231304,91.3165756 L33.860087,108.164402 C33.657913,108.386793 33.4186739,108.575489 33.1491087,108.713641 C13.3192174,119.054836 12.9519348,119.17951 12.7093261,119.26038 C12.4498696,119.344619 12.1701957,119.391793 11.8972609,119.391793 C10.0826132,119.391793 9.5558306,119.195628 7.89820902,112.561481 L7.89820902,112.561481 Z" id="Combined-Shape" fill="#292F33" transform="translate(28.784383, 101.310027) scale(-1, 1) rotate(-180.000000) translate(-28.784383, -101.310027) "></path>
                <path d="M78.3585447,84.0684512 C93.2816799,88.4265217 105.82413,98.3658463 113.573913,111.474444 L111.146457,117.917545 C110.900478,118.564502 110.398413,119.086784 109.761565,119.356349 C109.121348,119.625915 108.396891,119.619175 107.766783,119.339502 L87.2697174,110.352871 C86.9125435,110.197871 86.5958043,109.962002 86.3464565,109.66211 L72.0258043,92.5346103 C71.5911304,92.0123277 71.3822174,91.3451537 71.4462391,90.6746103 C71.5102609,90.0006972 71.8404783,89.3806972 72.3627609,88.956132 C74.6673229,87.0705375 76.6498348,85.4541193 78.3585447,84.0684512 L78.3585447,84.0684512 Z" id="Combined-Shape" fill="#292F33" transform="translate(92.504406, 101.811218) scale(-1, 1) rotate(-180.000000) translate(-92.504406, -101.811218) "></path>
            </g>
        </g>
    </g>
</svg>