<svg xmlns="http://www.w3.org/2000/svg" xmlns:xlink="http://www.w3.org/1999/xlink" width="128" height="128" viewBox="0 0 128 128">
  <defs>
    <polygon id="star-a" points="0 47.5 47.5 47.5 47.5 0 0 0"/>
  </defs>
  <g fill="none" fill-rule="evenodd" transform="matrix(1 0 0 -1 26 87.5)">
    <mask id="star-b" fill="#fff">
      <use xlink:href="#star-a"/>
    </mask>
    <g mask="url(#star-b)">
      <path fill="#414042" fill-rule="nonzero" d="M15,30 C16.6675,28.78625 18.28875,29.4625 18.6025,31.50125 L19.9625,40.3375 C20.27625,42.37625 20.78875,42.37625 21.1025,40.3375 L22.4625,31.50125 C22.77625,29.4625 24.3975,28.78625 26.065,30 L33.75,35.58875 C35.4175,36.80125 35.79,36.43 34.5775,34.76125 L28.98875,27.0775 C27.775,25.40875 28.45,23.7875 30.48875,23.47375 L39.32625,22.11375 C41.365,21.8 41.365,21.2875 39.32625,20.97375 L30.48875,19.61375 C28.45,19.3 27.775,17.68 28.98875,16.0125 L34.5775,8.32625 C35.79,6.65875 35.4175,6.28625 33.75,7.5 L26.065,13.08875 C24.3975,14.30125 22.77625,13.62625 22.4625,11.58875 L21.1025,2.75 C20.78875,0.71125 20.27625,0.71125 19.9625,2.75 L18.6025,11.58875 C18.28875,13.62625 16.6675,14.30125 15,13.08875 L7.31625,7.5 C5.6475,6.28625 5.34,6.60875 6.6325,8.21625 L12.98875,16.12125 C14.28125,17.73 13.66625,19.275 11.62375,19.5575 L1.5525,20.9475 C-0.49,21.23 -0.495,21.7225 1.5425,22.0425 L10.5775,23.4625 C12.61625,23.7825 13.29,25.40875 12.0775,27.0775 L6.48875,34.76125 C5.275,36.43 5.6475,36.80125 7.31625,35.58875 L15,30 Z" transform="translate(3.217 2.206)"/>
    </g>
  </g>
</svg>
