<svg xmlns="http://www.w3.org/2000/svg" xmlns:xlink="http://www.w3.org/1999/xlink" width="128" height="128" viewBox="0 0 128 128">
  <defs>
    <polygon id="sun-a" points="0 47.5 47.5 47.5 47.5 0 0 0"/>
  </defs>
  <g fill="none" fill-rule="evenodd" transform="matrix(1 0 0 -1 40 87.5)">
    <mask id="sun-b" fill="#fff">
      <use xlink:href="#sun-a"/>
    </mask>
    <g mask="url(#sun-b)">
      <g transform="translate(1.25 1.25)">
        <path fill="#F4900C" fill-rule="nonzero" d="M22.5,0 C22.0125,0 21.56875,0.2725 21.34875,0.70625 L19.09875,5.14875 L15.31875,1.90375 C15.08,1.7025 14.78125,1.595 14.47875,1.595 C14.3125,1.595 14.145,1.6275 13.98625,1.6925 C13.5375,1.87875 13.22875,2.3025 13.19375,2.785 L12.81375,7.75375 L8.07875,6.2025 C7.9475,6.16 7.8125,6.13875 7.6775,6.13875 C7.34125,6.13875 7.0125,6.27125 6.765,6.5175 C6.4225,6.85875 6.30125,7.36875 6.4525,7.83125 L8.0025,12.56625 L3.0375,12.9425 C2.5525,12.98125 2.13,13.28625 1.94375,13.73375 C1.75875,14.18625 1.84,14.7 2.15625,15.06875 L5.39875,18.84875 L0.9575,21.09875 C0.5225,21.31875 0.25,21.765 0.25,22.25 C0.25,22.735 0.5225,23.18 0.9575,23.40125 L5.39875,25.65125 L2.15625,29.43 C1.84125,29.8 1.75875,30.315 1.94375,30.76375 C2.13,31.2125 2.5525,31.52 3.0375,31.55625 L8.0025,31.93625 L6.4525,36.67 C6.30125,37.1325 6.4225,37.64 6.765,37.985 C7.0125,38.23 7.34125,38.36125 7.6775,38.36125 C7.8125,38.36125 7.9475,38.34 8.07875,38.2975 L12.81375,36.7475 L13.19375,41.7125 C13.22875,42.1975 13.5375,42.62 13.98625,42.80625 C14.145,42.87125 14.3125,42.90375 14.47875,42.90375 C14.78125,42.90375 15.08,42.7975 15.31875,42.59375 L19.09875,39.35 L21.34875,43.7925 C21.56875,44.22625 22.0125,44.5 22.5,44.5 C22.985,44.5 23.43125,44.22625 23.65,43.79375 L25.9025,39.35 L29.6825,42.59375 C29.92125,42.7975 30.22125,42.90375 30.52125,42.90375 C30.69,42.90375 30.85625,42.87125 31.01625,42.80625 C31.465,42.62 31.77,42.19625 31.80875,41.7125 L32.1875,36.7475 L36.91875,38.2975 C37.05125,38.34 37.1875,38.36125 37.32,38.36125 C37.6575,38.36125 37.98875,38.23 38.2325,37.985 C38.5775,37.64 38.69875,37.1325 38.5475,36.67 L36.99625,31.93625 L41.965,31.55625 C42.4475,31.52 42.87125,31.2125 43.05625,30.76375 C43.2425,30.315 43.16125,29.8 42.845,29.43 L39.60125,25.65125 L44.0425,23.40125 C44.4775,23.18 44.75,22.735 44.75,22.25 C44.75,21.765 44.4775,21.32 44.0425,21.09875 L39.60125,18.84875 L42.845,15.06875 C43.16125,14.7 43.2425,14.18625 43.05625,13.73375 C42.87125,13.28625 42.4475,12.98125 41.96125,12.9425 L36.99625,12.56625 L38.5475,7.83125 C38.69875,7.3675 38.5775,6.85875 38.2325,6.5175 C37.98875,6.27125 37.6575,6.13875 37.32,6.13875 C37.1875,6.13875 37.05125,6.16 36.91875,6.2025 L32.1875,7.75375 L31.80875,2.7875 C31.77,2.3025 31.465,1.87875 31.01625,1.6925 C30.85625,1.6275 30.69,1.595 30.52125,1.595 C30.22125,1.595 29.92125,1.7025 29.6825,1.90375 L25.9025,5.14875 L23.65,0.70625 C23.43125,0.2725 22.985,0 22.5,0" transform="translate(0 .25)"/>
        <path fill="#FFCC4D" fill-rule="nonzero" d="M32.5,16.25 C32.5,7.27625 25.22375,0 16.25,0 C7.27625,0 0,7.27625 0,16.25 C0,25.225 7.27625,32.5 16.25,32.5 C25.22375,32.5 32.5,25.225 32.5,16.25" transform="translate(6.25 6.25)"/>
        <path fill="#F4900C" fill-rule="nonzero" d="M10,3.75 C2.2225,3.75 0,6.66 0,5.28625 C0,3.90875 4.445,0.31 10,0.31 C15.555,0.31 20,3.90875 20,5.28625 C20,6.66 17.77875,3.75 10,3.75" transform="translate(12.5 11.912)"/>
        <path fill="#F4900C" fill-rule="nonzero" d="M7.5,3.75 C7.5,1.90875 6.0075,0.41625 4.16625,0.41625 C2.32625,0.41625 0.83375,1.90875 0.83375,3.75 C0.83375,5.59125 2.32625,7.08375 4.16625,7.08375 C6.0075,7.08375 7.5,5.59125 7.5,3.75" transform="translate(25 22.917)"/>
        <path fill="#F4900C" fill-rule="nonzero" d="M7.5,3.75 C7.5,1.90875 6.00625,0.41625 4.16625,0.41625 C2.32625,0.41625 0.83375,1.90875 0.83375,3.75 C0.83375,5.59125 2.32625,7.08375 4.16625,7.08375 C6.00625,7.08375 7.5,5.59125 7.5,3.75" transform="translate(11.667 22.917)"/>
      </g>
    </g>
  </g>
</svg>
