<?xml version="1.0" encoding="UTF-8"?>
<svg width="128px" height="128px" viewBox="0 0 128 128" version="1.1" xmlns="http://www.w3.org/2000/svg" xmlns:xlink="http://www.w3.org/1999/xlink">
    <!-- Generator: Sketch 43.1 (39012) - http://www.bohemiancoding.com/sketch -->
    <title>twemoji/ball/tennis</title>
    <desc>Created with Sketch.</desc>
    <defs></defs>
    <g id="Twemoji" stroke="none" stroke-width="1" fill="none" fill-rule="evenodd">
        <g id="twemoji/ball/tennis">
            <g id="tennis" transform="translate(2.000000, 2.000000)">
                <path d="M61.326087,0.673913043 C27.8292391,0.673913043 0.673913043,27.8292391 0.673913043,61.326087 C0.673913043,94.8229348 27.8292391,121.978261 61.326087,121.978261 C94.8229348,121.978261 121.978261,94.8229348 121.978261,61.326087 C121.978261,27.8292391 94.8195652,0.673913043 61.326087,0.673913043" id="Shape" fill="#77B255" fill-rule="nonzero" transform="translate(61.326087, 61.326087) scale(-1, 1) rotate(-180.000000) translate(-61.326087, -61.326087) "></path>
                <path d="M103.037159,17.2943529 C114.701966,28.3481858 121.978261,43.9874047 121.978261,61.3256292 C121.978261,78.6640931 114.702668,94.3035044 103.037982,105.357363 C93.0244138,99.7914371 84.9130435,86.3558594 84.9130435,61.3256292 C84.9130435,36.2960852 93.0239691,22.8605579 103.037159,17.2943529 Z" id="Combined-Shape" fill="#A6D388" transform="translate(103.445652, 61.325858) scale(-1, 1) rotate(-180.000000) translate(-103.445652, -61.325858) "></path>
                <path d="M103.037159,17.2943529 C104.734919,18.9031884 106.339715,20.6091583 107.842644,22.4033636 C97.6906961,26.8630846 91.6521739,40.9377544 91.6521739,61.3256292 C91.6521739,81.7140438 97.6910158,95.788919 107.84345,100.248249 C106.34054,102.042495 104.735751,103.7485 103.037982,105.357363 C93.0244138,99.7914371 84.9130435,86.3558594 84.9130435,61.3256292 C84.9130435,36.2960852 93.0239691,22.8605579 103.037159,17.2943529 Z" id="Combined-Shape" fill="#FFFFFF" transform="translate(96.378247, 61.325858) scale(-1, 1) rotate(-180.000000) translate(-96.378247, -61.325858) "></path>
                <path d="M19.6136489,17.2948671 C7.94928011,28.3486969 0.673913043,43.9878919 0.673913043,61.326087 C0.673913043,78.664282 7.94928011,94.3034771 19.6136489,105.357307 C29.6265147,99.7910673 37.7391304,86.3555463 37.7391304,61.326087 C37.7391304,36.2966276 29.6265147,22.8611066 19.6136489,17.2948671 Z" id="Combined-Shape" fill="#A6D388" transform="translate(19.206522, 61.326087) scale(-1, 1) rotate(-180.000000) translate(-19.206522, -61.326087) "></path>
                <path d="M14.8083925,22.4038632 C16.311238,20.6096636 17.9159565,18.9036985 19.6136489,17.2948671 C29.6265147,22.8611066 37.7391304,36.2966276 37.7391304,61.326087 C37.7391304,86.3555463 29.6265147,99.7910673 19.6136489,105.357307 C17.9159565,103.748475 16.311238,102.04251 14.8083925,100.248311 C24.9592641,95.7885435 31,81.713898 31,61.326087 C31,40.9382759 24.9592641,26.8636304 14.8083925,22.4038632 Z" id="Combined-Shape" fill="#FFFFFF" transform="translate(26.273761, 61.326087) scale(-1, 1) rotate(-180.000000) translate(-26.273761, -61.326087) "></path>
            </g>
        </g>
    </g>
</svg>