<?xml version="1.0" encoding="UTF-8"?>
<svg width="128px" height="128px" viewBox="0 0 128 128" version="1.1" xmlns="http://www.w3.org/2000/svg" xmlns:xlink="http://www.w3.org/1999/xlink">
    <!-- Generator: Sketch 43.1 (39012) - http://www.bohemiancoding.com/sketch -->
    <title>twemoji/ball/volleyball</title>
    <desc>Created with Sketch.</desc>
    <defs></defs>
    <g id="Twemoji" stroke="none" stroke-width="1" fill="none" fill-rule="evenodd">
        <g id="twemoji/ball/volleyball" fill-rule="nonzero">
            <g id="volleyball" transform="translate(2.000000, 2.000000)">
                <circle id="Oval" fill="#E8E8E8" cx="62" cy="62" r="62"></circle>
                <path d="M54.5682667,32.9819333 C54.3512667,26.6455333 55.1986,20.7038667 56.451,15.5434 C86.3515333,16.2088667 108.5434,30.2043333 119.552533,38.9463333 C118.526597,36.3852611 117.329355,33.8961855 115.968933,31.496 C103.4904,22.8614667 83.3073333,12.5116 57.5029333,11.6932 C58.7079802,7.67426903 60.2496604,3.76407014 62.1116,0.00413333333 L62,0 C60.5698667,0 59.1562667,0.0682 57.7488667,0.1612 C52.7744,10.9698667 43.7534,37.3901333 59.7659333,62.093 C56.0158476,69.5053606 50.5424324,75.910029 43.8050667,80.7694667 C22.9276,42.8833333 32.1842,13.7970667 35.3978667,5.9892 C33.6102,6.83653333 31.8700667,7.77273333 30.1816,8.78746667 C26.195,20.8857333 21.2908,48.2070667 40.5872667,82.9539333 C35.2077333,86.3081333 29.6401333,88.5484 24.5478667,90.0426 C10.1804,63.829 11.1889333,37.6278 13.2535333,23.7108667 C11.5520208,25.8724489 9.99584545,28.1445753 8.59526667,30.5122667 C7.3594,45.6361333 8.48366667,68.2971333 20.6873333,91.0594 C16.6045659,92.0254104 12.4475018,92.6448566 8.26046667,92.9111333 C8.98793333,94.1656 9.7402,95.4056 10.5462,96.6042667 C22.3882,95.5151333 49.8004667,90.1294 63.1986667,63.8889333 C71.4915653,63.4310629 79.7732199,64.9704514 87.3476667,68.3777333 C64.9966667,105.366933 35.2036,111.914133 26.8108667,113.040467 C28.4338237,114.159779 30.1082778,115.20252 31.8287333,116.165267 C44.299,113.5654 70.4134,104.149667 90.8527333,70.0724 C96.4451333,73.0546 101.167467,76.756 105.007333,80.4222667 C89.4846,105.9766 66.278,118.198867 53.1980667,123.365533 C55.9320152,123.755166 58.688803,123.962978 61.4502667,123.9876 C75.1646667,117.492067 94.2131333,105.193333 107.822133,83.2598 C110.698072,86.3125122 113.311986,89.601854 115.6362,93.093 C116.363667,91.8426667 117.058067,90.5654667 117.6946,89.2593333 C110.829133,79.5563333 92.4523333,58.5094 63.0416,60.0201333 C58.4968068,53.0682349 55.6879829,45.1265568 54.8514,36.8631333 C98.0344,37.7228667 118.595667,60.2185333 123.7892,66.9434667 C123.915267,65.3108 124,63.6636667 124,62 C124,61.6776 123.979333,61.3531333 123.9752,61.0307333 C115.483267,51.5261333 94.271,33.6432667 54.5682667,32.9819333 L54.5682667,32.9819333 Z" id="Shape" fill="#B2C1C0"></path>
            </g>
        </g>
    </g>
</svg>