<svg xmlns="http://www.w3.org/2000/svg" width="128" height="128" viewBox="0 0 128 128">
  <path d="M58.8995396,118.30075 C69.560893,119.443711 76.8319436,123.717151 84.2615435,121.198543 C92.2305652,118.499522 97.7398043,112.0805 97.7398043,101.183326 C97.7398043,90.5152826 91.6577391,79.5406087 83.5067609,70.9077826 C92.7865435,54.754087 108.707739,1.27908696 107.171217,0.692782609 C105.59763,0.093 80.2214348,14.0733261 73.5800217,31.4602826 C69.6511087,41.7441957 67.9023043,51.8697391 68.0135,58.7941957 C63.0636087,56.1356087 58.171,54.5889783 53.9354565,54.5889783 C49.699913,54.5889783 44.8073043,56.1322391 39.857413,58.7941957 C39.9719783,51.8697391 38.2198043,41.7441957 34.2942609,31.4602826 C27.6528478,14.0733261 2.27328261,0.093 0.699695652,0.692782609 C-0.833456522,1.27908696 15.081,54.7507174 24.3708913,70.904413 C16.2131739,79.5406087 10.1311087,90.511913 10.1311087,101.183326 C10.1311087,112.0805 15.6403478,118.499522 23.6127391,121.198543 C31.1937427,123.769493 38.6122032,119.263159 49.6404872,118.233637 C51.2053177,118.479352 52.8291204,118.608696 54.4941304,118.608696 C56.0007519,118.608696 57.4736036,118.502846 58.8995396,118.30075 L58.8995396,118.30075 Z" transform="translate(11 2)"/>
</svg>
