<svg xmlns="http://www.w3.org/2000/svg" width="128" height="128" viewBox="0 0 128 128">
  <path d="M94.4853133,97.7834476 C98.2051951,96.4190005 104.349914,91.9917986 105.062417,77.6269207 C107.485968,80.106949 109.795283,81.5434783 111.869565,81.5434783 C121.978261,81.5434783 121.978261,47.8478261 121.978261,34.3695652 C121.978261,4.27522666 84.2389663,-1.62897936 76.2704104,4.65430996 C71.9585897,2.13785938 67.0083249,0.673913043 61.326087,0.673913043 C55.643849,0.673913043 50.6935842,2.13785938 46.3817807,4.65429979 C38.4132076,-1.62897936 0.673913043,4.27522666 0.673913043,34.3695652 C0.673913043,47.8478261 0.673913043,81.5434783 10.7826087,81.5434783 C12.8568912,81.5434783 15.1662059,80.106949 17.5897574,77.6269207 C18.3022601,91.9917986 24.4469788,96.4190005 28.1668607,97.7834476 C30.1577426,105.871177 37.4587617,111.871587 46.1630435,111.871587 C47.9159336,111.871587 49.6112241,111.627511 51.2173913,111.171692 L51.2173913,111.869565 C51.2173913,111.869565 51.2173913,121.978261 61.326087,121.978261 C71.4347826,121.978261 71.4347826,111.869565 71.4347826,111.869565 L71.4347826,111.171692 C73.0409498,111.627511 74.7362403,111.871587 76.4891304,111.871587 C85.1934122,111.871587 92.4944313,105.871177 94.4853133,97.7834476 L94.4853133,97.7834476 Z" transform="translate(2 2)"/>
</svg>
