<svg xmlns="http://www.w3.org/2000/svg" width="128" height="128" viewBox="0 0 128 128">
  <path d="M54.8860459,2.27608926 C51.0962674,1.07019466 46.7320768,0.666025571 41.9643556,0.941619048 C27.8132542,1.75886941 20.2538607,11.750146 19.8911355,19.6969224 C9.56738428,27.1493525 0.690266667,40.3165917 0.690266667,51.2172619 C0.690266667,67.1292857 13.1109333,68.0165476 27.5948222,68.0441667 C28.3973778,79.2471429 31.8177111,87.5397619 38.7858222,93.1084524 C39.7399333,97.0786905 44.0696,112.928571 52.3569333,112.928571 C57.0172667,112.928571 59.5868222,107.076786 61.0024889,101.131786 C64.8878222,101.60131 69.1279333,101.853333 73.8192667,101.853333 C79.7884889,101.853333 85.1480444,101.452857 89.9943778,100.696786 C90.3043778,106.417381 91.8233778,112.928571 97.1347111,112.928571 C105.115489,112.928571 111.852822,95.8185714 113.785156,90.4190476 C120.567267,83.9630952 123.829156,74.7245238 123.829156,62.4685714 C123.829156,36.5696559 109.445126,24.0102328 77.4878279,23.1363613 C77.6906361,13.3624842 72.1399403,7.32962602 61.1816,3.62342857 C59.1224522,2.92717046 57.0099433,2.48856304 54.8860459,2.27608926 L54.8860459,2.27608926 Z" transform="translate(2 7)"/>
</svg>
