<?xml version="1.0" encoding="UTF-8"?>
<svg width="1024px" height="1024px" viewBox="0 0 1024 1024" version="1.1" xmlns="http://www.w3.org/2000/svg" xmlns:xlink="http://www.w3.org/1999/xlink">
    <!-- Generator: Sketch 42 (36781) - http://www.bohemiancoding.com/sketch -->
    <title>mask/butterfly/purple</title>
    <desc>Created with Sketch.</desc>
    <defs></defs>
    <g id="exports" stroke="none" stroke-width="1" fill="none" fill-rule="evenodd">
        <g id="mask/butterfly/purple" fill="#000000">
            <path d="M454.32793,287.456649 C452.497944,260.399028 451.426073,231.804437 451.426073,201.941219 C451.426073,-2.10056022 378.93248,43.936737 267.677753,109.418626 C207.026291,145.116635 137.83146,220.982518 94.3026778,305.402862 C57.9853586,375.837193 41.8289899,455.668225 41.8289899,490.727863 C41.8289899,567.808865 96.42815,552.624351 296.786553,552.624351 C347.915702,552.624351 401.24726,552.130685 440.648906,551.657048 C440.742039,552.135238 440.835546,552.612342 440.929424,553.088345 C402.728514,553.680229 349.136887,554.285899 289.78189,554.285899 C173.713594,554.285899 61.8289899,551.969846 61.8289899,614.933116 C61.8289899,677.896386 108.673014,829.517405 268.196373,935.780183 C378.406828,1009.19432 447.848608,961.898064 480.249578,874.450064 C480.93446,884.048047 481.376201,891.202512 481.562484,895.299479 C482.919905,925.153584 553.808577,936.144235 551.562484,895.299479 C551.535718,894.812747 551.512109,894.302154 551.491606,893.768187 C586.666445,968.424759 653.677614,1003.58122 755.461607,935.780183 C914.984966,829.517405 961.82899,677.896386 961.82899,614.933116 C961.82899,551.969846 849.944386,554.285899 733.87609,554.285899 C674.138461,554.285899 620.238748,553.672395 581.991691,553.0769 C582.054648,552.603479 582.117592,552.126853 582.180509,551.647066 C621.661082,552.123722 675.38299,552.624351 726.871427,552.624351 C927.22983,552.624351 981.82899,567.808865 981.82899,490.727863 C981.82899,455.668225 965.672621,375.837193 929.355302,305.402862 C885.82652,220.982518 816.631689,145.116635 755.980227,109.418626 C644.7255,43.936737 572.231907,-2.10056022 572.231907,201.941219 C572.231907,234.8009 570.934142,266.124596 568.756608,295.554809 C557.577159,271.036286 541.130516,254.595571 517.486762,252.257281 C517.950717,245.008973 518.656484,237.505601 519.592521,229.768145 C522.699834,204.082492 528.223173,176.636605 535.472644,148.602388 C539.561019,132.792353 543.942026,117.785761 548.321818,104.073016 C549.758893,99.5736628 551.098908,95.5199058 552.311516,91.9622323 C560.372473,91.7074878 566.82899,85.0926672 566.82899,76.9698463 C566.82899,68.6855751 560.113261,61.9698463 551.82899,61.9698463 C543.544719,61.9698463 536.82899,68.6855751 536.82899,76.9698463 C536.82899,81.854839 539.164127,86.1944312 542.779046,88.9332677 C541.563866,92.5029195 540.226591,96.5511357 538.795908,101.03048 C534.361847,114.913134 529.929,130.097299 525.791111,146.098805 C519.895485,168.897608 515.12161,191.332027 511.828989,212.820047 C508.536369,191.332024 503.762494,168.897606 497.866868,146.098805 C493.72898,130.097299 489.296133,114.913134 484.862072,101.03048 C483.431389,96.5511357 482.094114,92.5029195 480.878934,88.9332677 C484.493853,86.1944312 486.82899,81.854839 486.82899,76.9698463 C486.82899,68.6855751 480.113261,61.9698463 471.82899,61.9698463 C463.544719,61.9698463 456.82899,68.6855751 456.82899,76.9698463 C456.82899,85.0926672 463.285507,91.7074878 471.346464,91.9622323 C472.559072,95.5199058 473.899087,99.5736628 475.336161,104.073016 C479.715954,117.785761 484.096961,132.792353 488.185336,148.602388 C495.434807,176.636605 500.958146,204.082492 504.065459,229.768145 C504.998008,237.476774 505.702001,244.953061 506.166022,252.176258 C483.349969,253.948914 466.455604,267.036417 454.32793,287.456652 L454.32793,287.456649 Z" id="Combined-Shape"></path>
        </g>
    </g>
</svg>