<?xml version="1.0" encoding="UTF-8"?>
<svg width="1024px" height="1024px" viewBox="0 0 1024 1024" version="1.1" xmlns="http://www.w3.org/2000/svg" xmlns:xlink="http://www.w3.org/1999/xlink">
    <!-- Generator: Sketch 42 (36781) - http://www.bohemiancoding.com/sketch -->
    <title>mask/copter</title>
    <desc>Created with Sketch.</desc>
    <defs></defs>
    <g id="exports" stroke="none" stroke-width="1" fill="none" fill-rule="evenodd">
        <g id="mask/copter" fill="#000000">
            <path d="M402.720133,858.91935 C282.784476,789.854899 202.039254,660.376605 202.039254,512.039254 C202.039254,480.770119 200.609188,446.338407 188.678382,416.336556 L147.475631,312.725888 C139.342147,314.862295 130.803936,316 122,316 C66.771525,316 22,271.228475 22,216 C22,160.771525 66.771525,116 122,116 C172.651365,116 214.507216,153.658074 221.097005,202.503672 L312.412454,202.503672 C335.806373,202.503672 359.566441,193.000724 379.26046,179.770221 C396.794567,167.357555 415.544558,156.575409 435.270937,147.486788 C449.061507,141.132999 459.133423,130.235251 463.434074,113.032649 C466.586585,100.422605 471.88955,79.2107436 474.942236,66.9999999 L39.9920631,67 C28.9507515,67 20,58.0411488 20,46.999151 L20,38.000849 C20,26.9546851 28.9611281,18 39.9920631,18 L980.007937,18 C991.049248,18 1000,26.9588512 1000,38.000849 L1000,46.999151 C1000,58.0453149 991.038872,67 980.007937,67 L549.057763,67 C551.393294,76.342127 554.848302,90.1621615 556.459693,96.6077281 C559.017048,106.837153 565.620573,113.423741 577.361217,112.74714 C589.101861,112.070539 593.763237,112.039254 602.039254,112.039254 C822.953154,112.039254 1002.03925,291.125354 1002.03925,512.039254 C1002.03925,675.286075 904.24682,815.692248 764.048422,877.871306 L794.094384,962 L839.994097,962 C840.131877,962 840.269332,962.001392 840.406449,962.004163 L840.406449,962.004163 C875.308866,961.897063 907.949769,947.997943 932.106405,923.745784 C939.901464,915.919901 952.564739,915.894913 960.390622,923.689971 C968.216504,931.48503 968.241492,944.148305 960.446434,951.974188 C928.764626,983.781276 885.800894,1002.00479 840,1002.00479 C839.852307,1002.00479 839.704988,1002.00319 839.558059,1002 L780.465642,1002 C780.154895,1002.00728 779.844766,1002.00725 779.535486,1002 L380.464514,1002 C380.155234,1002.00725 379.845105,1002.00728 379.534358,1002 L280.005903,1002 C268.956948,1002 260,993.048124 260,982 C260,970.954305 268.947304,962 280.005903,962 L365.905616,962 L402.720133,858.919352 Z M438.646363,877.254458 L408.380098,962 L751.619902,962 L726.702363,892.230891 C687.471894,905.086471 645.567529,912.039254 602.039254,912.039254 C543.83457,912.039254 488.533472,899.607521 438.646363,877.254458 Z" id="Combined-Shape"></path>
        </g>
    </g>
</svg>