<?xml version="1.0" encoding="UTF-8"?>
<svg width="1024px" height="1024px" viewBox="0 0 1024 1024" version="1.1" xmlns="http://www.w3.org/2000/svg" xmlns:xlink="http://www.w3.org/1999/xlink">
    <!-- Generator: Sketch 42 (36781) - http://www.bohemiancoding.com/sketch -->
    <title>mask/frog</title>
    <desc>Created with Sketch.</desc>
    <defs></defs>
    <g id="exports" stroke="none" stroke-width="1" fill="none" fill-rule="evenodd">
        <g id="mask/frog" fill="#000000">
            <path d="M132.521689,306.270784 C63.4423062,378.661885 22,471.182641 22,572 C22,721.074465 112.610766,852.008976 249.200184,926.547438 C251.187332,929.377561 253.807987,931.830046 257,933.672956 C260.890851,935.91934 265.141605,936.977681 269.332202,936.960535 C280.926792,942.636813 292.81798,947.918852 304.980918,952.785353 C307.548371,957.242372 311.534612,960.931201 316.634202,963.095849 C322.550247,965.607061 328.90101,965.615472 334.50615,963.597969 C344.468771,966.917925 354.589438,969.966618 364.855805,972.733464 C367.959256,978.390357 373.277751,982.820338 380.002287,984.622171 C387.266769,986.568684 394.643762,985.038519 400.366665,981.051624 C409.323762,982.840507 418.37522,984.418818 427.51355,985.78014 C431.176036,991.986464 437.528749,996.527143 445.219708,997.608036 C453.369762,998.753452 461.146145,995.749987 466.413866,990.206475 C481.423399,991.393355 496.629047,992 512,992 C527.371106,992 542.576905,991.393343 557.586584,990.206439 C562.753043,995.643876 570.339849,998.648153 578.35618,997.663872 C586.217424,996.698632 592.749924,992.111539 596.486823,985.780084 C605.625027,984.418775 614.67636,982.840482 623.633335,981.051624 C629.356238,985.038519 636.733231,986.568684 643.997713,984.622171 C650.722249,982.820338 656.040744,978.390357 659.144195,972.733464 C669.410496,969.966636 679.5311,966.917965 689.49366,963.598033 C694.965308,965.568168 701.154192,965.609527 706.970589,963.25955 C712.249486,961.126737 716.380766,957.363841 719.018621,952.785535 C731.181717,947.918986 743.073061,942.636885 754.667798,936.960535 C758.858395,936.977681 763.109149,935.91934 767,933.672956 C770.192013,931.830046 772.812668,929.377561 774.799816,926.547438 C911.389234,852.008976 1002,721.074465 1002,572 C1002,471.182641 960.557694,378.661885 891.478311,306.270784 C891.824666,301.544986 892,296.787042 892,292 C892,218.799598 851.002366,152.402848 784.431993,103.769542 L784.431963,103.769521 C769.417708,67.5090599 733.687834,42 692,42 C683.206199,42 674.677513,43.1350866 666.552462,45.2667377 C619.334964,30.3124668 567.033709,22 512,22 C456.966291,22 404.665036,30.3124668 357.447538,45.2667377 C349.322487,43.1350866 340.793801,42 332,42 C290.312166,42 254.582292,67.5090599 239.568007,103.769542 C172.997634,152.402848 132,218.799598 132,292 C132,296.787042 132.175334,301.544986 132.521688,306.270769 L132.521689,306.270784 Z" id="Combined-Shape"></path>
        </g>
    </g>
</svg>