<?xml version="1.0" encoding="UTF-8"?>
<svg width="1024px" height="1024px" viewBox="0 0 1024 1024" version="1.1" xmlns="http://www.w3.org/2000/svg" xmlns:xlink="http://www.w3.org/1999/xlink">
    <!-- Generator: Sketch 42 (36781) - http://www.bohemiancoding.com/sketch -->
    <title>mask/spider</title>
    <desc>Created with Sketch.</desc>
    <defs></defs>
    <g id="exports" stroke="none" stroke-width="1" fill="none" fill-rule="evenodd">
        <g id="mask/spider" fill-rule="nonzero" fill="#000000">
            <path d="M132.721834,454.209236 C113.879981,448.996384 98.4894659,443.093967 86.5679262,436.213751 C77.9241301,431.225201 70.8709787,425.603967 65.5316179,419.0008 C58.7917858,410.665676 54.9847769,400.935576 54.9847769,390.39346 C54.9847769,376.586342 66.1776581,365.39346 79.9847769,365.39346 C93.0154484,365.39346 103.71764,375.362868 104.880113,388.090446 C106.096283,389.356665 108.319851,391.037934 111.560604,392.908254 C119.027595,397.21764 130.060944,401.486256 144.229992,405.506157 C163.980021,340.529867 199.821453,282.559016 247.114127,236.233761 C240.087735,230.316492 233.860159,224.05371 228.465933,217.418637 C212.929423,198.308224 204.620844,176.408603 204.620844,152.39698 C204.620844,138.589862 215.813725,127.39698 229.620844,127.39698 C243.427963,127.39698 254.620844,138.589862 254.620844,152.39698 C254.620844,170.873299 264.777203,187.666648 285.648207,202.993309 C301.781745,190.768131 318.871371,179.738707 336.785135,170.03699 L336.785208,170.036951 C362.869653,89.9114786 438.172438,32.0022811 527.000642,32.0022811 C615.828845,32.0022811 691.131631,89.9114786 717.216149,170.03699 C731.66015,177.859557 745.568354,186.545308 758.87159,196.025073 C778.05042,180.053305 787.482504,162.407347 787.482504,142.698517 C787.482504,128.891399 798.675385,117.698517 812.482504,117.698517 C826.289623,117.698517 837.482504,128.891399 837.482504,142.698517 C837.482504,175.869018 823.551793,204.262345 798.192754,227.96749 C848.680943,274.556702 887.14259,333.985204 908.394371,401.069669 C922.292593,396.570951 933.096318,391.804992 940.411344,386.996671 C944.14283,384.543886 946.579921,382.331667 947.796049,380.618696 C947.968579,380.37568 948.082034,380.193502 948.151417,380.068407 C948.365639,366.446228 959.475067,355.469422 973.148266,355.469422 C986.955384,355.469422 998.148266,366.662303 998.148266,380.469422 C998.148266,400.320926 986.755353,416.36836 967.87544,428.778526 C955.683889,436.79229 939.867162,443.652513 920.481755,449.693352 C924.763813,473.146156 927.000642,497.312999 927.000642,522.002281 C927.000642,546.779922 924.747774,571.031378 920.435702,594.562984 C939.66232,599.832665 955.334351,605.808174 967.433357,612.790812 C976.077153,617.779361 983.130305,623.400595 988.469666,630.003762 C995.209498,638.338886 999.016507,648.068986 999.016507,658.611102 C999.016507,672.41822 987.823625,683.611102 974.016507,683.611102 C960.985835,683.611102 950.283644,673.641694 949.12117,660.914116 C947.905,659.647897 945.681433,657.966628 942.440679,656.096308 C934.724622,651.64318 923.20032,647.233585 908.342984,643.096983 C887.243507,709.601682 849.228227,768.575303 799.350026,814.964964 C805.341682,820.230815 810.715291,825.765108 815.447537,831.585925 C830.984047,850.696338 839.292626,872.595959 839.292626,896.607582 C839.292626,910.4147 828.099745,921.607582 814.292626,921.607582 C800.485508,921.607582 789.292626,910.4147 789.292626,896.607582 C789.292626,878.62294 779.669621,862.232887 759.908717,847.237955 C694.311691,894.296818 613.891645,922.002281 527.000642,922.002281 C444.360879,922.002281 367.574365,896.941539 303.826263,854.005218 C285.46441,869.706006 276.430947,887.01818 276.430947,906.306045 C276.430947,920.113164 265.238066,931.306045 251.430947,931.306045 C237.623828,931.306045 226.430947,920.113164 226.430947,906.306045 C226.430947,874.068492 239.589053,846.343169 263.608141,823.048382 C210.44574,776.497462 169.721654,716.091033 147.072061,647.465271 C132.466376,652.101288 121.160038,657.031906 113.58994,662.007891 C109.858453,664.460676 107.421363,666.672895 106.205234,668.385867 C106.032705,668.628882 105.91925,668.81106 105.849867,668.936155 C105.635644,682.558334 94.5262164,693.53514 80.8530178,693.53514 C67.045899,693.53514 55.8530178,682.342259 55.8530178,668.53514 C55.8530178,648.683636 67.2459306,632.636202 86.1258435,620.226036 C98.503843,612.089716 114.618747,605.142489 134.411429,599.034632 C129.548547,574.107562 127.000642,548.352469 127.000642,522.002281 C127.000642,498.894589 128.960068,476.244545 132.721834,454.209236 L132.721834,454.209236 Z" id="Combined-Shape" transform="translate(527.000642, 481.654163) rotate(20.000000) translate(-527.000642, -481.654163) "></path>
        </g>
    </g>
</svg>