<svg xmlns="http://www.w3.org/2000/svg" width="128" height="128" viewBox="0 0 128 128">
  <path d="M112.665064,35.1981491 C106.293053,39.3606003 95.6480882,42.9757799 85.9034722,45.0979878 C86.7125,47.9410366 87.1916667,50.8987805 87.1916667,53.9573171 C87.1916667,69.7810527 80.7710229,83.2525402 62.8888889,88.3118162 L62.8888889,97.402439 L80.25,97.402439 C84.0833333,97.402439 87.1944444,100.516585 87.1944444,104.353659 C87.1944444,108.190732 84.0833333,111.304878 80.25,111.304878 L10.8055556,111.304878 C6.97222222,111.304878 3.86111111,108.190732 3.86111111,104.353659 C3.86111111,100.516585 6.97222222,97.402439 10.8055556,97.402439 L28.1666667,97.402439 L28.1666667,88.6942938 C9.3705899,84.3859829 1.25416667,72.4768414 1.25416667,56.5640244 C1.25416667,37.4265781 20.4219331,19.3795924 42.0555556,17.6060181 L42.0555556,6.57194403 C40.9647386,6.25624713 40.0611076,5.79633995 39.4489708,5.24442739 C35.895261,6.3129283 29.0640644,7.03658537 21.2194444,7.03658537 C9.7125,7.03658537 0.386111111,5.4795122 0.386111111,3.56097561 C0.386111111,1.64243902 9.7125,0.0853658537 21.2194444,0.0853658537 C29.0640644,0.0853658537 35.895261,0.809022921 39.4489708,1.87752383 C40.6340657,0.809022921 42.9117048,0.0853658537 45.525,0.0853658537 C48.1382952,0.0853658537 50.4159343,0.809022921 51.6010292,1.87752383 C55.154739,0.809022921 61.9859356,0.0853658537 69.8305556,0.0853658537 C81.3375,0.0853658537 90.6638889,1.64243902 90.6638889,3.56097561 C90.6638889,5.4795122 81.3375,7.03658537 69.8305556,7.03658537 C61.9859356,7.03658537 55.154739,6.3129283 51.6010292,5.24442739 C50.9899319,5.79540271 50.0883296,6.25468487 49,6.57033446 L49,17.4634146 L52.4694444,17.4634146 C72.7098218,17.4634146 90.0249316,18.2354626 101.83113,20.1038637 C99.5648247,16.3133069 98.7896515,12.8220447 100.145139,11.8593415 C101.295577,11.0404537 103.665762,12.280953 106.087363,14.7581878 C109.274249,8.98943045 112.799742,3.56097561 114.969444,3.56097561 C118.441666,3.56097561 118.441667,17.4634084 118.441667,27.8902369 C118.441667,28.8693391 118.099632,29.8474756 117.469609,30.8147734 C118.338127,31.705668 119.213318,32.7546723 120.041667,33.9239024 C123.197917,38.3692073 124.486111,42.8735976 122.923611,43.9857927 C121.361111,45.0979878 117.53125,42.3939634 114.381944,37.9486585 C113.725863,37.0239025 113.150649,36.0967437 112.665064,35.1981491 L112.665064,35.1981491 Z M55.9444444,89.7597084 C52.7623584,90.213385 49.2953083,90.4512195 45.525,90.4512195 C41.7972574,90.4512195 38.328908,90.2558171 35.1111111,89.8774191 L35.1111111,97.402439 L55.9444444,97.402439 L55.9444444,89.7597084 L55.9444444,89.7597084 Z" transform="translate(2 9)"/>
</svg>
