<svg xmlns="http://www.w3.org/2000/svg" width="128" height="128" viewBox="0 0 128 128">
  <path d="M24.377776,95.566975 L4.154,86.1386667 C2.45933333,85.3471333 2.17826667,81.6829333 3.6394,81.8462 L29.4618423,84.71672 C33.4315324,75.6142801 42.998627,62.2239453 55.9646276,47.9289165 L4.18293333,23.7935333 C-0.651,21.5408667 -1.4508,11.0938667 2.7032,11.5568 L19.52541,13.425668 L27.541217,5.40986105 L31.5759767,9.44462079 L26.7880811,14.2325164 L49.792357,16.7881827 L57.0142915,9.56829053 L61.0484806,13.6036209 L57.0558499,17.5951224 L84.1432388,20.6044033 C94.4956296,11.8283436 104.039639,5.13344489 111.378867,1.426 C120.290333,-3.069 127.064867,3.71586667 122.574,12.6190667 L122.5802,12.6294 C118.873541,19.9723553 112.181113,29.5190313 103.402485,39.872413 L106.409577,66.9458837 L110.401786,62.9559319 L114.435405,66.9918329 L107.216087,74.2070675 L109.771401,97.2130936 L114.573651,92.4135596 L118.60727,96.4494605 L110.577912,104.474277 L112.447333,121.305067 L112.4556,121.300933 C112.918533,125.4632 102.469467,124.6696 100.212667,119.8274 L76.0783513,68.0409858 C61.7827551,81.0064289 48.3896325,90.5692019 39.2867337,94.5387217 L42.1558667,120.362667 C42.3191333,121.8238 38.6508,121.546867 37.8572,119.843933 L28.4438485,99.6462658 C23.2353421,104.013947 19.2749436,106.465629 18.4181333,105.612867 C17.5529114,104.750344 20.0077719,100.781967 24.377776,95.566975 L24.377776,95.566975 Z" transform="translate(2 2)"/>
</svg>
