<svg xmlns="http://www.w3.org/2000/svg" width="128" height="128" viewBox="0 0 128 128">
  <path d="M78.3332651,73.1720016 L74.2787556,70.0389889 L72.4591163,68.219658 C61.0498352,78.5843628 47.2641381,89.2805397 35.6140743,97.6533907 L44.9458667,110.716844 C46.2926444,112.063622 46.2926444,114.240511 44.9458667,115.587289 L37.6402,122.892956 C36.8890868,123.644069 35.8787029,123.976278 34.8982447,123.889582 C34.1221319,123.820863 33.3631851,123.48865 32.7659667,122.892956 L23.0250778,113.152067 L18.9034198,109.030064 C14.1522968,112.024127 11.097586,113.630956 10.7332333,113.265733 C10.3680188,112.901388 11.9749913,109.846799 14.9692598,105.095904 L8.68034444,98.8069889 L8.43957778,98.5665667 L8.1933,98.3199444 L1.10497778,91.2316222 C1.06185687,91.1883908 1.0201166,91.1443004 0.979757295,91.0994064 C-0.24995065,89.7672118 -0.218084564,87.6871704 1.07535556,86.3870111 L1.13391111,86.3284556 C1.16541003,86.2970382 1.19737293,86.2663652 1.22977779,86.2364366 L8.41408889,79.0555111 C9.75742222,77.7087333 11.9377556,77.7087333 13.2845333,79.0555111 L26.3468825,88.3857605 C34.7200366,76.7365853 45.4163741,62.9521879 55.7809299,51.5442984 L53.9565333,49.7202111 L25.6225333,13.0713222 L29.4289889,8.64107778 L34.3542,2.91021111 C37.0477556,0.2201 41.4084222,0.2201 44.0985333,2.91021111 L74.0693156,32.8796511 L80.6453283,26.3036384 L76.9824806,20.2249943 L75.1960111,22.0103444 C74.0249,23.1814556 72.1201222,23.1814556 70.9490111,22.0103444 L70.3290111,21.3869 C69.1544556,20.2157889 69.1544556,18.3110111 70.3255667,17.1399 L75.8229,11.6460111 C76.9905667,10.4714556 78.8953444,10.4714556 80.0699,11.6460111 L80.6899,12.2660111 C81.8644556,13.4405667 81.8644556,15.3419 80.6933444,16.5164556 L79.4892617,17.7197838 L83.1529768,23.7959898 L92.2157,14.7332667 C94.5873876,12.3615791 101.403359,8.93772058 104.82717,10.0062119 C105.286856,10.1487676 105.685498,10.3722597 106.004156,10.6901778 L108.440146,13.1261685 C108.854677,12.7220815 109.266382,12.3370719 109.670497,11.9743017 C108.339804,11.0949908 106.659343,9.69343374 104.954978,7.98732222 C101.589756,4.62554444 99.4094222,1.35332222 100.084533,0.681655556 C100.7562,0.00998888889 104.024978,2.19032222 107.3902,5.5521 C109.173684,7.33375899 110.623397,9.09026418 111.492204,10.4478378 C113.411181,8.96202824 114.922741,8.21247447 115.355133,8.64486667 C115.789009,9.08096728 115.032815,10.5993414 113.536844,12.5268707 C114.905349,13.3896666 116.698832,14.864176 118.520578,16.6859222 C121.8858,20.0477 124.062689,23.3199222 123.391022,23.9915889 C122.719356,24.6632556 119.447133,22.4829222 116.085356,19.1211444 C114.34074,17.3765285 112.91458,15.6578335 112.039642,14.3130082 C111.672746,14.7222415 111.282988,15.1394354 110.873655,15.559677 L113.309822,17.9958444 C113.750757,18.4378019 114.01059,19.0322973 114.125062,19.7294219 C114.712587,23.2877577 111.518219,29.533628 109.2657,31.7832667 L100.203237,40.8457293 L106.280187,44.5094286 L107.598244,43.1905778 C108.707356,42.0849111 110.505356,42.0849111 111.614467,43.1905778 L112.468689,44.0482444 C113.5778,45.1573556 113.5778,46.9553556 112.468689,48.0644667 L106.744022,53.7891333 C105.634911,54.8982444 103.836911,54.8982444 102.7278,53.7891333 L101.873578,52.9349111 C100.764467,51.8258 100.764467,50.0278 101.873578,48.9186889 L103.773167,47.0179565 L97.6952768,43.3536899 L91.1196974,49.9292693 L121.009533,79.8177667 C123.699644,82.5078778 123.699644,86.8754333 121.009533,89.5586556 L110.848422,98.2972111 L91.5337456,83.3723164 L78.3328667,73.1724 L78.3332651,73.1720016 Z" transform="translate(2 2)"/>
</svg>
