<svg xmlns="http://www.w3.org/2000/svg" width="128" height="128" viewBox="0 0 128 128">
  <path fill-rule="evenodd" d="M22.7149973,62.0000014 C9.58307701,58.1299715 0,46.0046947 0,31.6458333 C0,14.1683222 14.1979011,0 31.7118998,0 C45.9442758,0 57.9868163,9.35626726 62.0000011,22.2414471 C66.0131858,9.35626562 78.0557254,0 92.2881002,0 C109.802099,0 124,14.1683222 124,31.6458333 C124,46.004693 114.416925,58.1299687 101.285007,62 C114.416925,65.8700313 124,77.995307 124,92.3541667 C124,109.831678 109.802099,124 92.2881002,124 C78.0557242,124 66.0131837,114.643733 61.9999989,101.758553 C57.9868142,114.643734 45.9442746,124 31.7118998,124 C14.1979011,124 0,109.831678 0,92.3541667 C0,77.995307 9.58307475,65.8700313 22.7149926,62 L22.7149973,62.0000014 Z" transform="translate(2 2)"/>
</svg>
