<svg xmlns="http://www.w3.org/2000/svg" width="128" height="128" viewBox="0 0 128 128">
  <path d="M42.112621,7.14934187 C40.1948634,7.30957 38.2809887,7.48931396 36.3814181,7.74095238 C32.8342298,8.19809524 29.2870416,8.86857143 25.7701711,9.66095238 C21.5863081,10.6057143 17.4933985,11.9771429 13.6127139,13.8666667 C9.85330073,15.6952381 6.36674817,17.8895238 3.63814181,21.12 C1.60684597,23.527619 0.333496333,26.2704762 0.424449878,29.5009524 C0.515403423,32.8228571 1.97066015,35.5961905 4.18386308,37.9733333 C8.03422983,42.087619 12.8850856,44.5561905 18.0694377,46.4457143 C20.5251834,47.36 23.0718826,48.1219048 25.6185819,48.792381 C27.7711491,49.3714286 29.9540342,49.7371429 32.1369193,50.1333333 C33.7740831,50.4380952 35.4415648,50.712381 37.0787286,50.8952381 C37.7760391,50.9561905 38.0792176,51.352381 38.3217604,51.9009524 C39.8679707,55.3447619 41.4444988,58.7885714 42.990709,62.2628571 C43.5061125,63.36 44.2640587,63.847619 45.4767726,63.847619 L70.2464548,63.847619 C70.6102689,63.847619 70.9437653,63.8780952 71.3075795,63.847619 C72.1867971,63.8171429 73.005379,63.1466667 73.1872861,62.3238095 C73.5207824,60.952381 73.793643,59.5504762 74.0968215,58.1790476 C74.6122249,55.68 75.1276284,53.1809524 75.6733496,50.6819048 C75.7339853,50.4685714 76.006846,50.1942857 76.2190709,50.1638095 C77.8562347,49.8285714 79.4933985,49.5847619 81.1305623,49.2495238 C83.9804401,48.64 86.8303178,48.0914286 89.6498778,47.2990476 C92.7119804,46.4152381 95.7437653,45.4095238 98.7452323,44.312381 C100.994347,43.4776013 103.194099,42.5237298 105.310683,41.3997967 L118.633741,50.56 C120.301222,51.7180952 122.575061,51.2609524 123.696822,49.6152381 L115.063377,33.3523097 C115.256921,33.0258604 115.43692,32.6872645 115.601956,32.3352381 C115.844499,31.847619 115.874817,26.5447619 115.69291,26.2704762 C115.404848,25.8695387 115.120835,25.4645314 114.839392,25.0569413 L123.272372,12.8 C124.42445,11.1542857 124,8.86857143 122.362836,7.71047619 L104.959276,16.9110656 C100.506304,14.6436147 95.8579406,12.8697243 91.0141809,11.6114286 C86.8303178,10.5447619 82.6161369,9.50857143 78.3716381,8.71619048 C77.7496536,8.59927699 77.1268256,8.48829836 76.5032949,8.38311319 C74.5937348,3.57284536 67.4810053,2.66453526e-15 58.998533,2.66453526e-15 C51.2589337,2.66453526e-15 44.6596657,2.9744473 42.112621,7.14934187 L42.112621,7.14934187 Z" transform="translate(2 32)"/>
</svg>
