<svg xmlns="http://www.w3.org/2000/svg" width="128" height="128" viewBox="0 0 128 128">
  <path d="M62.1944444,0.388888889 C60.8402778,0.388888889 59.6076389,1.14583333 58.9965278,2.35069444 L52.7465278,14.6909722 L42.2465278,5.67708333 C41.5833333,5.11805556 40.7534722,4.81944444 39.9131944,4.81944444 C39.4513889,4.81944444 38.9861111,4.90972222 38.5451389,5.09027778 C37.2986111,5.60763889 36.4409722,6.78472222 36.34375,8.125 L35.2881944,21.9270833 L22.1354167,17.6180556 C21.7708333,17.5 21.3958333,17.4409722 21.0208333,17.4409722 C20.0868056,17.4409722 19.1736111,17.8090278 18.4861111,18.4930556 C17.5347222,19.4409722 17.1979167,20.8576389 17.6180556,22.1423611 L21.9236111,35.2951389 L8.13194444,36.3402778 C6.78472222,36.4479167 5.61111111,37.2951389 5.09375,38.5381944 C4.57986111,39.7951389 4.80555556,41.2222222 5.68402778,42.2465278 L14.6909722,52.7465278 L2.35416667,58.9965278 C1.14583333,59.6076389 0.388888889,60.8472222 0.388888889,62.1944444 C0.388888889,63.5416667 1.14583333,64.7777778 2.35416667,65.3923611 L14.6909722,71.6423611 L5.68402778,82.1388889 C4.80902778,83.1666667 4.57986111,84.5972222 5.09375,85.84375 C5.61111111,87.0902778 6.78472222,87.9444444 8.13194444,88.0451389 L21.9236111,89.1006944 L17.6180556,102.25 C17.1979167,103.534722 17.5347222,104.944444 18.4861111,105.902778 C19.1736111,106.583333 20.0868056,106.947917 21.0208333,106.947917 C21.3958333,106.947917 21.7708333,106.888889 22.1354167,106.770833 L35.2881944,102.465278 L36.34375,116.256944 C36.4409722,117.604167 37.2986111,118.777778 38.5451389,119.295139 C38.9861111,119.475694 39.4513889,119.565972 39.9131944,119.565972 C40.7534722,119.565972 41.5833333,119.270833 42.2465278,118.704861 L52.7465278,109.694444 L58.9965278,122.034722 C59.6076389,123.239583 60.8402778,124 62.1944444,124 C63.5416667,124 64.78125,123.239583 65.3888889,122.038194 L71.6458333,109.694444 L82.1458333,118.704861 C82.8090278,119.270833 83.6423611,119.565972 84.4756944,119.565972 C84.9444444,119.565972 85.40625,119.475694 85.8506944,119.295139 C87.0972222,118.777778 87.9444444,117.600694 88.0520833,116.256944 L89.1041667,102.465278 L102.246528,106.770833 C102.614583,106.888889 102.993056,106.947917 103.361111,106.947917 C104.298611,106.947917 105.21875,106.583333 105.895833,105.902778 C106.854167,104.944444 107.190972,103.534722 106.770833,102.25 L102.461806,89.1006944 L116.263889,88.0451389 C117.604167,87.9444444 118.78125,87.0902778 119.295139,85.84375 C119.8125,84.5972222 119.586806,83.1666667 118.708333,82.1388889 L109.697917,71.6423611 L122.034722,65.3923611 C123.243056,64.7777778 124,63.5416667 124,62.1944444 C124,60.8472222 123.243056,59.6111111 122.034722,58.9965278 L109.697917,52.7465278 L118.708333,42.2465278 C119.586806,41.2222222 119.8125,39.7951389 119.295139,38.5381944 C118.78125,37.2951389 117.604167,36.4479167 116.253472,36.3402778 L102.461806,35.2951389 L106.770833,22.1423611 C107.190972,20.8541667 106.854167,19.4409722 105.895833,18.4930556 C105.21875,17.8090278 104.298611,17.4409722 103.361111,17.4409722 C102.993056,17.4409722 102.614583,17.5 102.246528,17.6180556 L89.1041667,21.9270833 L88.0520833,8.13194444 C87.9444444,6.78472222 87.0972222,5.60763889 85.8506944,5.09027778 C85.40625,4.90972222 84.9444444,4.81944444 84.4756944,4.81944444 C83.6423611,4.81944444 82.8090278,5.11805556 82.1458333,5.67708333 L71.6458333,14.6909722 L65.3888889,2.35069444 C64.78125,1.14583333 63.5416667,0.388888889 62.1944444,0.388888889" transform="matrix(1 0 0 -1 2 126.389)"/>
</svg>
