<svg xmlns="http://www.w3.org/2000/svg" width="128" height="128" viewBox="0 0 128 128">
  <path d="M82.295899,28.7756518 L82.295899,26.0182257 L82.1937886,26.0182257 C80.989949,12.194786 69.2857931,1.26530816 54.7605634,0.893614249 C40.5880179,0.893614249 28.8908089,11.8338059 27.3803846,26.0182257 L27.2252278,26.0182257 L27.2252278,55.8537018 L0.0832540888,124.553811 L13.45756,124.553811 L18.9646271,111.206361 L32.338933,111.206361 L30.3721233,124.946383 L43.7464291,124.946383 L45.7132388,111.206361 L59.0875447,111.206361 L60.2676305,124.946383 L73.6419364,124.946383 L72.4618506,111.206361 L88.9830519,111.206361 L94.4901191,124.553811 L107.864425,124.553811 L82.295899,55.8537018 L82.295899,42.6550368 L82.5666894,42.6550368 L82.5666894,28.7756518 L82.295899,28.7756518 Z" transform="translate(10 1)"/>
</svg>
