<svg xmlns="http://www.w3.org/2000/svg" width="128" height="128" viewBox="0 0 128 128">
  <path d="M41.5633842,28.3188304 L35.8317844,26.8991646 L35.8322283,25.4824882 C35.8302014,24.1021462 34.7113338,22.9832786 33.3289649,22.9832786 L32.5992686,22.9832786 C31.2168997,22.9832786 30.0960052,24.1041731 30.100059,25.4824882 L30.0980321,31.9504346 C30.0980321,33.3287497 31.2189266,34.4496442 32.5992686,34.4476172 L33.3309918,34.4496442 C34.7093069,34.4496442 35.8302014,33.3287497 35.8302014,31.9504346 L35.8308601,29.8485448 L41.5633842,31.2701557 L41.5633842,39.0096585 L6.29067904,39.0104483 C3.12460816,39.0104483 0.558509745,41.5765467 0.556482811,44.7446445 L1.03058267,51.0153702 L1.39766041,55.8623774 L39.6377969,60.755396 L41.7848009,60.7552141 C42.3987659,73.5675296 44.2159802,87.973578 46.1438029,99.7560121 L32.9665491,101.952221 C31.3814867,101.952221 30.0984375,103.23527 30.1004644,104.818306 L30.0984721,113.27174 C30.0970149,113.308422 30.0962559,113.345281 30.0962079,113.382305 L30.0962079,113.45122 C30.1001619,114.977462 31.3054407,116.220245 32.8130299,116.280555 C32.8631985,116.283223 32.9137068,116.284606 32.9645221,116.284671 L41.306977,116.284671 L41.5970313,116.284874 L41.8801939,116.284671 L49.2818034,116.284671 C50.3155161,120.842427 51.1673873,123.585591 51.5967074,123.585079 C52.0260365,123.585591 52.8780639,120.84244 53.912032,116.284671 L58.7631351,116.284671 L58.7631351,116.284874 L70.2274737,116.284874 C70.9294611,116.283977 71.5715698,116.032859 72.0687237,115.616583 C72.6967059,115.090635 73.095788,114.300567 73.095788,113.41656 L73.095788,104.818306 C73.095788,103.233243 71.8147657,101.952221 70.2297034,101.952221 L57.0508915,99.7562701 C58.9794156,87.9734915 60.7974892,73.5667727 61.4121854,60.7535506 L63.5535909,60.7533691 L67.783194,60.2111008 L67.783194,60.2115697 L81.5537361,58.4456091 L101.702515,55.8623774 L102.539639,44.7405907 C102.543693,41.5785737 99.9735407,39.0084214 96.8074698,39.0084214 L61.6300306,39.0092091 L61.6300306,31.2702163 L67.3629461,29.8498839 L67.3636187,32.0862391 C67.3636187,33.3915846 68.4216782,34.4496442 69.7270237,34.4496442 L70.732383,34.4496442 C72.0377285,34.4496442 73.095788,33.3915846 73.095788,32.0862391 L73.095788,25.3487106 C73.095788,24.0433651 72.0377285,22.9853056 70.732383,22.9853056 L69.7249968,22.9832786 C68.4216782,22.9853056 67.3636187,24.0433651 67.3615918,25.3466837 L67.3620585,26.8984113 L61.6300306,28.3185238 L61.6300306,17.652645 C61.6317176,15.0158562 59.8530259,9.50069489 57.4310138,7.72500411 L53.032381,7.62649458 L53.0323847,7.62033523 C53.0320514,6.9694773 53.0144582,6.33894772 52.9817673,5.73964728 C54.2880194,6.01615962 56.1386554,6.18830638 58.1919451,6.18830638 C62.1485203,6.18830638 65.3571568,5.5457683 65.3571568,4.75526405 C65.3571568,3.9647598 62.1505472,3.32019479 58.1919451,3.32222173 C56.0478784,3.32222173 54.1247804,3.50992635 52.8117387,3.80751806 C52.5577818,1.79290916 52.1092657,0.454406016 51.5973154,0.453096681 C51.0884203,0.453096681 50.6400064,1.78368248 50.3851028,3.78727902 C49.0749565,3.49965705 47.1882104,3.31912057 45.0902493,3.32019479 C41.1316472,3.32222173 37.9250377,3.96273287 37.9250377,4.75323712 C37.9230107,5.5457683 41.1316472,6.18830638 45.0902493,6.18627944 C47.0971945,6.18730706 48.9108535,6.02318179 50.2113627,5.75755936 C50.1802999,6.33373413 50.1632884,6.93852308 50.1622926,7.56221755 L46.1599661,7.4725835 C46.1743195,7.46476397 46.1886924,7.45708069 46.2030844,7.44953492 C46.1887051,7.45710683 46.174345,7.46481629 46.1599661,7.4725835 C43.5378475,8.90107251 41.5633842,14.8765325 41.5633842,17.652645 L41.5633842,28.3188304 L41.5633842,28.3188304 Z" transform="translate(12 2)"/>
</svg>
