<svg xmlns="http://www.w3.org/2000/svg" width="128" height="128" viewBox="0 0 128 128">
  <path d="M16.020738,27.4412574 C12.9175744,25.9854229 9.73088908,23.800537 6.79715057,20.5513949 C5.46581534,19.0757415 3.18198011,18.953071 1.70271875,20.2916222 C0.223457386,21.6265653 0.104394886,23.9067926 1.43933807,25.386054 C4.85956864,29.1730226 8.55629026,31.8011756 12.1915784,33.61042 C9.81248646,38.7371273 9.81067017,43.5205111 13.557375,47.2672159 C18.7023182,52.4121591 29.3999034,54.0609943 38.2971193,50.2437784 C37.5290868,52.0026988 37.1015724,53.8161021 37.0986009,55.6597621 C32.6791119,58.062493 23.5986774,61.5006761 12.6510568,57.3395426 C10.7965682,56.6359915 8.70395455,57.5668437 8.00040341,59.4321562 C7.29324432,61.2938608 8.22770455,63.3792585 10.0894091,64.0864176 C14.703983,65.8362756 19.0515682,66.5073551 23.0058864,66.5073551 C29.8139956,66.5073551 35.4494365,64.5227567 39.2374421,62.6613979 C39.7582329,63.4858772 40.3807002,64.3103569 41.1119148,65.1327984 L24.2286222,82.013983 C22.8179119,83.4246932 22.8179119,85.7049205 24.2286222,87.1156307 C24.9321733,87.8191818 25.8558097,88.1727614 26.779446,88.1727614 C27.7030824,88.1727614 28.6267188,87.8191818 29.3302699,87.1156307 L46.6210262,69.8270334 C47.7491388,70.5740504 48.937454,71.2621581 50.1627771,71.8801275 C46.0464048,77.0603643 40.5791706,87.140508 44.1701477,101.51173 C44.5814545,103.153349 46.049892,104.24656 47.6662557,104.24656 C47.9585,104.24656 48.2507443,104.21048 48.5465966,104.138321 C50.4768523,103.654855 51.6530455,101.695736 51.1695795,99.7654801 C47.7561555,86.102895 54.5606006,77.4506915 57.3819986,74.56428 C58.7416706,74.8943049 60.0934482,75.1214983 61.4096761,75.2324716 C55.9977443,85.4069034 58.1949886,96.714233 68.8745341,107.397386 C82.4043636,120.923608 112.906011,127.338551 120.12192,120.122642 C127.33783,112.906733 120.926494,82.4014773 107.396665,68.8752557 C96.7171193,58.1993182 85.4061818,55.9984659 75.23175,61.4103977 C75.1213503,60.0933366 74.894185,58.7405056 74.5637697,57.3796572 C77.4487017,54.5541105 86.0933017,47.7472968 99.7662017,51.1692187 C101.689241,51.6526847 103.655577,50.4728835 104.139043,48.5462358 C104.622509,46.6123722 103.446315,44.6532528 101.512452,44.1697869 C87.1526165,40.5828761 77.064373,46.0516741 71.8803516,50.1656269 C71.2622819,48.9404787 70.5740558,47.752207 69.8269633,46.623994 L87.1188778,29.3342386 C88.5295881,27.9271364 88.5295881,25.6396932 87.1188778,24.2325909 C85.7081676,22.8218807 83.4279403,22.8218807 82.0172301,24.2325909 L65.1330914,41.1146214 C64.3099888,40.3834163 63.4850671,39.7608854 62.6602895,39.2399758 C65.6039603,33.2525019 68.8560144,22.6479398 64.0846136,10.0937386 C63.3738466,8.23203409 61.2956648,7.29757386 59.4303523,8.00473295 C57.5650398,8.71189205 56.6305795,10.7936818 57.3377386,12.6589943 C61.4978816,23.5985333 58.0600327,32.6797457 55.6582625,37.0991868 C53.815583,37.1014386 52.0027522,37.5276704 50.2430568,38.294233 C54.0602727,29.404233 52.4078295,18.7030398 47.2628864,13.5580966 C43.5203356,9.81554579 38.7365792,9.81790257 33.6087883,12.1965981 C31.7998231,8.56031787 29.1716996,4.86261194 25.38425,1.44186364 C23.9013807,0.1033125 21.6211534,0.225982955 20.2862102,1.70163636 C18.951267,3.18089773 19.0667216,5.461125 20.545983,6.79967614 C23.7961458,9.73424202 25.9817927,12.9215422 27.438112,16.0251221 C25.4157523,17.5682724 23.3832083,19.3799622 21.3794205,21.38375 C19.3757638,23.3874067 17.5640129,25.4194815 16.020738,27.4412574 L16.020738,27.4412574 Z" transform="translate(2 2)"/>
</svg>
