<svg xmlns="http://www.w3.org/2000/svg" width="128" height="128" viewBox="0 0 128 128">
  <path d="M48.3117157,1.54439181 C47.5772274,1.62114187 46.8443741,1.78073431 46.1148947,2.044512 C25.2288651,7.40272914 7.86463299,24.5264914 2.35982298,45.4616594 C-0.339116724,55.292096 -0.60207008,65.7897234 1.70540205,75.7240366 C1.72139288,75.70686 1.73739071,75.689691 1.75339554,75.6725297 C5.3920623,91.6007449 15.2354409,105.642354 29.1979654,114.399792 L29.2123309,114.397744 C34.7639062,117.898023 40.967917,120.563528 47.6981729,122.173728 C70.9660223,127.740456 94.2934419,119.26592 108.862995,102.202773 C108.871539,102.304942 109.027865,102.159153 109.460161,101.546576 C115.621508,94.2487154 119.999596,85.5036686 122.212975,76.2390971 C123.188126,72.1791231 123.748291,68.0213021 123.884129,63.8498224 L123.899728,63.8577184 C123.912725,63.2581192 123.918248,62.6603134 123.916328,62.0644146 C123.918563,61.4258786 123.910836,60.7873073 123.893112,60.1489989 L123.884113,60.1407991 C123.254148,39.3838337 113.506041,21.1252952 96.0211704,10.2742715 C96.0513547,10.3305003 96.0814232,10.3867164 96.1113764,10.4429196 C90.167365,6.48737277 83.4232047,3.4941601 76.0543208,1.75150354 C66.6202848,-0.479492399 57.1773396,-0.428655387 48.3117157,1.54439181 L48.3117157,1.54439181 Z" transform="translate(2 2)"/>
</svg>
