<svg xmlns="http://www.w3.org/2000/svg" width="128" height="128" viewBox="0 0 128 128">
  <path d="M46.3147138,50.847 C53.0834603,38.1266732 56.3904762,31.507152 53.3441761,21.5073409 C50.2084943,11.2197273 41.9361648,2.51427273 30.0950284,0.509727273 C21.3859943,8.77847727 19.3778693,20.6196136 22.5135511,30.9000682 C25.6203076,41.0902294 32.2453888,44.6874938 45.4349932,51.7177669 C37.9778216,59.1322154 31.8924145,66.0349232 26.9202261,72.4017665 C27.7193917,63.7852563 27.7012635,58.96495 23.404142,53.7268295 C18.6111307,47.8850114 10.8972102,44.4379091 2.66067614,46.3100114 C-0.786426136,54.0203523 1.08209659,62.2533068 5.87510795,68.1058636 C10.3716617,73.5789078 15.3274927,74.3805358 24.6853634,75.3264031 C9.34819481,95.851024 5.77114802,110.462106 4.57465909,118.28429 C4.2525,120.378324 7.04096591,123.027187 9.13142045,123.352926 C11.2254545,123.671506 15.4922727,121.942585 15.8180114,119.848551 C16.5843874,114.83323 18.4381668,106.123777 23.8687569,94.633108 C32.3162743,104.402188 36.5551446,109.282092 45.6696307,109.95075 C54.8010511,110.605807 64.2582102,106.704102 69.480767,97.9055795 C65.582642,88.4448409 56.7841193,83.2222841 47.6526989,82.5600682 C38.5470085,81.906601 33.6553932,86.1190902 23.9127489,94.5401291 C28.2952003,85.2880209 34.9948788,74.2390748 45.3062304,61.8679901 C53.3177851,72.094539 57.604345,77.2501224 66.9983523,78.3992045 C76.6953409,79.5732955 86.9829545,75.9257386 93.0109091,66.819375 C89.3454545,56.5353409 80.2534091,50.5073864 70.5528409,49.3189773 C62.3839496,48.323139 57.2373632,51.1916789 49.3052039,57.2125528 C55.8803756,49.7789324 63.7496237,41.911881 73.1730682,33.7067898 C73.8878211,33.0817816 74.5997041,32.3756973 75.042744,31.643145 C85.2710186,35.7663512 91.0844244,37.5346945 98.9869602,34.224392 C107.692415,30.562517 114.572301,22.5550739 115.266733,12.016892 C107.266449,5.14058523 96.7318466,4.43899432 88.019233,8.09371023 C79.8266305,11.541276 77.1039764,17.2225097 72.5985042,28.1902646 C71.7580573,28.4140111 70.8871266,29.0032717 70.0696023,29.672642 C60.9266872,37.1266139 53.0697562,44.1904602 46.3147138,50.847 L46.3147138,50.847 Z" transform="translate(6 2)"/>
</svg>
