<svg xmlns="http://www.w3.org/2000/svg" width="128" height="128" viewBox="0 0 128 128">
  <path d="M40.539829,22.765341 C47.0571363,19.1605038 45.964168,10.0919812 40.6315854,7.41304348 C33.9242683,4.04347826 30.5706098,10.7826087 30.5706098,10.7826087 C30.5706098,10.7826087 30.5706098,0.673913043 20.5096341,0.673913043 C10.4486585,0.673913043 10.4486585,10.7826087 10.4486585,10.7826087 C10.4486585,10.7826087 0.387682927,7.62195652 0.387682927,17.5217391 C0.387682927,22.5154348 4.08006098,25.6457609 8.71817073,25.5648913 L8.71817073,28.1074882 C4.64594323,29.1528748 0.387682927,31.76122 0.387682927,34.3695652 C0.387682927,36.9779104 4.64594323,39.5862557 8.71817073,40.6316423 L8.71817073,41.1086957 C8.71817073,44.4782609 9.60353659,51.2173913 6.24987805,54.5869565 C2.89621951,57.9565217 -2.08396341,68.0652174 7.9770122,68.0652174 C10.2809661,68.0652174 12.0573168,67.3584097 13.4268848,66.1471173 C13.5472247,66.7731693 13.6723079,67.4123103 13.8023171,68.0652174 C16.4762504,81.4982973 28.2494569,97.0734653 46.0553832,102.835239 C45.6094207,105.86203 45.6094207,108.49562 45.6094207,108.49562 L38.9021037,108.49562 C37.0475305,108.49562 35.5484451,110.005185 35.5484451,111.865185 C35.5484451,113.728554 37.0475305,115.23475 38.9021037,115.23475 L42.6179573,115.23475 L41.8734451,115.639098 C40.2435671,116.525293 39.6365549,118.57062 40.5185671,120.208228 C41.3972256,121.845837 43.4328963,122.455728 45.0627744,121.569533 L53.9130793,116.761163 C55.5429573,115.878337 56.1499695,113.833011 55.2679573,112.195402 C54.9426524,111.58888 54.4295427,111.177793 53.8694817,110.877902 C51.7765103,108.631475 51.0822229,106.233246 51.0130721,104.144921 C54.1093917,104.784319 57.3607304,105.130435 60.7535366,105.130435 C63.7494285,105.130435 66.6027961,104.939501 69.3147274,104.57294 C69.0850305,106.803416 69.0850305,108.49562 69.0850305,108.49562 L62.3777134,108.49562 C60.5231402,108.49562 59.0240549,110.005185 59.0240549,111.865185 C59.0240549,113.728554 60.5231402,115.23475 62.3777134,115.23475 L66.0935671,115.23475 L65.3490549,115.639098 C63.7191768,116.525293 63.1121646,118.57062 63.9941768,120.208228 C64.8728354,121.845837 66.9085061,122.455728 68.5383841,121.569533 L77.388689,116.761163 C79.0185671,115.878337 79.6255793,113.833011 78.7435671,112.195402 C78.4149085,111.58888 77.9051524,111.177793 77.3417378,110.877902 C75.0732072,108.443043 74.4484476,105.829849 74.4819611,103.626226 C107.059057,96.0061788 116.237697,60.8574453 104.351098,31 C95.0614634,7.6725 100.997439,47.8478261 67.4608537,47.8478261 C50.1365269,47.8478261 49.2498726,33.1672594 40.539829,22.765341 L40.539829,22.765341 Z" transform="translate(9 2)"/>
</svg>
