<svg xmlns="http://www.w3.org/2000/svg" width="128" height="128" viewBox="0 0 128 128">
  <path d="M65.8774516,7.13428423 C65.8753102,7.13257657 65.873146,7.13088356 65.8709565,7.12920732 C50.0542174,-4.67902439 14.4581304,-0.741829268 6.55313043,11.0664024 C-4.41817391,27.4423171 2.59726087,85.8529878 6.55313043,93.7206707 C10.5056304,101.598415 22.3698696,105.528902 26.3223696,101.598415 C30.2782391,97.6545122 26.3223696,97.6545122 22.3698696,89.7901829 C19.5057391,84.0856098 20.7996522,70.1377439 23.2291087,61.3813415 C23.3234565,61.9447561 23.4582391,62.4612195 23.5660652,63.0112195 C24.8768261,72.6395732 30.2782391,87.8685366 30.2782391,95.6892683 C30.2782391,107.645061 37.3610652,109.466098 46.0983478,109.466098 C54.8356304,109.466098 61.9184565,107.645061 61.9184565,95.6892683 C61.9184565,94.8843902 61.8915,94.139878 61.8780217,93.3584756 C64.4287826,93.5764634 67.0503043,93.7206707 69.8268261,93.7206707 C71.5015,93.7206707 73.1188913,93.6670122 74.7093261,93.5865244 C74.6958478,94.287439 74.6655217,94.964878 74.6655217,95.6892683 C74.6655217,107.645061 81.7483478,109.466098 90.4822609,109.466098 C99.2195435,109.466098 106.305739,107.645061 106.305739,95.6892683 C106.305739,89.6526829 110.322261,80.1785976 113.176283,72.2740244 C113.712043,71.0901829 114.156826,69.8191463 114.58813,68.5279878 C114.985739,72.9145732 115.238457,77.6063415 115.238457,82.6368293 C115.238457,84.4914024 116.744652,85.9904878 118.608022,85.9904878 C120.471391,85.9904878 121.977587,84.4914024 121.977587,82.6368293 C121.977587,65.3587805 119.376283,51.6221951 116.76487,42.164878 C113.853565,17.6831707 97.4606304,7.12920732 69.8268261,7.12920732 C68.5126957,7.12920732 67.2592174,7.18621951 65.9922609,7.23317073 C65.9517441,7.20525306 65.9198756,7.16872792 65.8806569,7.13686443 C65.8760126,7.13132293 65.8736522,7.12853659 65.8736522,7.12853659 L65.8774516,7.13428423 L65.8774516,7.13428423 Z" transform="translate(2 9)"/>
</svg>
