<svg xmlns="http://www.w3.org/2000/svg" width="128" height="128" viewBox="0 0 128 128">
  <path d="M72.2271259,18.4477634 C78.7173179,7.56568969 88.328621,4.03054375 90.8087388,4.03054375 C94.2589276,4.03054375 94.2589276,0.609816419 90.8087388,0.609816419 C79.9149004,0.609816419 60.4218431,4.87271124 42.5114555,20.1284642 C25.0511675,29.3873948 15.4553211,52.6661363 8.73111336,64.6358024 C8.52146878,65.0087797 8.31460976,65.3707683 8.11038496,65.7210011 C8.00681325,65.8991121 7.88097848,66.0682787 7.73640498,66.2297182 C4.84903919,69.451151 -5.49666145,69.5958554 4.6981038,76.3355476 C-0.803885321,79.9722315 -0.238509546,81.8975467 1.97236427,83.3096521 C4.06140215,84.644302 7.61906703,85.5195453 8.9145238,86.9468353 C14.5217719,93.1309698 25.084455,99.7936976 36.6518823,103.971933 C52.1575728,113.401781 73.9351181,123.756356 87.3576596,123.756356 C97.708226,123.756356 94.2580372,120.335629 90.8078485,120.335629 C88.4030071,120.335629 74.2646531,115.34992 64.7497097,107.695254 C81.7872071,105.212688 97.2608343,93.2810979 102.619759,77.6023537 C106.697679,89.2394625 115.390737,99.8114407 121.061775,99.8114407 C128.683242,99.8114407 114.161397,80.7169404 114.161397,65.6041666 C114.161397,50.491393 128.683242,31.3968927 121.061775,31.3968927 C115.512637,31.3968927 107.07,41.5192628 102.889045,52.8571215 C98.873639,37.7782603 88.0202521,23.7651712 72.2271259,18.4477634 L72.2271259,18.4477634 Z" transform="translate(2 2)"/>
</svg>
