<svg xmlns="http://www.w3.org/2000/svg" width="128" height="128" viewBox="0 0 128 128">
  <path d="M105.027873,77.3154364 C108.897018,73.1116635 111.261111,67.4948129 111.261111,61.326087 C111.261111,48.3027174 100.724028,37.7391304 87.7333333,37.7391304 C86.5222456,37.7391304 85.332483,37.8309421 84.1705953,38.0079992 C82.6555227,26.4491266 72.7867686,17.5217391 60.8444444,17.5217391 C51.9804656,17.5217391 44.2588348,22.4399155 40.2475043,29.7018566 C37.3018844,28.3710557 34.0341767,27.6304348 30.5944444,27.6304348 C28.1552589,27.6304348 25.8025762,28.0028577 23.5899065,28.6940588 C15.1735007,20.9215797 9.14409442,9.74017654 6.89592222,2.97869565 C6.30772778,1.21641304 4.4087,0.252717391 2.64411667,0.84576087 C0.882894444,1.43543478 -0.0716611111,3.3426087 0.516533333,5.10826087 C2.92120083,12.3356723 8.78715603,23.3642665 17.1728789,31.8441435 C11.0652898,36.1055118 7.06666667,43.1947311 7.06666667,51.2173913 C7.06666667,58.0089502 9.93224725,64.1315663 14.5170082,68.435956 C8.01382288,72.6333393 3.70555556,79.9551118 3.70555556,88.2826087 C3.70555556,101.305978 14.2426389,111.869565 27.2333333,111.869565 C31.7406972,111.869565 35.9526776,110.597844 39.5316229,108.392902 C43.2867469,116.418348 51.4198933,121.978261 60.8444444,121.978261 C67.4267561,121.978261 73.3791297,119.266174 77.65,114.896211 C81.9208703,119.266174 87.8732439,121.978261 94.4555556,121.978261 C107.44625,121.978261 117.983333,111.414674 117.983333,98.3913043 C117.983333,89.1792839 112.711235,81.1979849 105.027873,77.3154364 L105.027873,77.3154364 Z" transform="translate(5 2)"/>
</svg>
