<svg xmlns="http://www.w3.org/2000/svg" width="128" height="128" viewBox="0 0 128 128">
  <path d="M25.1580367,108.873299 C29.1448827,111.011278 33.4805558,112.689862 37.8469565,113.974867 C43.4067391,118.218422 51.8576087,120.932644 61.326087,120.932644 C70.7979348,120.932644 79.2454348,118.218422 84.808587,113.971422 C89.1768878,112.685613 93.514629,111.005942 97.503062,108.866366 C100.578642,110.946009 103.495371,113.512711 105.805696,116.660156 C106.46613,117.566044 107.477,118.037933 108.501348,118.037933 C109.205587,118.037933 109.913196,117.814044 110.519717,117.349044 C112.009065,116.208933 112.312326,114.049267 111.19363,112.530267 C109.01846,109.562245 106.434968,107.051369 103.689711,104.926117 C104.619159,104.220948 105.511877,103.480999 106.361946,102.705042 C109.987613,103.741544 113.581814,105.1947 116.874717,107.215489 C117.417217,107.5496 118.017,107.7046 118.603304,107.7046 C119.748957,107.7046 120.864283,107.112156 121.497761,106.034044 C122.454717,104.401378 121.939174,102.286489 120.342,101.308267 C117.44958,99.5348129 114.38884,98.1411844 111.2879,97.0511924 C115.225994,91.210127 117.01599,83.8753768 115.23913,74.7529778 C113.472956,65.6852436 110.009653,59.8326351 105.577014,56.1327419 C115.27176,51.4414366 121.978261,41.3500496 121.978261,29.6555556 C121.978261,13.4838889 109.153696,0.377777778 93.3369565,0.377777778 C82.7648922,0.377777778 73.5296465,6.23321783 68.5674336,14.9457206 C66.2142068,14.4304698 63.7947588,14.1555556 61.326087,14.1555556 C58.8576461,14.1555556 56.4384198,14.4304184 54.0854009,14.945576 C49.1239188,6.23315303 39.8894755,0.377777778 29.3152174,0.377777778 C13.4951087,0.377777778 0.673913043,13.4838889 0.673913043,29.6555556 C0.673913043,41.3504221 7.37907857,51.4420795 17.0746229,56.1331902 C12.642241,59.8331078 9.17914627,65.6856098 7.41304348,74.7529778 C5.63627497,83.8749119 7.42599779,91.2099504 11.3638993,97.0515475 C8.26199488,98.1419591 5.20042339,99.5363442 2.30747826,101.311022 C0.713673913,102.289244 0.19476087,104.404133 1.15171739,106.0368 C1.78519565,107.111467 2.90052174,107.707356 4.04617391,107.707356 C4.63584783,107.707356 5.23226087,107.548911 5.77813043,107.218244 C9.07082395,105.198345 12.6661472,103.745596 16.2927201,102.708788 C17.141509,103.483513 18.0328036,104.222346 18.9607206,104.92651 C16.2152811,107.052264 13.6318249,109.5639 11.4558478,112.533022 C10.3405217,114.052022 10.640413,116.211689 12.1297609,117.3518 C12.7362826,117.8168 13.4438913,118.040689 14.1481304,118.040689 C15.1724783,118.040689 16.1833478,117.565356 16.8471522,116.662911 C19.1536374,113.519836 22.0749965,110.953922 25.1580367,108.873299 L25.1580367,108.873299 Z" transform="translate(2 3)"/>
</svg>
