<svg xmlns="http://www.w3.org/2000/svg" width="128" height="128" viewBox="0 0 128 128">
  <path d="M76.4154374,28.0527467 L97.3907857,64.7598519 L25.9737401,64.7598519 L47.4142418,26.9444672 C45.0951511,26.3834473 42.5338864,26.2088542 39.0724967,26.9266286 C35.6651368,27.6337525 34.0546611,28.6515212 30.1966094,30.3596405 C17.709194,35.8873445 0.941624062,40.1142553 0.117152737,37.0510866 C-0.762547954,33.7857419 16.3689322,21.8259544 26.7448561,15.4619263 C43.6534615,5.09190481 52.1072613,-0.0935979754 63.2346828,0.20917398 C73.4084547,0.486293967 81.2488378,5.40060318 96.9305882,15.2281938 C107.206902,21.66815 124.821626,34.0796133 123.886696,37.5205198 C123.094765,40.4367528 109.083651,36.5145821 99.0647314,32.0687439 C93.191852,29.4631775 93.935453,29.0045692 90.5201984,27.8418331 C84.3969853,25.7591025 80.414742,26.6915022 76.4154374,28.0527467 L76.4154374,28.0527467 Z" transform="translate(2 32)"/>
</svg>
