<svg xmlns="http://www.w3.org/2000/svg" width="128" height="128" viewBox="0 0 128 128">
  <path d="M34.3228736,21.645948 C30.2958736,12.5960108 23.7990458,4.95859042 13.9282819,0.786852429 C12.2310001,0.0691036925 10.7520183,2.56433392 12.4657299,3.28883023 C24.5866978,8.41175547 31.2722862,18.9080088 34.4954992,30.735556 C34.3801109,30.9332987 34.2689877,31.13714 34.1623615,31.3472643 C33.8663513,31.9302818 33.5532681,32.5797613 33.2877197,33.386286 C28.0903671,32.5959498 21.5034386,39.896569 19.3785411,42.2507816 C17.4735627,44.3615074 14.2692806,48.3878792 10.2757898,59.0188804 C6.85511629,68.125509 5.45922384,75.1426398 3.56873017,84.890716 C1.42224439,95.9535188 0.752795405,102.985152 0.693866621,109.803304 C0.620450909,118.387306 0.564422509,122.91407 2.61044232,123.697516 C7.54580834,125.585101 20.0808454,103.930882 24.1699804,96.8673755 C26.788973,92.3426794 28.8595777,88.3191849 30.5178251,84.7894151 C31.1580637,104.452065 39.6239026,120.016984 49.9741046,120.016984 C60.2042498,120.016984 68.5943636,104.81106 69.4059123,85.4719722 C71.008064,88.8353214 72.9791809,92.6317446 75.4308467,96.8673755 C79.5199817,103.930882 92.0550188,125.585101 96.9903848,123.697516 C99.0364196,122.91407 98.9803826,118.387306 98.9069734,109.803304 C98.8480446,102.985152 98.1785784,95.9535188 96.0321012,84.890716 C94.1416033,75.1426398 92.745713,68.125509 89.3250588,59.0188804 C85.3315465,48.3878792 82.1272644,44.3615074 80.222286,42.2507816 C78.2841366,40.1034502 72.633687,33.8408651 67.7115135,33.3565255 C67.3385818,32.1830066 66.823452,31.0556837 66.1423122,29.9697102 C66.0466217,29.8172057 65.9487086,29.6690312 65.8486533,29.5250603 C69.1927639,18.195282 75.8291515,8.23589394 87.534939,3.28844466 C89.2467013,2.56491229 87.7715966,0.068718117 86.072387,0.786466854 C75.9448534,5.06672487 69.3690725,12.9955972 65.3685284,22.3550331 C65.4163978,22.1821482 65.4571117,22.0456136 65.4910324,21.9522681 C65.8994499,20.8282856 65.4043905,19.1843564 64.2554614,17.4624661 C64.1902213,16.0039651 63.577433,14.4813953 62.4303986,13.2342568 C60.8022199,11.4639986 58.5305581,10.7209095 56.581033,11.1224864 C55.9489901,10.8356886 55.2962407,10.5832415 54.6269944,10.372599 L60.9477033,3.54416637 C61.135286,3.34151564 61.123071,3.02516889 60.9204203,2.83758612 L60.2138401,2.86486909 L53.5423373,10.0722739 C52.3551366,9.78846216 51.1252106,9.64190716 49.8744119,9.67130382 C48.6429236,9.70027432 47.4446953,9.89853983 46.2953642,10.2285976 L39.479161,2.86486909 C39.2915783,2.66221836 38.9752315,2.65000336 38.7725808,2.83758612 L38.7452978,3.54416637 L45.2484716,10.5697208 C44.7412767,10.7546899 44.2451408,10.9644186 43.7615249,11.195403 C41.5721712,10.4548029 38.8591048,11.3533691 37.1382758,13.5744843 C36.004587,15.0377602 35.5341577,16.7747194 35.7065771,18.3428573 C34.9604886,19.5405336 34.4804176,20.6867391 34.3228736,21.645948 L34.3228736,21.645948 Z" transform="translate(14 2)"/>
</svg>
