<svg xmlns="http://www.w3.org/2000/svg" width="128" height="128" viewBox="0 0 128 128">
  <path d="M26.9508811,19.5363084 C21.1955494,14.0667004 13.7471476,9.5552591 3.3116087,7.184 C1.49541304,6.77066667 0.34976087,4.93133333 0.754108696,3.07477778 C1.15845652,1.21822222 2.95780435,0.0505555556 4.774,0.460444444 C16.4190014,3.10501896 24.7857609,8.1522211 31.2010917,14.1575301 C32.6287744,11.3872587 35.2472547,9.2117663 39.1058261,8.43502222 C60.9406087,4.04335556 67.5887609,12.7922444 78.3781087,8.72435556 C86.4647556,5.67546126 82.6055095,12.6533857 78.9757424,17.3383639 C88.0607464,19.8246436 97.0828351,24.6441648 104.965326,32.7018222 C125.1625,53.3478222 125.587065,87.0276 116.239891,105.403711 C116.239891,105.455378 116.256739,105.493267 116.25,105.551822 C115.933261,109.282156 118.551413,113.663489 114.892065,117.400711 C112.813043,119.529378 106.744457,116.9736 102.872826,117.724489 C102.862717,117.727933 102.852609,117.724489 102.84587,117.731378 C70.6934783,124.582378 52.2417391,118.110267 35.5219565,101.018933 C26.3910147,91.6850817 21.4790188,81.1715074 19.7791322,70.7975408 C17.8290894,73.4743364 16.1048313,75.7152212 15.0316304,77.4933778 C11.4767391,83.3833778 5.21271739,91.1884889 6.2,79.0261556 C7.18728261,66.8741556 -3.49423913,53.3168222 5.22619565,35.4470444 C12.3118124,20.9188978 23.1443343,19.5425936 26.9508811,19.5363084 L26.9508811,19.5363084 Z" transform="translate(2 3)"/>
</svg>
