<svg xmlns="http://www.w3.org/2000/svg" width="128" height="128" viewBox="0 0 128 128">
  <path d="M123.945652,52.3269783 C123.945652,54.6792065 114.033424,54.0389348 113.245924,55.7508913 C112.458424,57.4628478 124.229837,71.4461087 122.51788,74.582413 C120.805924,77.7221413 105.103859,70.5901304 104.114348,72.1582826 C103.128261,73.7264348 105.11413,84.1419783 103.402174,85.4259457 C101.690217,86.709913 85.4266304,68.5939891 83.1428804,70.7305109 C80.8625543,72.8704565 88.4225543,106.681598 86.86125,107.362957 C85.2999457,108.040891 75.1548913,102.685891 73.8743478,102.9735 C72.5938043,103.257685 64.6503261,123.944967 62.3152174,123.944967 C59.9801087,123.944967 52.0366304,103.257685 50.756087,102.9735 C49.4755435,102.685891 39.3304891,108.040891 37.7691848,107.362957 C36.2078804,106.681598 43.7678804,72.8704565 41.4875543,70.7305109 C39.2038043,68.5939891 22.9402174,86.709913 21.2282609,85.4259457 C19.5163043,84.1419783 21.5021739,73.7264348 20.516087,72.1582826 C19.5265761,70.5901304 3.82451087,77.7221413 2.11255435,74.582413 C0.400597826,71.4461087 12.1720109,57.4628478 11.3845109,55.7508913 C10.5970109,54.0389348 0.684782609,54.6792065 0.684782609,52.3269783 C0.684782609,49.97475 29.5757609,34.4027935 31.5,32.5675761 C33.4242391,30.7357826 21.5227174,22.9771957 23.2244022,21.5117609 C25.1965761,19.8135 36.3722283,24.3536087 58.8913043,24.7884457 L58.8913043,4.10801087 C58.8913043,2.21458696 60.4252174,0.684097826 62.3152174,0.684097826 C64.2086413,0.684097826 65.7391304,2.21458696 65.7391304,4.10801087 L65.7391304,24.7884457 C88.2582065,24.3536087 99.4338587,19.8135 101.406033,21.5117609 C103.104293,22.9771957 91.2027717,30.7357826 93.1304348,32.5675761 C95.0546739,34.4027935 123.945652,49.97475 123.945652,52.3269783" transform="matrix(1 0 0 -1 2 126.63)"/>
</svg>
