<svg xmlns="http://www.w3.org/2000/svg" width="128" height="128" viewBox="0 0 128 128">
  <path d="M79.0806448,115.323694 C106.956588,110.933314 123.16179,95.6463592 123.16179,75.5361368 C123.16179,75.5361368 121.977121,56.6323407 113.673556,37.7690697 C119.400041,34.0739331 123.162162,27.8417046 123.162162,20.7779487 C123.162162,9.43965452 113.469193,0.243760684 101.518018,0.243760684 C95.6617102,0.243760684 90.3476405,2.45186984 86.4506055,6.03815301 C79.592458,2.42247834 71.4652069,0.244113607 61.8367147,0.244113607 C52.2083333,0.244113607 44.0811585,2.42242823 37.2230656,6.03802639 C33.326038,2.45181862 28.0120237,0.243760684 22.1557838,0.243760684 C10.2046089,0.243760684 0.51163964,9.43965452 0.51163964,20.7779487 C0.51163964,27.8415855 4.27363371,34.0737229 9.99995558,37.7688828 C1.69631631,56.6322158 0.51163964,75.5361368 0.51163964,75.5361368 C0.51163964,95.6458469 16.7160162,110.932535 44.5906541,115.323359 C48.5440373,120.260332 54.7984088,123.448889 61.8357838,123.448889 C68.8729993,123.448889 75.1272469,120.260477 79.0806448,115.323694 L79.0806448,115.323694 Z" transform="translate(2 2)"/>
</svg>
