<svg xmlns="http://www.w3.org/2000/svg" width="128" height="128" viewBox="0 0 128 128">
  <path fill-rule="evenodd" d="M66.4245415,81.5150158 C64.7802277,83.127993 63.1594326,84.6998396 61.56018,86.2922298 C58.2451019,89.5935832 54.9594277,92.9223643 51.6208525,96.1982445 C50.9519692,96.8544021 50.1596939,97.445932 49.3204028,97.8543068 C47.5673772,98.7092771 45.7125023,98.2284133 44.5833422,96.6418865 C44.0593933,95.9054221 43.6549275,95.0416567 43.3758081,94.1778697 C39.9187489,83.4795797 36.481256,72.7754046 33.0839384,62.0585037 C32.7911159,61.1369513 32.3406116,60.6933093 31.4249443,60.3916701 C22.6784708,57.5124161 13.9447186,54.5949632 5.22370739,51.6402886 C4.0328318,51.2368 2.84685107,50.6971937 1.80777233,49.996952 C-0.29290863,48.5827874 -0.368317786,46.7014837 1.64128441,45.1854697 C2.71268133,44.376538 3.96623664,43.7438774 5.2246868,43.256173 C41.6433478,29.1282298 78.0698571,15.0208518 114.514,0.957557968 C115.902691,0.421860595 117.467676,0.141763923 118.958238,0.112381786 C121.493745,0.0604798599 123.226205,1.69009177 123.76972,4.16585709 C124.216316,6.2009338 123.721749,8.1507958 123.321192,10.1065429 C119.40188,29.24869 115.468843,48.3888827 111.541713,67.5290753 C109.49782,77.4879909 107.464719,87.4488392 105.400282,97.4028252 C105.221058,98.2646578 104.926281,99.1254914 104.544335,99.9187657 C102.749201,103.651991 99.195179,104.892816 95.453137,103.089865 C94.6010984,102.679514 93.789235,102.152633 93.0322053,101.581669 C84.3464504,95.0347944 75.6734214,88.468332 66.9964834,81.9087103 C66.7976708,81.7578907 66.5861324,81.625682 66.4245415,81.5150158" transform="translate(2 12)"/>
</svg>
