<svg xmlns="http://www.w3.org/2000/svg" width="128" height="128" viewBox="0 0 128 128">
  <path d="M57.3155919,50.8614818 C53.9796326,35.4590623 66.2564348,28.3692174 66.2564348,28.3692174 C57.0743696,21.9906304 51.3562174,31.1322609 51.3562174,31.1322609 C50.4228478,19.9891087 58.6681739,15.227913 58.6681739,15.227913 C47.8889348,15.6086739 42.1775217,24.7469348 42.1775217,24.7469348 C39.6436087,20.3698696 45.3651304,11.2282391 49.4861087,8.84595652 C38.7102391,9.22671739 37.1198043,15.9894348 37.1198043,15.9894348 C32.0553478,7.22519565 33.6525217,0.462478261 33.6525217,0.462478261 C29.8752391,2.64595652 27.6985,7.58236957 26.434913,12.2997609 L18.6242609,3.29965217 C17.8492609,6.82421739 19.149913,14.0013913 20.5516522,20.0194348 C10.261,13.9845435 0.664478261,19.5106304 0.664478261,19.5106304 C13.9742609,23.5103043 19.0286087,32.2711739 19.0286087,32.2711739 C19.0286087,32.2711739 5.72556522,28.2715 0.00741304348,37.4165 C8.75480435,37.1065 15.1704565,39.097913 19.739587,41.5576957 C15.8207826,42.5315 9.14230435,40.7624783 5.06513043,46.1773696 C5.06513043,46.1773696 15.841,45.7966087 18.0413261,49.7322609 C10.7226304,51.8011739 5.9985,57.3171522 5.9985,57.3171522 C18.527792,54.9994315 31.7218151,60.5536505 35.6034538,62.3799102 C29.1988382,71.4803337 28.4375642,84.2750122 34.6677717,95.0633587 L40.0220109,104.339772 C48.4021196,118.855859 66.2742935,124.230315 79.9378804,116.342163 C93.6014674,108.454011 97.8808152,90.2886848 89.497337,75.7692283 L84.1430978,66.4961848 C78.2816415,56.3405695 67.7763963,50.658949 57.3155919,50.8614818 L57.3155919,50.8614818 Z" transform="translate(17 4)"/>
</svg>
