<svg xmlns="http://www.w3.org/2000/svg" width="128" height="128" viewBox="0 0 128 128">
  <path d="M45.2182585,82.8548861 C57.750011,85.7416928 64.0112314,92.0029131 64.0112314,92.0029131 L62.2639327,65.5100185 L53.5186897,57.7950158 C53.4979249,57.426808 53.4709092,57.0572314 53.4374582,56.6863721 C49.9327389,17.8308015 32.2826181,0.180680619 32.2826181,0.180680619 C32.2826181,0.180680619 14.6071924,17.8561063 11.0468024,56.7167379 C11.0127393,57.0885271 10.9851439,57.4590183 10.9638308,57.828125 L2.21050362,65.5530367 L0.425247672,92.0484618 C0.425247672,92.0484618 6.69364731,85.777975 19.2283619,82.8733018 C20.3353582,84.2864492 21.4905246,85.5628665 22.6522527,86.6831598 C20.0776533,90.6884852 18.0112499,95.1547519 18.0083697,99.175509 C18.0007251,109.847357 32.147388,123.866756 32.147388,123.866756 C32.147388,123.866756 46.3336847,109.68046 46.3412761,99.0827959 C46.3441572,95.0608397 44.3600135,90.5788295 41.8966354,86.565243 C43.0236339,85.4686152 44.143474,84.2259273 45.2182585,82.8548861 L45.2182585,82.8548861 Z" transform="translate(32 2)"/>
</svg>
