<svg xmlns="http://www.w3.org/2000/svg" width="128" height="128" viewBox="0 0 128 128">
  <path d="M54.2861023,96.1167568 C63.9111111,111.503444 63.9111111,124 63.9111111,124 L88.6055556,95.8181818 L87.5774449,79.391961 C87.9241697,79.0037925 88.2660225,78.6080199 88.6027333,78.2045455 C123.880511,35.9318182 123.880511,0.704545455 123.880511,0.704545455 C123.880511,0.704545455 88.6027333,0.704545455 46.2694,35.9318182 C45.8643866,36.2688461 45.467123,36.6110332 45.0775102,36.9581079 L28.6333333,35.9318182 L0.411111111,60.5909091 C0.411111111,60.5909091 12.9240785,60.5888262 28.3315517,70.1989614 C28.0260334,72.7138958 27.9050331,75.1404531 27.9463822,77.4177574 C21.3800588,78.8455258 14.8608923,81.2404284 10.8455722,85.25 C0.188155556,95.8921591 0.315155556,124 0.315155556,124 C0.315155556,124 28.6291,124 39.2124333,113.431818 C43.2289509,109.421051 45.721654,102.968263 47.268658,96.5046871 C49.4876879,96.5349949 51.8453323,96.4124011 54.2861023,96.1167568 L54.2861023,96.1167568 Z" transform="translate(2 2)"/>
</svg>
