<svg xmlns="http://www.w3.org/2000/svg" width="128" height="128" viewBox="0 0 128 128">
  <path d="M54.0288513,13.717267 L61.0754414,3.26887491 C60.8295968,3.02303039 60.7066746,2.65426362 60.7066746,2.16257458 C60.7066746,1.1791965 61.6900526,0.195818422 62.6734307,0.195818422 C63.6568088,0.195818422 64.6401869,1.1791965 64.6401869,2.16257458 C64.6401869,2.65426362 64.5172646,3.02303039 64.1484978,3.39179717 L71.2779889,13.717267 L76.6865683,13.717267 C76.6865683,19.0334776 73.7676818,23.676099 69.447188,26.1278519 C72.9989005,26.3977957 72.9989005,27.2834066 72.9989005,30.1888498 C72.9989005,33.0781271 72.9989005,33.9699862 69.506144,34.2452843 C72.9989005,34.5205825 72.9989005,35.4124416 72.9989005,38.3017189 L72.9989005,45.5617042 L76.5636461,45.5617042 L76.5636461,34.7369734 C76.5636461,34.2452843 76.9324128,33.8765176 77.4241019,33.8765176 L123.151182,33.8765176 C123.519949,33.9994398 123.888716,34.3682066 123.888716,34.6140511 L123.888716,58.706814 C123.888716,59.1985031 123.519949,59.5672698 123.02826,59.5672698 L77.4241019,59.4443476 C76.9324128,59.4443476 76.5636461,59.0755808 76.5636461,58.5838918 L76.5636461,47.8215808 L72.9989005,47.8215808 L72.9989005,55.2649908 C72.9989005,58.2162885 72.9989005,59.0834956 69.2763576,59.3383151 C70.2946108,59.7330906 70.2946108,60.5319762 70.2946108,62.1486373 C70.4175331,65.2216938 70.4175331,65.2216938 62.4275862,65.344616 C54.5605616,65.344616 54.5605616,65.344616 54.5605616,62.1486373 C54.5605616,60.5319762 54.5605616,59.7330906 55.5788148,59.3383151 C51.8562719,59.0834956 51.8562719,58.2162885 51.8562719,55.2649908 L51.8562719,47.8046813 L48.2915263,47.8044116 L48.2915263,58.5838918 C48.2915263,59.0755808 47.9227596,59.4443476 47.4310705,59.4443476 L1.70398993,59.4443476 C1.21230089,59.4443476 0.843534114,59.0755808 0.843534114,58.5838918 L0.843534114,34.7369734 C0.966456374,34.3682066 1.33522315,33.9994398 1.70398993,33.8765176 L47.4310705,33.8765176 C47.9227596,33.8765176 48.2915263,34.2452843 48.2915263,34.7369734 L48.2915263,45.5445348 L51.8562719,45.5448045 L51.8562719,38.3017189 C51.8562719,35.4124416 51.8562719,34.5205825 55.3490284,34.2452843 C51.8562719,33.9699862 51.8562719,33.0781271 51.8562719,30.1888498 C51.8562719,27.2834066 51.8562719,26.3977957 55.4079844,26.1278519 C51.0874906,23.676099 48.1686041,19.0334776 48.1686041,13.717267 L54.0288513,13.717267 L54.0288513,13.717267 Z" transform="translate(2 31)"/>
</svg>
