<svg xmlns="http://www.w3.org/2000/svg" width="128" height="128" viewBox="0 0 128 128">
  <path d="M70.6957431,53.2137759 L76.8393443,59.357377 C79.2796506,61.7976834 79.9967084,62.5147412 77.129391,65.803458 C78.2977661,65.28793 78.9583316,65.9484956 80.295082,67.2852459 C82.9377049,69.7245902 82.9377049,69.7245902 76.4327869,76.4327869 C69.9278689,82.9377049 69.9278689,82.9377049 67.2852459,80.295082 C65.9484956,78.9583316 65.28793,78.2977661 65.803458,77.129391 C62.5147412,79.9967084 61.7976834,79.2796506 59.357377,76.8393443 L53.1820733,70.6640405 L50.2407578,73.617807 L59.1540984,82.5311475 C59.5606557,82.9377049 59.5606557,83.547541 59.1540984,83.9540984 L21.3442623,121.763934 C20.9377049,122.170492 20.3278689,122.170492 19.9213115,121.763934 L0.203278689,102.045902 C3.57214258e-14,101.639344 3.57214258e-14,101.029508 0.203278689,100.622951 L38.0131148,62.8131148 C38.4196721,62.4065574 39.0295082,62.4065574 39.4360656,62.8131148 L48.372159,71.7492082 L51.3191338,68.801101 L45.3311475,62.8131148 C42.9421234,60.4240906 42.2046819,59.6866491 44.8650654,56.5710001 C41.7494165,59.2313837 41.011975,58.4939422 38.6229508,56.104918 C36.2205597,53.7025269 35.4882847,52.9702519 38.2018438,49.8102819 C32.6021524,51.3554666 26.3498535,49.9301814 21.9540984,45.5344262 L26.799695,40.6888296 L23.9868852,26.2229508 C23.5803279,26.2229508 23.1737705,26.0196721 22.7672131,25.6131148 C21.9540984,24.8 21.9540984,23.1737705 22.7672131,22.3606557 C23.5803279,21.547541 25.2065574,21.547541 26.0196721,22.3606557 C26.4262295,22.7672131 26.6295082,23.1737705 26.6295082,23.7836066 L41.0622951,26.4262295 L45.5344262,21.9540984 C49.9301814,26.3498535 51.3554666,32.6021524 49.8102819,38.2018438 C52.9702519,35.4882847 53.7025269,36.2205597 56.104918,38.6229508 C58.4939422,41.011975 59.2313837,41.7494165 56.5710002,44.8650654 C59.6866491,42.2046819 60.4240906,42.9421234 62.8131148,45.3311475 L68.8111037,51.3291365 L71.763638,48.3865889 L62.8131148,39.4360656 C62.4065574,39.0295082 62.4065574,38.4196721 62.8131148,38.0131148 L100.622951,0.203278689 C101.029508,3.57422425e-14 101.639344,3.57422425e-14 101.842623,0.203278689 L121.763934,20.1245902 C122.170492,20.5311475 122.170492,21.1409836 121.763934,21.547541 L83.9540984,59.1540984 C83.547541,59.5606557 82.9377049,59.5606557 82.5311475,59.1540984 L73.6322367,50.2551875 L70.6957431,53.2137759 L70.6957431,53.2137759 Z" transform="translate(2 2)"/>
</svg>
