<svg xmlns="http://www.w3.org/2000/svg" width="128" height="128" viewBox="0 0 128 128">
  <path d="M45.4928972,87.7979795 C50.5560963,84.0951209 55.4788618,86.1581966 56.4315326,92.3779312 L60.5610383,119.335199 C61.5137092,125.554934 63.0698648,125.554934 64.0225357,119.335199 L68.1520414,92.3779312 C69.1047123,86.1581966 74.0274778,84.0951209 79.0906769,87.7979795 L102.42542,104.847908 C107.488619,108.546953 108.619679,107.414359 104.938042,102.323405 L87.968355,78.8821368 C84.282923,73.7911829 86.3324938,68.8451402 92.5229568,67.8879646 L119.357153,63.7389325 C125.547616,62.781757 125.547616,61.218243 119.357153,60.2610675 L92.5229568,56.1120354 C86.3324938,55.1548598 84.282923,50.2126305 87.968355,45.1254901 L104.938042,21.676595 C108.619679,16.5894546 107.488619,15.4530469 102.42542,19.1559055 L79.0906769,36.205834 C74.0274778,39.9048791 69.1047123,37.8456168 68.1520414,31.6296957 L64.0225357,4.66480095 C63.0698648,-1.55493365 61.5137092,-1.55493365 60.5610383,4.66480095 L56.4315326,31.6296957 C55.4788618,37.8456168 50.5560963,39.9048791 45.4928972,36.205834 L22.1619492,19.1559055 C17.0949547,15.4530469 16.1612613,16.4369166 20.0858099,21.3410115 L39.3859352,45.4572602 C43.3104838,50.3651685 41.4430971,55.0785909 35.2412475,55.9404302 L4.66089159,60.180985 C-1.54095793,61.0428244 -1.55613993,62.5453231 4.63052758,63.521566 L32.0644127,67.8536435 C38.2548758,68.8298864 40.3006511,73.7911829 36.6190146,78.8821368 L19.6493272,102.323405 C15.9638952,107.414359 17.0949547,108.546953 22.1619492,104.847908 L45.4928972,87.7979795 Z" transform="matrix(1 0 0 -1 2 126)"/>
</svg>
