<svg xmlns="http://www.w3.org/2000/svg" width="128" height="128" viewBox="0 0 128 128">
  <path fill-rule="evenodd" d="M88.3549244,16.2090672 C84.0902528,7.95441837 81.8173314,2.98190903 81.8173314,2.98190903 C80.3931625,0.0167054109 77.0589741,-0.893112252 74.3487755,0.962698794 C74.3487755,0.962698794 69.7117557,4.2296889 61.9811558,9.19529273 C54.1292678,4.16019518 49.6554693,0.976719576 49.6554693,0.976719576 C46.9395011,-0.879137627 43.5971004,3.13632967e-05 42.1779051,2.96231015 C42.1779051,2.96231015 39.7956232,8.11011647 35.5835292,16.2757555 C26.266046,15.8411771 20.799885,15.3211056 20.799885,15.3211056 C17.5198589,15.0718702 15.0648395,17.5044533 15.3169197,20.7794596 C15.3169197,20.7794596 15.8242995,26.3910526 16.2583832,35.5145753 C8.22134748,39.6589123 2.98157651,42.1335816 2.98157651,42.1335816 C0.0182526794,43.5809634 -0.887415286,46.9389262 0.96839575,49.6491248 C0.96839575,49.6491248 4.21118098,54.2517892 9.14577273,61.9307997 C4.25783741,69.5381328 0.957539157,74.30094 0.957539157,74.30094 C-0.885083628,77.0360714 0.00956630973,80.3969865 2.97184508,81.8161818 C2.97184508,81.8161818 8.08151169,84.1808135 16.1944987,88.3637357 C15.7650891,97.3958471 15.2883506,103.170708 15.2883506,103.170708 C15.0601582,106.460713 17.5154053,108.924026 20.7904116,108.671946 C20.7904116,108.671946 26.3980369,108.164925 35.5158507,107.730943 C39.6628491,115.772826 42.1392786,121.016324 42.1392786,121.016324 C43.5866604,123.979648 46.9495117,124.89152 49.6657406,123.043363 C49.6657406,123.043363 54.288642,119.813925 61.9820227,114.875102 C69.5650639,119.748304 74.310475,123.036548 74.310475,123.036548 C77.0456064,124.879171 80.4138573,123.98745 81.8421019,121.028784 C81.8421019,121.028784 84.2309331,115.920558 88.4241848,107.796722 C97.4278918,108.225517 103.18166,108.700515 103.18166,108.700515 C106.471665,108.928707 108.942795,106.472329 108.700359,103.195927 C108.700359,103.195927 108.211776,97.5399413 107.780253,88.3536603 C116.040036,84.0861309 121.015991,81.8116344 121.015991,81.8116344 C123.981195,80.3874655 124.897217,77.0483886 123.04906,74.3321597 C123.04906,74.3321597 119.795539,69.6747827 114.825584,61.9298491 C119.845181,54.1038678 123.017367,49.6459343 123.017367,49.6459343 C124.873225,46.9299661 123.996985,43.5802295 121.038319,42.151985 C121.038319,42.151985 115.891998,39.7453389 107.715424,35.5230071 C108.149533,26.2357098 108.66776,20.788933 108.66776,20.788933 C108.916995,17.5089069 106.483281,15.0460699 103.206879,15.2885066 C103.206879,15.2885066 97.5469166,15.7774325 88.3549244,16.2090672 L88.3549244,16.2090672 Z" transform="translate(2 2)"/>
</svg>
