<svg xmlns="http://www.w3.org/2000/svg" width="128" height="128" viewBox="0 0 128 128">
  <path d="M116.008197,33.0163934 C134.860656,56.5819672 112.319672,67.442623 96.1311475,67.2377049 C96.1311475,67.2377049 94.0819672,72.1557377 82.4016393,74.204918 C68.057377,76.8688525 72.5655738,87.9344262 62.7295082,96.3360656 C73.5901639,97.3606557 72.3606557,108.221311 63.9590164,112.319672 C64.9836066,114.163934 67.647541,113.344262 67.647541,113.344262 C60.0655738,125.02459 43.6721311,128.918033 39.3688525,115.598361 C37.3196721,109.040984 25.8442623,103.713115 27.0737705,97.9754098 C28.0983607,93.2622951 24,90.1885246 21.5409836,88.3442623 C9.86065574,79.942623 15.8032787,70.9262295 14.1639344,69.2868852 C4.12295082,59.0409836 7.60655738,49.8196721 4.12295082,44.4918033 C0.0245901639,38.1393443 -0.180327869,29.5327869 4.12295082,23.3852459 C4.12295082,23.3852459 -2.2295082,6.99180328 16.4180328,3.09836066 C80.557377,-10.0163934 147.360656,42.852459 116.008197,33.0163934 L116.008197,33.0163934 Z" transform="translate(1.5 2)"/>
</svg>
