<svg xmlns="http://www.w3.org/2000/svg" width="128" height="128" viewBox="0 0 128 128">
  <path d="M22.5578735,63.5276633 C14.7893661,62.3017706 7.39468303,60.6765987 0,58.2783231 C7.85310737,57.658341 15.2928933,56.0050552 22.93934,54.1451087 C24.8840416,53.6049138 26.8287432,53.0647189 28.7734448,52.4949966 L28.7258401,52.491823 C22.7326792,51.4585193 16.5328576,50.4252157 10.7463575,48.3586085 C16.7395183,47.1186442 22.5260185,45.052037 28.105858,42.7787691 C30.999108,41.5388048 33.6856974,40.2988405 36.5789475,38.8522154 C37.1205803,38.560567 37.6706128,38.2689186 38.2239648,37.9772701 C38.0931574,36.9120517 38.0255725,35.8243385 38.0255725,34.719001 C38.0255725,21.5934111 47.5556636,10.9530182 59.3116267,10.9530182 C60.9488428,10.9530182 62.5428875,11.1593913 64.0740313,11.5501095 C67.6012353,4.64918957 74.2351981,3.55271368e-15 81.8376452,3.55271368e-15 C91.0396223,3.55271368e-15 98.8227114,6.81134263 101.395102,16.1826038 C109.884381,16.9667736 116.556646,24.9662923 116.556646,34.719001 C116.556646,37.7912604 115.894523,40.6895417 114.722056,43.2430946 C120.329396,47.6519218 123.996432,54.9637897 123.996432,63.2381804 C123.996432,73.6582059 118.181017,82.5518026 109.998632,86.043576 C110.09874,87.0371189 110.150164,88.0472083 110.150164,89.0707704 C110.150164,103.794258 99.509771,115.730003 86.3841811,115.730003 C77.1246974,115.730003 69.1020059,109.790017 65.1792175,101.12171 C63.3219512,101.751717 61.3520257,102.090396 59.3116267,102.090396 C51.2482052,102.090396 44.2853941,96.8011091 41.0268251,89.1449793 C39.6294404,88.5863546 38.2075243,88.0268773 36.7856082,87.4174847 L28.105858,84.3175739 C22.5260185,82.4576274 16.7395183,80.8043416 10.7463575,79.5643773 C16.5328576,77.4977701 22.5260185,76.0511451 28.5191794,75.0178415 C29.4036673,74.8409439 30.2713307,74.6808708 31.1317705,74.5280214 C28.3965644,73.9335388 25.6145117,73.3390562 22.93934,72.7445735 C15.499554,71.5046092 7.64644665,70.4713056 3.67103184e-15,69.6446627 C7.51929116,67.2059737 15.0385823,65.1669739 22.5578735,63.5276633 L22.5578735,63.5276633 Z" transform="translate(2 6)"/>
</svg>
