<svg xmlns="http://www.w3.org/2000/svg" width="128" height="128" viewBox="0 0 128 128">
  <path fill-rule="evenodd" d="M54.4693498,31.5257601 C54.1948064,27.8408144 54.0319557,23.9264401 54.0319557,19.8250831 C54.0319557,-6.28650774 44.4689711,-0.395032618 29.7928156,7.98480159 C21.7919844,12.5531396 12.6641556,22.261832 6.92206095,33.0652543 C2.13126566,42.0788613 -4.76063633e-13,52.294981 -4.76063633e-13,56.7816254 C-4.76063633e-13,66.6458189 7.20244239,64.7026296 33.6326998,64.7026296 C40.5489454,64.7026296 47.7706888,64.6361996 53.0032888,64.5742231 C53.015156,64.6349759 53.027071,64.6955894 53.039033,64.7560613 C47.9778097,64.833639 40.7435549,64.9152608 32.7086804,64.9152608 C17.3975435,64.9152608 2.63829787,64.6188714 2.63829787,72.6763934 C2.63829787,80.7339155 8.81772229,100.137128 29.8612292,113.735765 C44.5984897,123.259209 53.8096253,116.90965 58.0068535,105.425168 C58.0920217,106.62177 58.1470279,107.514479 58.1703604,108.0279 C58.3421158,111.807303 67.3117029,113.198673 67.0275033,108.0279 C67.0255318,107.99203 67.0236956,107.955136 67.0219935,107.917231 C71.6026694,117.772551 80.5064526,122.545179 94.1387708,113.735765 C115.182278,100.137128 121.361702,80.7339155 121.361702,72.6763934 C121.361702,64.6188714 106.602456,64.9152608 91.2913196,64.9152608 C83.2087026,64.9152608 75.9362478,64.8326662 70.8709773,64.7546789 C70.8790027,64.6945363 70.887027,64.6339802 70.8950483,64.5730166 C76.1355266,64.6353343 83.4061521,64.7026296 90.3673002,64.7026296 C116.797558,64.7026296 124,66.6458189 124,56.7816254 C124,52.294981 121.868734,42.0788613 117.077939,33.0652543 C111.335844,22.261832 102.208016,12.5531396 94.2071844,7.98480159 C79.5310289,-0.395032618 69.9680443,-6.28650774 69.9680443,19.8250831 C69.9680443,24.3474477 69.7700441,28.6424717 69.4426285,32.6532496 C67.9957953,29.1713551 65.786267,26.8334126 62.5053009,26.6037217 L66.5930925,6.27158786 C66.7428326,6.30959226 66.8996714,6.32978723 67.0612245,6.32978723 C68.1094384,6.32978723 68.9591837,5.47960455 68.9591837,4.43085106 C68.9591837,3.38209758 68.1094384,2.53191489 67.0612245,2.53191489 C66.0130106,2.53191489 65.1632653,3.38209758 65.1632653,4.43085106 C65.1632653,5.2782867 65.7180895,5.9960695 66.4841281,6.24041291 C65.5650353,8.95441565 62.6205596,18.1886832 62.0842444,26.5859796 C62.045069,26.585398 62.0057473,26.5851064 61.9662788,26.5851064 C61.9493958,26.5851064 61.9325368,26.5851529 61.9157018,26.5852458 C61.3792689,18.1881452 58.434938,8.95433659 57.5158719,6.24041291 C58.2819105,5.9960695 58.8367347,5.2782867 58.8367347,4.43085106 C58.8367347,3.38209758 57.9869894,2.53191489 56.9387755,2.53191489 C55.8905616,2.53191489 55.0408163,3.38209758 55.0408163,4.43085106 C55.0408163,5.47960455 55.8905616,6.32978723 56.9387755,6.32978723 C57.1003286,6.32978723 57.2571674,6.30959226 57.4069075,6.27158786 L61.4934518,26.5975174 C58.3343057,26.7651295 56.0544311,28.6199963 54.4693498,31.5257601 L54.4693498,31.5257601 Z" transform="rotate(20 51.657 67.171)"/>
</svg>
