<svg xmlns="http://www.w3.org/2000/svg" width="128" height="128" viewBox="0 0 128 128">
  <path d="M19.5245279,8.81872816 C19.0227729,7.95938424 18.3212846,7.41304348 17.3405556,7.41304348 C13.8961111,7.41304348 13.4655556,0.673913043 19.2797778,0.673913043 C23.0251781,0.673913043 25.4297082,4.87365945 25.7434712,8.76149822 C36.0424248,9.33666598 49.0507306,13.317834 58.2161222,25.2751087 C62.1806778,30.4473913 65.5080111,36.5597826 71.9353444,58.3642391 C72.9721222,61.8753261 73.8022333,64.7226087 74.2982333,66.1681522 C76.4785667,72.5736957 80.4190111,80.8190217 86.7946778,83.7202174 C92.1335667,86.1496739 97.8513444,84.1346739 98.3094556,83.9661957 C106.080122,80.7280435 115.094233,84.1818478 118.535233,91.7633696 C121.97444,99.3358623 118.559732,108.188624 110.9113,111.670326 C110.777235,114.519191 109.731805,117.953265 107.669044,118.431457 C105.754496,118.871188 103.457318,116.642547 102.004387,114.324533 C99.2953075,114.84727 96.0805763,115.23913 92.5296778,115.23913 C92.3814018,115.23913 92.2325385,115.238447 92.0831002,115.237062 C91.4653651,118.14627 89.4960557,121.966831 87.1487667,121.977924 C84.4462551,121.987503 82.2076672,116.941322 81.9716273,114.03269 C79.5399365,113.461648 77.0430468,112.659822 74.5186778,111.569674 C73.8443661,111.278803 73.1789374,110.972611 72.522425,110.651137 C70.8060481,113.114625 67.3620174,115.981534 65.1608111,115.065935 C62.5395889,113.964087 62.6739222,107.902239 63.7968111,105.327891 C63.8257387,105.261658 63.8559372,105.196347 63.887367,105.131972 C56.1472871,98.8592324 50.0670823,89.8248165 45.7295384,78.1271376 C42.8653744,77.8918415 39.531806,76.7924771 39.0994556,74.8097391 C38.7219256,73.0396122 40.7566577,70.9987789 42.9964666,69.6248244 C42.7300552,68.7283256 42.4473422,67.7717394 42.1512333,66.7679348 C41.7029962,65.249155 41.0839131,63.3649863 40.3705417,61.3159627 C37.321303,61.4538655 32.6028745,60.3470511 32.0827778,57.961913 C31.6484751,55.9255954 34.4064945,53.5310324 36.9966593,52.2055856 C35.497388,48.3721894 34.0438783,44.9285885 33.0923444,43.0697826 C28.8901222,38.0996739 21.8565667,39.0431522 21.2985667,39.1307609 C12.9113444,40.7784783 4.74112222,35.4478261 3.05678889,27.2328261 C2.19372329,23.0078422 3.2163075,18.8426224 5.55593899,15.5701521 C5.05269565,14.1806708 4.24148036,13.2093696 2.93382222,13.2093696 C-0.510622222,13.2093696 -0.941177778,6.47023913 4.87304444,6.47023913 C7.50224435,6.47023913 9.47069382,8.53977902 10.5189882,11.1181859 C11.9418237,10.316451 13.5200747,9.72380983 15.2191222,9.39097826 C16.4971411,9.14015267 17.9448007,8.94066705 19.5245279,8.81872816 L19.5245279,8.81872816 Z" transform="translate(4 2)"/>
</svg>
