<svg xmlns="http://www.w3.org/2000/svg" width="128" height="128" viewBox="0 0 128 128">
  <path d="M31.3703283,63.0299004 C30.1168574,61.0237874 29.9433524,58.2713237 31,54.0435326 C32.8887483,46.4885396 35.6161247,35.5790336 31.6868632,27.6226647 C33.2123173,17.1630909 36.3442607,7.58072811 31,2.23646739 C24.2608696,-4.50266304 20.8913043,8.97559783 24.2608696,8.97559783 C28.5993727,8.97559783 30.6245464,14.5633502 28.408009,23.1948156 C27.2604637,22.1206129 25.8893745,21.1621329 24.2608696,20.3478804 C22.9720387,19.703465 21.5337981,19.4079288 20.0207819,19.3937986 C21.2294274,12.289137 21.8415734,6.13510603 17.9429348,2.23646739 C11.2038043,-4.50266304 7.83423913,8.97559783 11.2038043,8.97559783 C14.9684192,8.97559783 16.9912321,13.1828487 16.0123467,19.9352177 C8.46538644,21.927173 0.673913043,28.9791419 0.673913043,33.8261413 C0.673913043,40.5652717 4.04347826,40.5652717 10.7826087,43.934837 C17.5217391,47.3044022 7.41304348,70.8913587 10.7826087,84.3696196 C13.2356522,94.1750543 20.8913043,104.587011 37.7391304,104.587011 L115.23913,104.587011 C118.608696,104.587011 121.978261,104.587011 121.978261,101.217446 C121.978261,98.7422805 112.88741,94.4489452 104.05466,91.0085686 C109.857342,86.4333286 113.962808,79.9868276 115.75838,72.5289674 C120.917185,51.0884239 108.32512,29.2839674 87.6932717,23.9229891 C62.7854457,17.4433152 37.4227283,33.2533152 31.1957717,59.1517935 C30.8748771,60.4851231 30.96029,61.8248803 31.3703283,63.0299004 L31.3703283,63.0299004 Z" transform="translate(2 11)"/>
</svg>
