<svg xmlns="http://www.w3.org/2000/svg" width="128" height="128" viewBox="0 0 128 128">
  <path d="M9.70683201,52.7200219 C7.35409688,52.0691049 5.43232175,51.3320836 3.9437089,50.4729666 C2.86437968,49.8500577 1.9836703,49.148147 1.31695767,48.3236246 C0.475371684,47.2828366 -1.03483613e-13,46.0678611 -1.13686838e-13,44.7514912 C-1.26995392e-13,43.0274277 1.3976271,41.6297981 3.1216875,41.6297981 C4.74879487,41.6297981 6.08515077,42.8746554 6.2303059,44.463919 C6.38216601,44.6220289 6.65981732,44.8319652 7.06448213,45.0655077 C7.99686656,45.6036109 9.37457335,46.1366234 11.1438269,46.6385792 C13.6099637,38.5251378 18.0853936,31.2864494 23.9907116,25.5019203 C23.1133436,24.7630444 22.3357218,23.981025 21.6621583,23.1525185 C19.7221531,20.7662447 18.6846816,18.0316889 18.6846816,15.0334122 C18.6846816,13.3093487 20.0823087,11.9117191 21.8063691,11.9117191 C23.5304295,11.9117191 24.9280566,13.3093487 24.9280566,15.0334122 C24.9280566,17.3405081 26.1962557,19.4374554 28.8023659,21.3512606 C30.8169203,19.8247305 32.9508593,18.4475114 35.1877062,17.2360801 L35.1877153,17.2360751 C38.4448147,7.23098974 47.8476853,0 58.939441,0 C70.0311967,0 79.4340673,7.23098974 82.6911758,17.2360801 C84.4947621,18.2128662 86.2314447,19.2974362 87.8925866,20.4811529 C90.2873991,18.4867945 91.4651599,16.2833839 91.4651599,13.8223872 C91.4651599,12.0983237 92.862787,10.700694 94.5868474,10.700694 C96.3109078,10.700694 97.7085349,12.0983237 97.7085349,13.8223872 C97.7085349,17.9643121 95.9690418,21.5097223 92.8025221,24.4697298 C99.106856,30.2872187 103.909466,37.7079205 106.563122,46.0846051 C108.298559,45.5228603 109.647593,44.9277459 110.561002,44.3273418 C111.026943,44.0210681 111.331257,43.7448334 111.483112,43.5309385 C111.504655,43.5005937 111.518822,43.4778456 111.527485,43.4622252 C111.554235,41.7612548 112.941441,40.3906059 114.648779,40.3906059 C116.37284,40.3906059 117.770467,41.7882355 117.770467,43.512299 C117.770467,45.9911113 116.347862,47.9949178 113.990375,49.544547 C112.468046,50.5452075 110.493051,51.4018279 108.072444,52.1561337 C108.607134,55.084632 108.886441,58.1022907 108.886441,61.1851852 C108.886441,64.2791129 108.605131,67.307337 108.066693,70.2456751 C110.467473,70.9036882 112.4244,71.6498364 113.935173,72.5217424 C115.014502,73.1446513 115.895212,73.846562 116.561924,74.6710844 C117.40351,75.7118724 117.878882,76.9268479 117.878882,78.2432178 C117.878882,79.9672813 116.481255,81.3649109 114.757194,81.3649109 C113.130087,81.3649109 111.793731,80.1200536 111.648576,78.53079 C111.496716,78.3726801 111.219065,78.1627438 110.8144,77.9292013 C109.850915,77.3731493 108.411904,76.8225332 106.556706,76.3060051 C103.922067,84.6102955 99.1751939,91.9741974 92.9470277,97.7667688 C93.6951908,98.4243037 94.3661799,99.1153583 94.9570837,99.8421905 C96.8970888,102.228464 97.9345603,104.96302 97.9345603,107.961297 C97.9345603,109.68536 96.5369332,111.08299 94.8128728,111.08299 C93.0888124,111.08299 91.6911854,109.68536 91.6911854,107.961297 C91.6911854,105.715595 90.4895847,103.669007 88.02209,101.796624 C79.8311534,107.672757 69.7893033,111.132275 58.939441,111.132275 C48.6204204,111.132275 39.0322804,108.002997 31.0722143,102.641637 C28.7794156,104.602158 27.6514296,106.76389 27.6514296,109.172322 C27.6514296,110.896385 26.2538025,112.294015 24.5297421,112.294015 C22.8056817,112.294015 21.4080546,110.896385 21.4080546,109.172322 C21.4080546,105.146892 23.0510744,101.684894 26.0502779,98.7761269 C19.4120218,92.9634195 14.326907,85.420606 11.498709,76.8514633 C9.67493361,77.4303523 8.26313941,78.0460272 7.31788019,78.6673672 C6.85193877,78.9736409 6.54762536,79.2498756 6.39577044,79.4637705 C6.37422713,79.4941153 6.36006032,79.5168634 6.35139659,79.5324838 C6.32464719,81.2334542 4.93744069,82.6041031 3.23010257,82.6041031 C1.50604217,82.6041031 0.108415069,81.2064735 0.108415069,79.48241 C0.108415069,77.0035977 1.53101961,74.9997912 3.88850713,73.450162 C5.43411699,72.4341982 7.44634478,71.5667138 9.91780751,70.8040396 C9.31059153,67.691453 8.992441,64.4754732 8.992441,61.1851852 C8.992441,58.2997802 9.23710968,55.4715208 9.70683201,52.7200219 L9.70683201,52.7200219 Z" transform="rotate(20 53.984 77.513)"/>
</svg>
