<svg xmlns="http://www.w3.org/2000/svg" width="128" height="128" viewBox="0 0 128 128">
  <path d="M65.5153671,9.78920239 C65.8031977,9.78481189 66.0915589,9.7826087 66.3804348,9.7826087 C97.0872826,9.7826087 121.978261,34.6769565 121.978261,65.3804348 C121.978261,96.0872826 97.0872826,120.978261 66.3804348,120.978261 C35.673587,120.978261 10.7826087,96.0872826 10.7826087,65.3804348 C10.7826087,50.796758 16.3982695,37.5236809 25.5854759,27.6064018 C15.962845,22.0033945 3.64061697,19.8719269 3.48615217,19.8427826 C1.64973913,19.5361522 0.413108696,17.7974565 0.71973913,15.964413 C1.02636957,14.1313696 2.75495652,12.8947391 4.59473913,13.198 C5.15766679,13.2910459 13.9280108,14.7972255 22.9639606,18.749728 C23.657327,14.6012665 29.9420022,6.45820602 39.811413,2.22804348 C51.2578261,-2.67804348 71.4347826,3.04347826 71.4347826,3.04347826 C71.4347826,3.04347826 69.2085328,6.13843851 65.5153671,9.78920239 L65.5153671,9.78920239 Z M30.7977088,22.6591603 C30.665183,22.6545168 30.5337507,22.649267 30.40346,22.6434074 C30.4819727,22.6928463 30.560322,22.7425148 30.6385017,22.7924137 C30.6914945,22.7478922 30.744562,22.7034758 30.7977136,22.6591566 L30.7977088,22.6591603 Z" transform="translate(2 3)"/>
</svg>
