<svg xmlns="http://www.w3.org/2000/svg" width="128" height="128" viewBox="0 0 128 128">
  <path d="M93.8901762,19.2141544 C98.4684837,16.7165647 103.495489,13.7849783 103.495489,13.7849783 C103.495489,13.7849783 94.6673778,3.25508696 79.5979333,3.25508696 C64.5284889,3.25508696 62.3757111,16.7333478 62.3757111,16.7333478 C62.3757111,16.7333478 56.1343778,0.0944347826 35.0371556,0.0944347826 C17.3843778,0.0944347826 0.592711111,16.9422609 0.592711111,16.9422609 C0.592711111,16.9422609 7.37057611,20.540235 15.7517908,24.2241171 C7.18494969,30.7807535 0.377777778,42.0908601 0.377777778,60.248587 C0.377777778,117.045978 69.4113333,120.681739 69.4113333,120.681739 C69.4113333,120.681739 120.933333,99.285 120.933333,60.4305435 C120.933333,39.159386 109.553989,24.6208453 93.8901762,19.2141544 L93.8901762,19.2141544 Z" transform="translate(3 3)"/>
</svg>
