<svg xmlns="http://www.w3.org/2000/svg" width="128" height="128" viewBox="0 0 128 128">
  <path d="M12.9199273,23.1138691 C4.37865156,29.3267658 0.692023389,38.177946 0.690288462,50.4660652 C0.686923077,67.0645435 18.5402885,78.7030217 28.0407692,96.0124783 C34.3475,107.499326 53.02875,128.346826 66.7023077,117.085739 C78.3532692,113.197261 87.2883654,106.862478 87.2984615,85.5028043 C87.3051923,71.9874783 101.655192,56.9558478 101.651827,43.2113913 C101.649425,33.783294 93.7416056,19.9934936 76.389946,14.2136291 C79.3491803,13.9773916 80.8585267,13.2757954 78.9442308,11.71 C74.6432692,8.19217391 67.9057692,6.48717391 60.9394231,6.05923913 C61.8581731,5.93456522 62.7634615,5.80315217 63.7024038,5.7425 C66.9735577,5.52684783 75.8649038,1.58782609 68.4139423,2.07641304 C65.1528846,2.28869565 62.0163462,2.94913043 58.8663462,3.50173913 C59.6639423,2.98282609 60.4783654,2.47065217 61.3567308,2.0123913 C61.2692308,-0.326086957 47.8076923,-0.326086957 41.0129808,5.36173913 C39.2899038,4.98434783 37.7115385,3.04347826 27.6153846,3.04347826 C20.8846154,3.04347826 11.8485577,6.16369565 17.5192308,6.41304348 C20.6086538,6.54782609 24.25,6.41304348 23.7721154,7.63956522 C21.5677885,7.8451087 10.7884615,9.7826087 10.7884615,13.1521739 C10.7884615,14.3416304 20.0769231,12.5658696 20.8846154,13.1521739 C15.0894231,15.3188043 10.7884615,19.8913043 10.7884615,23.2608696 C10.7884615,23.749577 11.6632295,23.5763427 12.9199273,23.1138691 L12.9199273,23.1138691 Z" transform="translate(14 3)"/>
</svg>
