<svg xmlns="http://www.w3.org/2000/svg" width="128" height="128" viewBox="0 0 128 128">
  <path d="M93.2879608,76.9278594 C97.27927,80.0120532 100.908222,83.5965823 103.611111,87.4296818 C112.611111,100.212239 111.236111,107.228148 102.288194,114.827523 C100.243056,111.928091 96.3680556,110.406784 94.8506944,111.54508 C93.3263889,112.686955 93.5416667,116.957352 95.5798611,119.853205 C85.7986111,126.278489 78.9027778,125.462352 69.8958333,112.683375 C66.4513889,107.793716 63.84375,101.550989 62.1944444,95.2617273 C60.5451389,101.547409 57.9409722,107.793716 54.4930556,112.683375 C45.4861111,125.458773 38.5902778,126.278489 28.8125,119.853205 C30.8541667,116.957352 31.0590278,112.683375 29.5416667,111.548659 C28.0173611,110.406784 24.1458333,111.93525 22.1041667,114.831102 C13.1527778,107.228148 11.7743056,100.212239 20.78125,87.4296818 C24.2291667,82.5400227 29.1805556,78.0548523 34.4722222,74.4967841 C28.1631944,74.8261023 21.6006944,74.1961023 16.0208333,72.3311591 C1.45486111,67.4486591 -1.43402778,60.9410455 1.47222222,49.368375 C4.77430556,50.470875 8.77777778,49.3576364 9.35763889,47.5141705 C9.9375,45.6707045 7.33333333,42.3488864 4.03125,41.2392273 C8.28125,30.114 14.3263889,26.5953068 28.8993056,31.4778068 C32.8591848,32.8046735 36.8663388,34.9383908 40.6173896,37.5277503 C41.1474919,36.6627461 41.8664948,35.9015082 42.7590278,35.3150795 C42.9037388,35.2203189 43.0505606,35.1317642 43.1991992,35.0493478 C42.0430097,30.7151788 41.3611111,26.2913734 41.3611111,22.1423523 C41.3611111,6.34939773 46.4722222,1.50627273 58.0486111,0.779625 C58.0486111,4.35917045 60.3159722,7.93871591 62.1944444,7.93871591 C64.0729167,7.93871591 66.3368056,4.35917045 66.3368056,0.779625 C77.9131944,1.50627273 83.0277778,6.34939773 83.0277778,22.1423523 C83.0277778,28.1882045 81.5763889,34.8175227 79.3263889,40.90275 C84.2465278,36.8149091 89.9097222,33.34275 95.4895833,31.4742273 C110.0625,26.5988864 116.107639,30.114 120.354167,41.2356477 C117.048611,42.3453068 114.447917,45.6742841 115.03125,47.5105909 C115.611111,49.3612159 119.614583,50.4672955 122.920139,49.3647955 C125.822917,60.9410455 122.940972,67.4486591 108.368056,72.3311591 C104.247674,73.7083039 99.5914696,74.4120458 94.8971775,74.5533689 C94.5171424,75.4672849 93.9639655,76.269794 93.2879608,76.9278594 L93.2879608,76.9278594 Z" transform="translate(2 2)"/>
</svg>
