<svg xmlns="http://www.w3.org/2000/svg" width="128" height="128" viewBox="0 0 128 128">
  <path d="M14.4913024,22.4849886 C2.43826014,39.1669465 7.10206781,60.3862744 22.693,76.0155135 C39.7702674,93.1347398 78.8189008,116.895508 123.191714,76.7093929 C123.38362,76.5754688 123.524543,76.4620649 123.6125,76.3738919 C123.6125,76.3738919 123.579295,76.3892865 123.513329,76.4170871 C123.746304,76.2045927 123.979424,75.9903328 124.212688,75.7742973 C98.8920625,70.8913919 94.4370625,38.5959865 77.2255,21.3455811 C61.2089185,5.28643945 39.299003,0.795149722 22.4662764,14.1595571 L10.5840625,2.24814865 C8.435625,0.0909864865 4.7678125,0.26672973 2.619375,2.42389189 C0.4640625,4.58105405 0.2921875,8.25098649 2.4440625,10.4081486 L14.4913024,22.4849886 L14.4913024,22.4849886 Z" transform="translate(1.5 15)"/>
</svg>
