<svg xmlns="http://www.w3.org/2000/svg" width="128" height="128" viewBox="0 0 128 128">
  <path d="M41.4027287,76.0108696 C39.5662825,93.3266455 31.5,106.971469 31.5,113.673913 C31.5,121.237337 37.6322283,123.945652 45.1956522,123.945652 L79.4347826,123.945652 C86.9982065,123.945652 93.1304348,121.237337 93.1304348,113.673913 C93.1304348,106.971469 85.0641523,93.3266455 83.227706,76.0108696 L110.25,76.0108696 C117.813424,76.0108696 123.945652,69.8786413 123.945652,62.3152174 C123.945652,28.076087 96.352337,0.684782609 62.3152174,0.684782609 C28.2780978,0.684782609 0.684782609,28.076087 0.684782609,62.3152174 C0.684782609,69.8786413 6.81701087,76.0108696 14.3804348,76.0108696 L41.4027287,76.0108696 L41.4027287,76.0108696 Z" transform="translate(2 2)"/>
</svg>
