<svg xmlns="http://www.w3.org/2000/svg" width="128" height="128" viewBox="0 0 128 128">
  <path fill-rule="evenodd" d="M64.8898517,6.91618514 C67.1538773,8.54018611 69.6714059,10.6024892 72.4142589,13.2213552 C73.5589562,12.8366966 74.9385126,12.8690211 76.4532028,13.9118501 C76.4532028,13.9118501 78.5326839,18.1064092 79.2267383,20.4004556 C80.9511471,22.3862833 82.643407,24.4706586 84.2810404,26.6414804 C85.2178152,25.7552026 87.4388165,25.1718975 88.9695357,27.5114259 C88.9695357,27.5114259 90.1037553,33.6782819 89.5072736,33.5822359 C89.3990697,33.5656494 89.1529479,33.3922527 88.8208948,33.1131181 C90.6109832,35.8658735 92.2943278,38.7235049 93.8336446,41.66594 C94.7092869,41.2575414 95.9879641,41.701155 97.2171817,43.1405237 C97.2171817,43.1405237 97.022174,45.671638 96.8079958,47.884984 C97.6984229,49.9389123 98.5118485,52.0250014 99.2368876,54.1371223 C100.019421,53.8552829 100.888427,54.0958588 101.511214,55.5695801 C101.511214,55.5695801 102.2952,62.2017375 101.579426,62.0894054 C101.554539,62.0854997 101.526434,62.0761039 101.495357,62.0615651 C101.822274,63.5084483 102.103527,64.9635655 102.335726,66.4250923 C103.620776,66.8138417 104.746473,67.5996805 105.459081,68.9705005 C105.459081,68.9705005 104.299945,71.3132089 103.062111,73.5367229 C103.094843,74.2783 103.113842,75.0207509 103.118677,75.7638448 C103.12977,77.4406987 103.095416,79.0990868 103.005208,80.7348174 C104.000085,80.9101412 104.893782,81.3629829 105.597572,82.1907944 C105.597572,82.1907944 103.900243,85.1617298 102.250455,87.5701735 C101.981452,89.1253784 101.642461,90.6522341 101.223224,92.1466093 C101.750901,91.683873 102.401006,91.5845002 103.200975,92.0831999 C103.200975,92.0831999 104.286779,93.3595273 99.0041621,100.323285 C99.0041621,100.323285 99.0622408,99.0631939 99.2913519,97.5092954 C98.6205107,99.0032551 97.8451371,100.454932 96.9529827,101.859392 C98.0183569,101.495446 98.9582619,101.490639 99.617813,102.075814 C99.617813,102.075814 93.7599167,110.71079 92.9260486,110.588602 C92.5070233,110.528881 91.2151074,110.125283 90.0322251,109.738092 C88.7905009,110.787485 87.439496,111.792724 85.9708952,112.750458 C84.1148585,114.836295 81.4287977,117.717143 80.7458681,117.723771 C80.3619581,117.727394 79.3001181,117.391578 78.0958875,116.921289 C75.6845522,117.95691 73.0537226,118.903891 70.1853095,119.754945 C68.0801171,121.015254 65.9106415,122.258761 65.447393,122.320681 C65.1130216,122.364931 63.7627247,122.113904 62.1416704,121.754745 C59.6637414,122.264879 57.0426107,122.717201 54.2705905,123.108617 L54.273081,123.369059 C53.9241203,123.328964 53.5799056,123.28828 53.2309449,123.248185 C52.8847923,123.294902 52.5398319,123.345126 52.1910012,123.386876 L52.1899918,123.124971 C51.9369647,123.094057 51.6851773,123.062614 51.4346238,123.030646 C50.2429733,123.274009 49.2210467,123.450676 48.9242848,123.411655 C48.5736416,123.365707 47.2354141,122.814045 45.7991427,122.188703 C42.6584031,121.646295 39.7361967,121.010804 37.0181948,120.288319 C35.4951539,120.600722 34.1647359,120.815459 33.6667724,120.739194 C32.985805,120.634314 30.8385977,119.138111 28.7734815,117.597424 C14.3810359,111.891078 7.45690034,103.0024 4.42626275,92.4502586 C2.68574153,90.3096842 0.134487869,84.6032481 0.329393088,84.0070137 C0.415211589,83.7453393 1.31762002,83.21773 2.70970894,83.1466616 C2.5023897,81.0356292 2.39447766,78.8820437 2.36309606,76.6956252 C2.36091741,76.5418765 2.35934539,76.3881441 2.35837625,76.2344303 C1.71937868,74.2101875 1.48988528,71.8979566 1.54632153,71.2733428 C1.56911682,71.0219481 1.94673811,70.6618548 2.61322972,70.3056465 C2.759603,68.7009879 2.96706432,67.1013657 3.23127578,65.509222 C3.13855943,65.5555634 3.0546866,65.5806405 2.98122501,65.5814505 C1.79154897,65.5910469 2.42846383,58.0844928 2.89375446,57.0236851 C3.15008246,56.4427082 4.12460927,56.279578 5.26221542,56.7334228 C5.79844959,54.9196123 6.40085683,53.1221265 7.06256539,51.3448339 C6.85938212,49.7983742 7.98521875,44.0280449 7.98521875,44.0280449 C7.98521875,44.0280449 9.35628782,42.5126661 10.8907895,42.5288417 C12.2880786,39.7125329 13.8165642,36.9697518 15.4448935,34.318149 C15.3960753,34.3565245 15.3636577,34.3801532 15.3498436,34.387075 C15.1135789,34.5067922 16.546821,28.5161649 16.546821,28.5161649 C16.546821,28.5161649 18.7102881,26.6212861 20.1734181,27.2377632 C21.6041492,25.2597505 23.0804414,23.3507092 24.586167,21.5197186 C24.5715335,21.5214319 24.5568932,21.5231249 24.5422461,21.5247975 L26.8546855,15.0565163 C26.8546855,15.0565163 28.9863938,14.0523128 31.091041,14.2679306 C33.8164543,11.5027877 36.3305194,9.30916147 38.6023732,7.56895409 L35.8160969,8.24716797 C35.8160969,8.24716797 39.3353385,2.65174856 42.3126765,2.74175438 C43.3480071,2.77289389 44.0556324,3.16243017 44.5382381,3.65698334 C48.0348081,1.74576266 50.4675039,1.15500269 51.598062,0.972987983 L51.5934933,0.898453274 C51.5934933,0.898453274 51.7228499,0.900701765 51.9578564,0.922753557 C52.1892256,0.896285177 52.3179767,0.890934148 52.3179767,0.890934148 L52.3172078,0.967226401 C53.3741972,1.11688485 55.5693952,1.60073947 58.7259589,3.16097672 C59.4914519,2.98813184 60.322921,3.00714433 61.1149793,3.38812057 C62.7901169,4.1947802 64.1345993,5.83319248 64.8898517,6.91618514 L64.8898517,6.91618514 Z" transform="translate(11 2)"/>
</svg>
