<svg xmlns="http://www.w3.org/2000/svg" width="128" height="128" viewBox="0 0 128 128">
  <path d="M6.81544797,86.7185724 C7.18050156,88.6077926 7.93508208,91.153794 9.32555411,93.9808771 C5.77259001,96.5772608 4.01465159,98.5433489 3.83296739,98.7497111 C2.61318478,100.147933 2.75807609,102.272156 4.15981522,103.492239 C4.79666304,104.046822 5.58851087,104.319072 6.37361957,104.319072 C7.30698913,104.319072 8.23698913,103.932544 8.90416304,103.179656 C8.9390553,103.13905 10.2269023,101.724093 12.9003175,99.7333057 C19.7246777,108.661257 33.4403712,117.913422 60.3270978,117.913422 C87.2073277,117.913422 100.995096,108.701741 107.883262,99.8067754 C110.489902,101.758821 111.746571,103.139551 111.781033,103.179656 C112.448207,103.932544 113.378207,104.319072 114.311576,104.319072 C115.096685,104.319072 115.888533,104.046822 116.52538,103.492239 C117.92712,102.272156 118.072011,100.147933 116.852228,98.7497111 C116.67287,98.5459906 114.957355,96.6273094 111.495207,94.0802782 C112.924067,91.2251193 113.696816,88.6560696 114.066105,86.7618579 C115.394765,87.0566693 116.16243,87.2663039 116.202576,87.2775667 C117.998554,87.7649278 119.851815,86.7229833 120.347141,84.9348722 C120.842467,83.1467611 119.797902,81.29815 118.005293,80.7973444 C117.783441,80.7362973 116.451056,80.3712004 114.307863,79.9228706 C113.911221,59.934743 110.869565,54.1222222 110.869565,54.1222222 C114.481739,33.6732222 115.121957,3.54422222 110.869565,0.801555556 C106.617174,-1.93775 76.9313043,8.25313889 70.7245652,21.8521944 C67.3381522,20.9547778 60.326087,20.5111111 60.326087,20.5111111 C60.326087,20.5111111 53.5397826,20.9547778 50.1567391,21.8521944 C43.95,8.25313889 14.0316304,-1.93775 9.7826087,0.801555556 C5.53021739,3.54422222 6.16369565,33.6732222 9.7826087,54.1222222 C9.7826087,54.1222222 6.93033171,59.9448633 6.5630256,79.8842411 C4.31118732,80.3500881 2.90809367,80.734553 2.67990217,80.7973444 C0.887293478,81.29815 -0.157271739,83.1467611 0.338054348,84.9348722 C0.833380435,86.7229833 2.6866413,87.7649278 4.48261957,87.2775667 C4.52470417,87.2657601 5.36625614,87.0359636 6.81544797,86.7185724 L6.81544797,86.7185724 Z" transform="translate(3 5)"/>
</svg>
