<svg xmlns="http://www.w3.org/2000/svg" width="128" height="128" viewBox="0 0 128 128">
  <path d="M14.1521739,68.959081 L14.1521739,59.1849199 C7.69537756,61.5254081 0.673913043,62.6956522 0.673913043,62.6956522 C0.673913043,39.3922956 8.6325385,30.0165336 12.3185585,26.9238468 C4.72670655,18.7371433 1.46548198,4.57042511 4.04347826,2.04347826 C9.85240609,-3.64597113 15.4595968,9.87764246 25.1756357,14.228526 C31.1797955,8.75233656 39.1664206,5.41304348 47.9320652,5.41304348 L74.7234783,5.41304348 C83.6421671,5.41304348 91.7536259,8.86995958 97.7910039,14.5173092 C107.932314,10.5181657 113.66744,-3.77851337 119.608783,2.04347826 C122.249474,4.62931881 118.771543,19.4038125 110.796247,27.4862835 C114.64867,30.9621196 121.962087,40.5024282 121.962087,62.8412174 C121.962087,62.8412174 114.952342,61.6729266 108.5,59.336345 L108.5,68.9603357 C114.738002,75.0761335 118.608696,83.5977299 118.608696,93.0217391 C118.608696,111.628478 103.519783,119.978261 84.9130435,119.978261 L37.7391304,119.978261 C19.1290217,119.978261 4.04347826,111.628478 4.04347826,93.0217391 C4.04347826,83.5970855 7.91383703,75.074968 14.1521739,68.959081 L14.1521739,68.959081 Z" transform="translate(2 4)"/>
</svg>
