<svg xmlns="http://www.w3.org/2000/svg" width="128" height="128" viewBox="0 0 128 128">
  <path d="M58.0883262,10.3626562 C59.8317584,11.0506769 61.4811126,11.8528816 63.0294291,12.7627011 C67.3326192,5.28275787 80.4845979,0.673913043 81.8913043,0.673913043 C83.576087,0.673913043 78.5217391,24.1328261 78.5217391,34.3695652 C78.5217391,35.463806 78.4594054,36.4396165 78.3423805,37.3098125 C78.4613281,38.5472984 78.5217391,39.8141825 78.5217391,41.1086957 C78.5217391,52.956087 76.2405435,62.7413043 71.7826087,74.8043478 C63.6316304,96.8480435 71.7826087,121.978261 41.4565217,121.978261 C41.3927341,121.978261 41.3291166,121.97815 41.2656689,121.977928 C41.2022355,121.977706 41.138961,121.977373 41.0758557,121.976929 L41.0787439,121.976927 C40.9281828,121.975867 40.7772196,121.974174 40.6258797,121.971849 C29.9015537,121.804614 24.1544476,118.377211 20.7850475,113.028899 C14.9343405,103.741963 16.2528163,88.663165 11.1304348,74.8043478 C6.6725,62.7413043 4.39130435,52.956087 4.39130435,41.1086957 C4.39130435,39.8141825 4.45171535,38.5472984 4.57066301,37.3098125 C4.45363809,36.4396165 4.39130435,35.463806 4.39130435,34.3695652 C4.39130435,24.1328261 -0.663043478,0.673913043 1.02173913,0.673913043 C2.42844558,0.673913043 15.5804243,5.28275787 19.8836144,12.7627011 C22.2311451,11.3832484 24.8109426,10.2511819 27.5987488,9.38939743 C27.6099361,8.81029187 27.7301635,8.1573355 27.9782609,7.41304348 C29.743913,2.11608696 35.8731522,0.673913043 41.4565217,0.673913043 C50.4631769,0.673913043 55.5192635,5.50627643 58.0883262,10.3626562 L58.0883262,10.3626562 Z" transform="translate(23 2)"/>
</svg>
