<svg xmlns="http://www.w3.org/2000/svg" width="128" height="128" viewBox="0 0 128 128">
  <path d="M115.89415,42.187 C119.755761,50.8150357 121.983095,60.2437857 121.983095,69.8353929 C121.983095,103.730036 94.9888853,112.32075 61.3295224,112.32075 C27.6667899,112.32075 0.675950364,103.730036 0.675950364,69.8353929 C0.675950364,60.2064643 2.91676289,50.7403929 6.81207007,42.0818214 C5.55182363,40.8434286 4.41625398,39.4421786 3.47949325,37.8441429 C-2.19498538,28.1643214 2.57305931,2.92485714 5.47432184,1.20128571 C7.81285401,-0.189785714 24.0275756,4.74003571 33.1963739,11.7802143 C41.5968937,6.73164286 51.1464616,3.74932143 61.3295224,3.74932143 C71.5429101,3.74932143 81.1295441,6.74860714 89.5502817,11.8277143 C98.7022318,4.76378571 114.991086,-0.193178571 117.336357,1.20128571 C120.23762,2.92485714 125.009034,28.1643214 119.331186,37.8441429 C118.364098,39.4896786 117.198202,40.92825 115.89415,42.187 Z" transform="translate(2 8)"/>
</svg>
