<svg xmlns="http://www.w3.org/2000/svg" width="128" height="128" viewBox="0 0 128 128">
  <path d="M38.6929404,99.6437641 C38.3582194,97.434282 37.7217089,95.2592421 37.4780197,93.0221906 C37.0744719,89.4384716 33.2526367,88.085677 30.8076117,85.9022191 C23.1402032,79.0433132 15.7339139,71.9945414 9.94181584,63.9489735 C6.09624254,58.6327281 3.55626512,52.8655512 1.94207386,46.7898422 C0.47031124,41.2125311 0.185453959,35.5877536 0.968811482,29.9629761 C1.89459765,23.4126023 5.40783745,17.6928919 10.6776971,12.7801115 C17.6329624,6.30093746 26.3211095,2.4324196 36.7184003,0.913492346 C41.98826,0.154028717 47.2343816,-0.0833036668 52.4330269,0.510027293 C67.0557007,2.17135398 78.6398968,7.8673312 86.1648766,18.5472885 C90.034188,24.0059333 91.5296888,29.9392429 91.3397839,36.2522843 C91.1498791,42.6365255 90.0104499,48.9021004 87.0906628,54.7642103 C84.7168521,59.510858 81.8682793,64.1863059 78.4025157,68.4108224 C72.5629415,75.5307939 65.9637478,82.2473003 58.2013869,88.0382105 C55.4002903,90.1267355 54.3558136,92.4763261 53.7386228,95.2293817 C53.4062893,96.6771093 53.2875988,98.1248368 53.121432,99.5962976 C53.1199213,99.6121566 53.1184888,99.6279795 53.1171385,99.6437642 L55.8275762,99.6437641 C57.3942912,99.6437641 58.676149,100.925359 58.676149,102.491753 L58.676149,120.885012 C58.676149,122.451406 57.3942912,123.733001 55.8275762,123.733001 L36.2436381,123.733001 C34.6769231,123.733001 33.3950653,122.451406 33.3950653,120.885012 L33.3950653,102.491753 C33.3950653,100.925359 34.6769231,99.6437641 36.2436381,99.6437641 L38.6929404,99.6437641 L38.6929404,99.6437641 Z" transform="translate(18 2)"/>
</svg>
