<svg xmlns="http://www.w3.org/2000/svg" width="128" height="128" viewBox="0 0 128 128">
  <path d="M67.3157745,97.776558 C70.1726768,90.5013068 72.3043983,77.72556 73.0446743,62.5538524 L115.297176,77.9431981 C119.248014,79.3820623 125.504945,74.0084624 122.930862,71.949656 L122.928562,71.956557 L112.52125,63.6300402 L112.523777,54.6953391 L108.032812,54.6940688 L108.0313,60.0377923 L93.805534,48.6562665 L93.8078062,40.6229411 L89.3168406,40.6216708 L89.3155841,45.0640186 L72.574715,31.6702494 C71.6983104,21.0226268 70.1098228,11.9850062 68.0860987,5.83551514 L68.0768973,5.8332148 C65.6212818,-1.62104474 58.0750086,-1.6267956 55.6170927,5.83436497 C53.5958805,11.9822188 52.0102522,21.0197306 51.1329709,31.6653713 L34.3831361,45.0656689 L34.3837645,40.6222243 L29.8927989,40.6215892 L29.8916622,48.6589633 L15.6666739,60.039319 L15.6666739,54.7100612 L11.1757083,54.7100612 L11.1757083,63.6322067 L0.773479442,71.9542567 C-1.79600302,74.0084624 4.46322865,79.3774616 8.40716569,77.9408978 L50.6576347,62.5547732 C51.3972847,77.7264752 53.5250496,90.5030756 56.3816016,97.7781662 L40.4129796,110.551702 C39.5089451,111.274009 41.7046219,113.15684 43.0882778,112.654215 L59.5906843,106.646165 C60.0609491,111.980545 60.9032734,115.555299 61.8648227,115.553796 C62.8162587,115.551543 63.6559111,111.983 64.1238597,106.653521 L80.6034118,112.655365 C81.9928186,113.16144 84.1884955,111.274009 83.2844609,110.551702 L67.3157745,97.776558 L67.3157745,97.776558 Z" transform="translate(2 6)"/>
</svg>
