<svg xmlns="http://www.w3.org/2000/svg" width="128" height="128" viewBox="0 0 128 128">
  <path fill-rule="evenodd" d="M124.033368,62.1937742 C124.033368,82.7446429 111.722442,100.420141 94.0731008,108.247758 L97.8555367,118.838579 L103.639166,118.838579 C103.656292,118.838579 103.673377,118.838749 103.690421,118.839088 C108.082444,118.824363 112.189693,117.074786 115.229639,114.022819 C116.210946,113.037632 117.805104,113.034486 118.790291,114.015793 C119.775479,114.9971 119.778624,116.591259 118.797318,117.576446 C114.808948,121.580587 109.400316,123.874714 103.634518,123.874714 C103.615925,123.874714 103.597379,123.874513 103.578883,123.874112 L96.1398372,123.874112 C96.1007177,123.875029 96.0616761,123.875024 96.0227413,123.874112 L45.7843653,123.874112 C45.7454305,123.875024 45.7063889,123.875029 45.6672694,123.874112 L33.1324073,123.874112 C31.7444506,123.874112 30.6192893,122.756564 30.6192893,121.356345 C30.6192893,119.965821 31.7456504,118.838579 33.1324073,118.838579 L43.9515699,118.838579 L48.5860879,105.861928 C44.7400769,103.647219 41.2141904,100.939023 38.0948929,97.8238041 C28.9656885,88.7090447 23.3177665,76.10851 23.3177665,62.1888325 C23.3177665,61.9908112 23.3189095,61.7930568 23.3211893,61.5955757 C23.3011987,57.821767 23.066967,53.7324136 21.6407304,50.1459218 L16.4537851,37.1025483 C15.4298744,37.3714971 14.3550133,37.5147208 13.2467005,37.5147208 C6.29408031,37.5147208 0.65786802,31.8785085 0.65786802,24.9258883 C0.65786802,17.9732681 6.29408031,12.3370558 13.2467005,12.3370558 C19.623116,12.3370558 24.892279,17.0777676 25.7218564,23.2268582 L37.2174054,23.2268582 C40.0175555,23.2268582 42.8593762,22.1453506 45.2632629,20.607286 C45.4633469,20.4703188 45.6644697,20.3347582 45.8666171,20.2006184 C48.0065707,18.7070122 50.2880079,17.4047235 52.683854,16.3008749 C54.4199258,15.501007 55.6878624,14.1291078 56.2292641,11.963501 L57.6780074,6.1685279 L3.50026047,6.16852792 C1.79139806,6.16852792 0.406091371,4.78418985 0.406091371,3.08426396 C0.406091371,1.38087201 1.77714583,0 3.50026047,0 L120.682481,0 C122.391343,0 123.77665,1.38433807 123.77665,3.08426396 C123.77665,4.78765591 122.405595,6.16852792 120.682481,6.16852792 L67.0082869,6.16852792 L67.9401034,9.89579522 C68.2608681,11.1788545 69.0872824,12.0066687 70.555184,11.9284559 C70.8217493,11.9121721 71.088875,11.8979621 71.3565452,11.8858419 C71.8561612,11.8620871 72.2433946,11.8501999 72.6211333,11.8442725 C72.9709232,11.8371042 73.3215892,11.8335025 73.6730964,11.8335025 C87.4017146,11.8335025 99.8471541,17.3274436 108.930776,26.2366867 C118.251002,35.375566 124.033368,48.1093982 124.033368,62.1937742 L124.033368,62.1937742 Z M89.371668,110.055462 C84.43301,111.67383 79.1577397,112.549104 73.6780381,112.549104 C66.3507479,112.549104 59.3889853,110.984094 53.1087808,108.170104 L49.2986113,118.838579 L92.5084953,118.838579 L89.371668,110.055462 L89.371668,110.055462 Z" transform="translate(4 2)"/>
</svg>
