<svg xmlns="http://www.w3.org/2000/svg" width="128" height="128" viewBox="0 0 128 128">
  <path d="M117.738774,59.5266839 C117.738774,66.6490333 116.471735,73.4710219 114.148254,79.7855043 C112.560139,61.1803947 102.641327,51.6240868 92.2771516,56.0742605 C82.5654847,60.244788 89.1112794,76.5022496 89.5946187,84.259845 C90.4093906,97.4101256 89.5531896,112.462692 65.6658722,124.977726 C75.5915895,105.989398 66.8155292,94.1959195 57.6079161,93.474363 C47.3956477,92.6803056 38.0464852,102.250423 41.4989086,117.786328 C30.3199617,109.548846 29.9919815,95.6839139 33.4409524,86.714518 C37.0383776,77.3653555 33.2994031,69.5974029 24.5233428,68.734297 C14.7219129,67.7676185 9.27398877,79.2331165 14.2972648,97.5033411 C5.60406272,87.2669057 0.356379187,74.0096 0.356379187,59.5266839 C0.356379187,27.1118808 26.6327735,0.835486458 59.0475766,0.835486458 C91.4623797,0.835486458 117.738774,27.1118808 117.738774,59.5266839" transform="matrix(1 0 0 -1 5 126.813)"/>
</svg>
