<svg xmlns="http://www.w3.org/2000/svg" width="128" height="128" viewBox="0 0 128 128">
  <path fill-rule="evenodd" d="M102.45869,23.6495669 L102.460984,23.606022 C102.460984,10.5689786 92.0646848,0 79.2425311,0 C70.5310226,0 62.9506106,4.88403136 58.978389,12.1008273 C55.4298507,9.58610709 51.1249537,8.09935849 46.4705563,8.09935849 C35.973307,8.09935849 27.2105588,15.6100827 25.0722585,25.6316392 C23.9197484,25.4380197 22.7450598,25.312828 21.5390157,25.312828 C9.64299988,25.312828 0,35.1174374 0,47.2128216 C0,59.3089833 9.64299988,69.1135927 21.5390157,69.1135927 C25.7781423,69.1135927 29.7182435,67.8500119 33.0511163,65.7015357 C36.0299001,69.5327127 40.6315283,72 45.8074997,72 C50.5704946,72 54.8432712,69.9043999 57.8174664,66.5856535 C61.2298754,69.9316154 65.863624,72 70.9791785,72 C77.5806834,72 83.3898853,68.5669482 86.7892932,63.3648833 C90.7401011,66.9316802 95.9229555,69.1135927 101.619736,69.1135927 C113.980733,69.1135927 124,58.9256323 124,46.3598073 C124,34.0801348 114.42583,24.1005681 102.45869,23.6495669" transform="translate(2 28)"/>
</svg>
