<svg xmlns="http://www.w3.org/2000/svg" width="128" height="128" viewBox="0 0 128 128">
  <path d="M53.9578812,67.9612949 L53.9578812,95.0184444 L37.3281034,111.648222 C37.3281034,111.648222 34.8928812,114.083444 37.3281034,116.518667 C39.7633256,118.953889 42.1985478,116.518667 42.1985478,116.518667 L53.9578812,104.759333 L53.9578812,120.555556 C53.9578812,120.555556 53.9578812,124 57.4023256,124 C60.8467701,124 60.8467701,120.555556 60.8467701,120.555556 L60.8467701,104.759333 L72.6061034,116.518667 C72.6061034,116.518667 75.0413256,118.953889 77.4765478,116.518667 C79.9117701,114.083444 77.4765478,111.648222 77.4765478,111.648222 L60.8467701,95.0184444 L60.8467701,67.9622916 L84.2807034,81.4914222 L90.3635923,104.210978 C90.3635923,104.210978 91.2557034,107.538311 94.5830367,106.6462 C97.9103701,105.750644 97.018259,102.426756 97.018259,102.426756 L92.7127034,86.3618667 L106.394037,94.2599778 C106.394037,94.2599778 109.38037,95.9822 111.102592,93.0027556 C112.824815,90.0164222 109.838481,88.2942 109.838481,88.2942 L96.1605923,80.3960889 L112.222037,76.0939778 C112.222037,76.0939778 115.54937,75.2018667 114.657259,71.8745333 C113.765148,68.5472 110.437815,69.4393111 110.437815,69.4393111 L87.7251478,75.5256444 L64.2909133,61.9963399 L87.724459,48.4688444 L110.437126,54.5586222 C110.437126,54.5586222 113.764459,55.4472889 114.65657,52.1234 C115.545237,48.7926222 112.221348,47.9039556 112.221348,47.9039556 L96.156459,43.5984 L109.837792,35.7037333 C109.837792,35.7037333 112.824126,33.9780667 111.101903,30.9951778 C109.376237,28.0088444 106.393348,29.7345111 106.393348,29.7345111 L92.715459,37.6326222 L97.0175701,21.5677333 C97.0175701,21.5677333 97.9096812,18.2438444 94.5823478,17.3517333 C91.2550145,16.4596222 90.3629034,19.7869556 90.3629034,19.7869556 L84.2765701,42.5030667 L60.8467701,56.0312221 L60.8467701,28.985 L77.4765478,12.3517778 C77.4765478,12.3517778 79.9117701,9.91655556 77.4765478,7.47788889 C75.0413256,5.04266667 72.6061034,7.47788889 72.6061034,7.47788889 L60.8467701,19.2406667 L60.8467701,3.44444444 C60.8467701,3.44444444 60.8467701,0 57.4023256,0 C53.9578812,0 53.9578812,3.44444444 53.9578812,3.44444444 L53.9578812,19.2406667 L42.1985478,7.47788889 C42.1985478,7.47788889 39.7633256,5.04266667 37.3281034,7.47788889 C34.8928812,9.91655556 37.3281034,12.3517778 37.3281034,12.3517778 L53.9578812,28.985 L53.9578812,56.0307626 L30.5335923,42.5072 L24.447259,19.7910889 C24.447259,19.7910889 23.5551478,16.4637556 20.2278145,17.3558667 C16.8970367,18.2479778 17.7925923,21.5718667 17.7925923,21.5718667 L22.0947034,37.6367556 L8.41681451,29.7386444 C8.41681451,29.7386444 5.43392562,28.0164222 3.7117034,30.9993111 C1.98948117,33.9822 4.97237006,35.7044222 4.97237006,35.7044222 L18.650259,43.6025333 L2.58881451,47.9046444 C2.58881451,47.9046444 -0.741963271,48.7967556 0.153592284,52.1240889 C1.0457034,55.4514222 4.36959228,54.5593111 4.36959228,54.5593111 L27.0891478,48.4729778 L50.5143506,61.997068 L27.0850145,75.5249556 L4.3689034,69.4351778 C4.3689034,69.4351778 1.04501451,68.5430667 0.152903395,71.8704 C-0.74265216,75.2011778 2.58812562,76.0898444 2.58812562,76.0898444 L18.6461256,80.3919556 L4.96823673,88.2900667 C4.96823673,88.2900667 1.98879228,90.0157333 3.71101451,92.9986222 C5.43323673,95.9780667 8.41268117,94.2558444 8.41268117,94.2558444 L22.0940145,86.3577333 L17.788459,102.419178 C17.788459,102.419178 16.8963478,105.749956 20.2236812,106.638622 C23.554459,107.534178 24.4465701,104.206844 24.4465701,104.206844 L30.5329034,81.4838444 L53.9578812,67.9612949 L53.9578812,67.9612949 Z" transform="translate(7 2)"/>
</svg>
