<svg xmlns="http://www.w3.org/2000/svg" width="128" height="128" viewBox="0 0 128 128">
  <path d="M30.2,58.2 C33.8,53.6 39.4,50.6 45.6,50.6 C51.0083896,50.6 55.7026514,52.7423837 59.2,56.1822769 L59.2,73.8 L57.2,73.8 L57.2,85 C57.2,89.2 53.8,92.6 49.6,92.6 C45.4,92.6 42,89.2 42,85 C42,83 40.4,81.2 38.2,81.2 C36.2,81.2 34.4,82.8 34.4,85 C34.4,93.2 41.2,100 49.4,100 C57.6,100 64.4,93.2 64.4,85 L64.4,73.8 L63,73.8 L63,55.9882282 C66.4754197,52.6620003 71.0940431,50.6 76.4,50.6 C82.8,50.6 88.2,53.6 91.8,58.2 C95.4,53.6 100.8,50.6 107.2,50.6 C112.6,50.6 117.6,52.8 121.2,56.4 C115.141126,30.2100276 91.5103681,10.3230135 63.0000069,9.43123761 L63,1.8 C62.8,0.8 62,0 61,0 C60,-3.55271368e-15 59.2,0.8 59.2,1.8 L59.2,9.42529561 C30.6002007,10.230077 6.8730367,30.1488091 0.8,56.4 C4.4,52.8 9.4,50.6 14.8,50.6 C21.2,50.6 26.6,53.6 30.2,58.2 L30.2,58.2 Z" transform="translate(3 14)"/>
</svg>
