<svg xmlns="http://www.w3.org/2000/svg" width="128" height="128" viewBox="0 0 128 128">
  <path d="M108.597302,59.4495811 C101.417826,65.7769724 85.6627674,70.6252333 73.6843953,72.5974072 C85.6627674,74.573005 101.417826,79.4212659 108.597302,85.7452333 C115.505791,91.8261028 118.761081,95.835505 115.94143,101.909527 C113.996488,106.086701 106.148116,106.477027 101.651081,110.438494 C97.1506163,114.403385 96.6978256,121.316266 91.953814,123.021375 C85.0624767,125.507135 80.5105581,122.634472 73.6157907,116.557027 C66.4328837,110.233059 60.9307907,96.3593637 58.6839884,85.8068637 C56.4440465,96.3593637 50.9385233,110.236483 43.7590465,116.557027 C36.8471279,122.637896 32.2986395,125.507135 25.4038721,123.021375 C20.6598605,121.309418 20.2173605,114.399962 15.7203256,110.438494 C11.2198605,106.473603 3.36119767,106.076429 1.42654651,101.899255 C-1.39653488,95.8286572 1.86904651,91.8226789 8.76724419,85.7452333 C15.9501512,79.4212659 31.7086395,74.573005 43.6904419,72.5974072 C31.7086395,70.6252333 15.9501512,65.7735485 8.76724419,59.4495811 C1.86218605,53.3721355 -1.39653488,49.3661572 1.42997674,43.2852876 C3.37148837,39.1149615 11.2198605,38.7177876 15.7203256,34.7597441 C20.2173605,30.7948528 20.6735814,23.8785485 25.4141628,22.1734398 C32.3089302,19.6876789 36.8608488,22.5706137 43.7590465,28.6412115 C49.4257907,33.6298528 54.0394535,43.3229507 56.8419535,52.3792007 C55.9432326,36.8483311 58.6531163,16.1165376 70.0586395,3.54735284 C74.6654419,-1.53373411 78.3152093,1.66077676 79.7387558,2.9070811 C81.1657326,4.16023328 85.2408488,7.74849415 80.3733488,12.5727876 C66.9611395,25.8644181 62.3131744,39.6799072 61.0714302,50.711755 C63.9082326,42.1588202 68.2955,33.3285485 73.6157907,28.6412115 C80.5139884,22.5637659 85.0693372,19.6876789 91.9675349,22.1734398 C96.7081163,23.8853963 97.1540465,30.8017007 101.651081,34.7597441 C106.151547,38.7246355 114.006779,39.1218094 115.94143,43.2989833 C118.761081,49.373005 115.49893,53.3789833 108.597302,59.4495811" transform="matrix(1 0 0 -1 6 126.682)"/>
</svg>
