<svg xmlns="http://www.w3.org/2000/svg" width="128" height="128" viewBox="0 0 128 128">
  <path d="M97.6026958,19.6445328 L91.100186,26.148882 L85.1047826,20.1517826 L71.4227159,33.8377198 C64.6410995,30.1628746 56.8737022,28.076087 48.6195652,28.076087 C22.1458696,28.076087 0.684782609,49.5371739 0.684782609,76.0108696 C0.684782609,102.481141 22.1458696,123.945652 48.6195652,123.945652 C75.089837,123.945652 96.5543478,102.481141 96.5543478,76.0108696 C96.5543478,67.7548895 94.4668351,59.9864063 90.7909919,53.2042908 L104.470435,39.522913 L98.4830051,33.5337896 L104.987479,27.028396 C106.607706,27.7033764 108.385359,28.076087 110.25,28.076087 C117.813424,28.076087 123.945652,21.9438587 123.945652,14.3804348 C123.945652,6.81701087 117.813424,0.684782609 110.25,0.684782609 C102.686576,0.684782609 96.5543478,6.81701087 96.5543478,14.3804348 C96.5543478,16.2456802 96.9273002,18.0238827 97.6026958,19.6445328 L97.6026958,19.6445328 Z" transform="translate(2 2)"/>
</svg>
