<svg xmlns="http://www.w3.org/2000/svg" width="128" height="128" viewBox="0 0 128 128">
  <path fill-rule="evenodd" d="M61.326087,100.657895 L34.3695652,30.1973684 L88.2826087,30.1973684 L61.326087,100.657895 Z M34.3695652,30.1973684 L61.326087,100.657895 L0.673913043,30.1973684 L34.3695652,30.1973684 Z M44.4782609,-3.55271368e-15 L34.3695652,30.1973684 L0.673913043,30.1973684 L24.2608696,0 L44.4782609,-3.55271368e-15 Z M121.978261,30.1973684 L88.2826087,30.1973684 L78.173913,3.55271368e-15 L98.3913043,0 L121.978261,30.1973684 Z M88.2826087,30.1973684 L121.978261,30.1973684 L61.326087,100.657895 L88.2826087,30.1973684 Z M44.4782609,3.55271368e-15 L78.173913,-3.55271368e-15 L88.2826087,30.1973684 L34.3695652,30.1973684 L44.4782609,3.55271368e-15 Z" transform="translate(2 13)"/>
</svg>
