<svg xmlns="http://www.w3.org/2000/svg" width="128" height="128" viewBox="0 0 128 128">
  <path d="M93.61127,21.3536524 C109.007247,29.5200236 117.545079,51.0268561 117.545079,73.0157145 C117.545079,124.681221 86.524588,124.677777 58.9508182,124.677777 C31.3770484,124.677777 0.356557368,124.677777 0.356557368,73.0157145 C0.356557368,38.7189935 21.0368847,17.9095149 38.2704909,17.9095149 L49.1833911,17.9095149 L51.6189528,3.32014853 C51.8602233,1.87361079 53.2595921,0.688827496 54.7244487,0.688827496 L63.1758091,0.688827496 C64.6406656,0.688827496 66.0434812,1.87361079 66.2813049,3.32014853 L66.8475274,6.71190292 C70.3535899,5.15976267 74.5813406,4.13296497 79.6311456,4.13296497 C96.8647517,4.13296497 103.758194,21.3536524 103.758194,21.3536524 L93.61127,21.3536524 L93.61127,21.3536524 Z" transform="translate(5 1)"/>
</svg>
