<svg xmlns="http://www.w3.org/2000/svg" width="128" height="128" viewBox="0 0 128 128">
  <path d="M29.2392118,12.2036205 C28.3033289,9.61355625 27.7341853,6.56185187 27.9133728,3.04922535 C27.995363,1.45451514 26.7675592,0.0873278648 25.1666997,0.00738737912 C23.56789,-0.0746028625 22.2048022,1.15320101 22.122812,2.75201072 C21.9144603,6.8465745 22.5215369,10.4398709 23.5589514,13.5330261 C19.2947465,15.0940051 16.5761721,17.8105157 16.5761721,22.0676818 C16.5761721,27.913586 21.7169603,34.9278512 28.9403006,37.8139077 C27.5046846,38.3768523 26.2315714,39.1642053 25.1824606,40.2099398 C21.3066118,39.0641765 14.1945177,35.8586929 10.3389695,27.275087 C9.6850973,25.82181 7.96740173,25.1617885 6.50797543,25.82181 C5.04854913,26.4777319 4.39467695,28.1933777 5.05059889,29.652804 C6.67810518,33.2685737 8.76680659,36.1197843 11.0133392,38.366317 C14.8811715,42.2341492 19.2102786,44.3082708 22.4198032,45.4028401 C22.2472712,46.1671167 22.1325037,46.9891582 22.0806757,47.8718235 L2.89835504,47.8706258 C1.29544582,47.8706258 -5.7088196e-15,49.1660716 0,50.7689808 C0,51.5683857 0.323861455,52.2939993 0.848599001,52.8187369 C1.37333655,53.3434744 2.09895019,53.6673359 2.89835504,53.6673359 L22.5436244,53.6685625 C22.7601329,54.7338636 23.0443115,55.7998996 23.3893621,56.8471134 C18.1077599,57.4515176 9.27496247,60.07221 3.15047504,70.276919 C2.45150823,71.4432302 2.66468285,72.898557 3.58297356,73.8168477 C3.7490038,73.9828779 3.9355316,74.1284106 4.14460672,74.2554955 C5.51589351,75.0774477 7.29713151,74.6326506 8.11908368,73.2613638 C13.941851,63.5601183 22.7231032,62.5103673 25.9658317,62.4734318 C26.5507962,63.4333846 27.1896965,64.3304317 27.8744274,65.1412553 C19.0194813,67.8469332 13.8438473,75.5191701 13.8417976,87.6557756 C13.8438473,103.026896 27.5280187,124 35.7270428,124 C43.926067,124 57.6143378,103.026896 57.6122881,87.6557756 C57.6102383,75.5232696 52.4346043,67.8469332 43.5796582,65.1412553 C44.2651884,64.3302843 44.9047031,63.4326547 45.4901141,62.4718116 C48.734359,62.5055496 57.5126372,63.5496353 63.3364368,73.2615688 C64.1542895,74.6287561 65.9416767,75.0756029 67.3109138,74.2557005 C68.6842503,73.4316985 69.1290474,71.6504605 68.3050455,70.277124 C62.184717,60.0811942 53.3464295,57.4567886 48.0640517,56.8488597 C48.408946,55.8016883 48.6930326,54.7356098 48.9095552,53.6702087 L68.5561406,53.6714354 C70.157,53.6734851 71.4565454,52.3739398 71.4544956,50.7730803 C71.4544956,49.1701711 70.1590498,47.8747253 68.5561406,47.8747253 L49.3728586,47.8735275 C49.3206497,46.9904922 49.2056671,46.1681634 49.0330333,45.4036498 C54.1070073,43.6744002 61.9792469,39.4972834 66.4008221,29.6542389 C67.0546943,28.1927628 66.4049216,26.4812165 64.9434455,25.8232448 C63.4819695,25.1652731 61.7683734,25.8170956 61.1104017,27.2785716 C57.2588821,35.8570235 50.1465359,39.0631388 46.2712601,40.2094207 C45.2231152,39.1638345 43.9510559,38.3760779 42.5158348,37.811858 C49.7350756,34.929901 54.8758638,27.9115363 54.8758638,22.065632 C54.8758638,17.813186 52.1567707,15.0967707 47.8921754,13.5349509 C48.9303121,10.4413907 49.5379647,6.84755189 49.3296339,2.75242067 C49.2476436,1.14951145 47.8825061,-0.0762426674 46.2857462,0.00369781825 C44.6869364,0.0856880599 43.4570828,1.44672607 43.5370233,3.04758554 C43.7163207,6.56126201 43.14726,9.61374802 42.2114161,12.2043242 C40.1857737,11.9320751 38.0017824,11.8066031 35.7249931,11.8066031 C33.4483528,11.8066031 31.2645933,11.9317738 29.2392118,12.2036205 L29.2392118,12.2036205 Z" transform="translate(28 2)"/>
</svg>
