<svg xmlns="http://www.w3.org/2000/svg" width="128" height="128" viewBox="0 0 128 128">
  <path fill-rule="evenodd" d="M67.4244069,8.52265325 C66.6586122,9.12971317 66.0347285,9.90501914 65.5623683,10.7734276 C69.5094015,12.7068744 72.2221965,17.2725831 72.2221965,22.5087038 C72.2221965,23.2468794 72.1682806,23.9717308 72.0645915,24.677761 C72.1746878,24.6631934 72.2895293,24.6484959 72.4122831,24.6331427 C73.0235726,24.5567634 73.2763447,24.5214644 73.7675179,24.438566 C74.2787199,24.352332 74.6791252,24.2729371 75.0744612,24.1823379 C75.218487,24.1493316 75.3640394,24.1144052 75.5402912,24.0708104 C75.5908996,24.0582927 76.159167,23.9159055 76.352138,23.8687054 C76.7125199,23.780557 77.0524112,23.7015625 77.4271627,23.6200376 C78.6424516,23.3540499 79.1193062,23.2810145 83.2536778,22.7298291 C84.178855,22.6066119 84.8790858,22.5085323 85.4745991,22.4201947 C85.6989341,22.3869172 85.8985268,22.3565405 86.1361774,22.3197378 C86.4198292,22.2756389 86.5664699,22.2528595 86.6930557,22.2334987 C87.3767223,22.1305698 87.8797547,22.0630975 88.6302714,21.9726619 C90.4136857,21.7584752 91.4348941,21.6631514 94.645388,21.3967621 C97.3862752,21.1697866 98.2725219,21.1005366 99.4729968,21.0263766 C100.157418,20.984096 100.831258,20.9494784 101.563817,20.9191701 C102.262025,20.8901307 103.142429,20.872358 104.686803,20.8539608 C105.361787,20.8459201 105.890559,20.8404483 107.641268,20.8229694 C108.034339,20.8186261 108.775663,20.823733 109.62042,20.8429367 C110.887537,20.8717418 112.234369,20.927586 113.614501,21.016848 C114.10723,21.0492781 114.528281,21.0888091 115.078488,21.1673253 C115.875984,21.2811306 116.698816,21.4495304 117.543934,21.6865631 C119.345706,22.1915727 120.454807,22.7767214 121.337427,23.574783 C121.77169,23.9684827 122.096499,24.3035382 122.461572,24.791494 C122.999068,25.5099101 123.416577,26.3292654 123.672551,27.2643225 C124.164018,29.0624058 123.993005,30.3963102 123.404129,32.3198279 C122.882168,34.0228245 122.287235,34.9741292 120.78615,36.8754001 C120.45988,37.2880353 120.095351,37.7195318 119.594021,38.2602816 C118.852574,39.0600305 118.01006,39.8752562 117.062724,40.6833643 C115.904523,41.6714799 114.507307,42.7131336 112.690568,43.7985688 C111.966969,44.2306076 111.283772,44.6014369 110.565733,44.9552666 C110.208077,45.1315095 109.840546,45.3042433 109.435982,45.4872051 C108.981909,45.6925568 108.621117,45.8499758 107.729348,46.2347388 C106.336294,46.8351125 104.758406,47.454997 102.805203,48.1107035 C101.649428,48.4987266 100.534388,48.8376731 99.4788328,49.1307885 C98.7685731,49.3280194 98.2204706,49.4683846 97.699123,49.5941899 C95.9535847,50.0144599 94.7849674,50.2631696 93.419419,50.4632143 C94.0926357,50.7558233 94.5213017,50.945672 95.0164237,51.1691681 C95.1371634,51.2236695 95.2562875,51.2777602 95.3745759,51.3317999 C95.8761296,51.5609329 96.3703755,51.7926807 96.9030066,52.0486169 C97.6597864,52.4116545 98.3498705,52.7653539 101.461842,54.3773872 C101.777879,54.5418202 102.304234,54.8256937 102.920112,55.1699684 C103.855137,55.6926457 104.83871,56.2660675 105.831242,56.8748906 C106.712433,57.4133963 107.55455,58.0183442 108.523413,58.912399 C109.676241,59.9751133 110.290552,60.8122783 110.681947,61.7114985 C110.878199,62.1633334 111.01135,62.5253053 111.129913,63.0139943 C111.305754,63.738768 111.367813,64.4950759 111.280351,65.2851458 C111.106599,66.8475936 110.559895,67.8355086 109.531067,69.0883736 C108.593231,70.2303472 107.825998,70.7489998 106.092674,71.6329604 C105.71386,71.8254724 105.305379,72.0149296 104.758252,72.2350775 C103.950113,72.5602488 103.061803,72.8562593 102.099785,73.1034359 C100.924894,73.4067218 99.5450535,73.6562757 97.8416944,73.7697172 C96.4161261,73.8639385 95.5590011,73.8349276 93.3784153,73.6723643 C92.1496416,73.5800287 90.7891505,73.4308509 89.1316251,73.1597986 C88.1522008,72.9994116 87.217711,72.8176621 86.3420152,72.6245758 C85.7507973,72.4942154 85.2895484,72.3824381 84.8727245,72.2748367 C83.1015006,71.8168168 82.0841406,71.5127649 80.6439073,70.9571955 C80.3504399,70.8441517 80.0674633,70.7303286 79.7899993,70.6138938 C79.2897876,70.4039853 78.8095677,70.1866453 78.2936649,69.9388098 C77.8428603,69.7222468 77.4999207,69.5504528 76.6516377,69.1199903 C75.7577876,68.6664016 74.9133584,68.2107099 74.1257973,67.7637942 C73.5898348,67.4596526 73.1778337,67.2161386 72.7772478,66.972819 C71.7795339,66.3658028 70.648739,65.6309088 69.3331355,64.6913086 C68.3691159,64.0035719 67.623807,63.4490989 66.7601397,62.7517102 C66.5660582,63.1500712 66.3627063,63.5278148 66.150374,63.8834482 C67.3904717,65.2869634 68.1447966,67.2139755 68.1447966,69.311641 C68.1447966,71.4742124 67.3430688,73.4554065 66.0338733,74.8686025 C67.6297437,76.1137944 68.6496851,78.1765221 68.6496851,80.4643548 C68.6496851,81.9247771 68.2340774,83.2934732 67.5183554,84.4163439 C68.8191864,85.2257155 69.84154,86.5745887 70.2950545,88.2598624 C70.7854172,90.0813165 70.5304584,91.9809277 69.7017401,93.5180289 C71.4521058,94.4379251 72.6204532,96.4088163 72.6204532,98.6257145 C72.6204532,99.6525289 72.3698052,100.626567 71.9267704,101.46784 C73.2039944,102.370394 74.4579218,103.819485 75.5381022,105.565398 C77.899201,109.380436 78.7317428,113.462943 76.5719091,115.267436 C74.0849948,117.347484 70.7127346,114.90914 68.2467339,110.923304 C66.7618251,108.523222 65.8816653,106.018427 65.9702225,104.040701 C63.827171,103.329111 62.3304356,101.134836 62.3304356,98.6257145 C62.3304356,97.8299341 62.4809882,97.0658231 62.7549635,96.3706379 C60.9747781,95.7133484 59.5164158,94.1314509 58.9488726,92.022443 C58.4341867,90.1098545 58.7407836,88.1116741 59.6701627,86.5373084 C57.6731545,85.3933528 56.3446108,83.0754611 56.3446108,80.4643548 C56.3446108,78.7873552 56.892626,77.2313047 57.8137841,76.0295296 C55.704327,74.6939224 54.3133737,72.1601216 54.3133737,69.311641 C54.3133737,67.4499216 54.9075488,65.7226243 55.9081566,64.3764191 C55.7707827,64.168517 55.6368297,63.9517851 55.5063674,63.7265829 C55.1769935,63.968418 54.8345201,64.2142571 54.4596822,64.4797198 C53.1226421,65.4263114 51.9549054,66.181068 50.9748186,66.773823 C49.9345987,67.4055663 48.6467445,68.1346194 47.0555362,68.9427493 C45.1378077,69.9178415 44.3484837,70.2909413 43.0253882,70.8058803 C41.5690639,71.373555 40.528305,71.6910878 38.7589703,72.1599536 C38.3304232,72.2734549 37.8745496,72.3874233 37.2801424,72.5233384 C36.3967637,72.7253285 35.4547877,72.9166614 34.4684833,73.0871903 C32.7931731,73.3776543 31.3773904,73.5479871 30.1900645,73.6478723 C28.9949694,73.7507008 28.5207971,73.7864912 27.8920011,73.8127981 C27.1554075,73.843615 26.458702,73.8410136 25.7010333,73.8007433 C23.9904071,73.7109376 22.6050487,73.4826875 21.426496,73.1989615 C20.4571866,72.9661687 19.5652011,72.685116 18.7544252,72.3744417 C18.2039903,72.1635253 17.7898867,71.9796942 17.4092741,71.7937253 C15.6657024,70.939312 14.8938431,70.4340869 13.9509011,69.3057072 C12.9125096,68.0644875 12.3617258,67.0784562 12.1999396,65.5100618 C12.1181249,64.7213981 12.1883946,63.9656494 12.3738038,63.2414518 C12.4981595,62.7557259 12.6352543,62.3973864 12.8406101,61.9402932 C13.2419858,61.0538193 13.862898,60.2266871 15.0271358,59.1674467 C16.0062893,58.2762357 16.8487398,57.6760152 17.7417501,57.1314342 C18.7507451,56.515402 19.7472512,55.9359411 20.6907636,55.4090903 C21.3222261,55.0564861 21.8838095,54.7537935 22.1698768,54.6060824 C25.3927009,52.9354178 26.0192188,52.6138053 26.7776989,52.2488762 C28.0347971,51.6437939 28.8526166,51.2705498 30.6889488,50.4699369 C29.3035861,50.268748 28.1281478,50.0191369 26.3616934,49.5938307 C25.8418362,49.4683846 25.2937337,49.3280194 24.583474,49.1307885 C23.5279189,48.8376731 22.4128783,48.4987266 21.2571483,48.1107184 C19.3039008,47.454997 17.7260131,46.8351125 16.3318336,46.2342537 C15.4411893,45.8499758 15.0803979,45.6925568 14.626325,45.4872051 C14.2217606,45.3042433 13.8542295,45.1315095 13.4965737,44.9552666 C12.778535,44.6014369 12.0953375,44.2306076 11.3709908,43.7981221 C9.55499997,42.7131336 8.15778421,41.6714799 6.99973505,40.6834939 C6.0522468,39.8752562 5.20973292,39.0600305 4.46828533,38.2602816 C3.96695591,37.7195318 3.6024269,37.2880353 3.27480426,36.8736877 C1.77507214,34.9741292 1.18013855,34.0228245 0.657897022,32.3189101 C0.0693021942,30.3963102 -0.101711191,29.0624058 0.390068047,27.2631821 C0.645729625,26.3292654 1.06323882,25.5099101 1.60073468,24.791494 C1.96580749,24.3035382 2.29061667,23.9684827 2.72781458,23.5721255 C3.60749989,22.7767214 4.71660084,22.1915727 6.5188749,21.6864222 C7.36349118,21.4495304 8.18632234,21.2811306 8.98381927,21.1673253 C9.53402607,21.0888091 9.95507708,21.0492781 10.4512112,21.0166258 C11.8279377,20.927586 13.1747698,20.8717418 14.4418869,20.8429367 C15.2866439,20.823733 16.0279679,20.8186261 16.4178443,20.8229358 C18.1717476,20.8404483 18.7005203,20.8459201 19.3755039,20.8539608 C20.919878,20.872358 21.8002821,20.8901307 22.4978374,20.919143 C23.2310491,20.9494784 23.9048884,20.984096 24.58931,21.0263766 C25.7897849,21.1005366 26.6760316,21.1697866 29.4174045,21.3968024 C32.6274127,21.6631514 33.6486211,21.7584752 35.4332061,21.9728028 C36.1825521,22.0630975 36.6855845,22.1305698 37.2042027,22.20847 C37.4958369,22.2528595 37.6424776,22.2756389 37.9261294,22.3197378 C38.16378,22.3565405 38.3633727,22.3869172 38.5877077,22.4201947 C39.183221,22.5085323 39.8834518,22.6066119 40.8090253,22.7298819 C44.9430006,23.2810145 45.4198552,23.3540499 46.6314575,23.6192332 C47.0098956,23.7015625 47.3497869,23.780557 47.7101688,23.8687054 C47.9031398,23.9159055 48.4714072,24.0582927 48.5220156,24.0708104 C48.6982673,24.1144052 48.8438198,24.1493316 48.9878456,24.1823379 C49.3831816,24.2729371 49.7835868,24.352332 50.2950413,24.4386086 C50.4039494,24.4569897 50.501137,24.4730303 50.5928096,24.4876595 C50.5065498,23.8418155 50.4618564,23.1807805 50.4618564,22.5087038 C50.4618564,18.2532881 52.25366,14.4405403 55.0434404,12.1237844 C54.7211972,11.791114 54.366417,11.49119 53.980135,11.2320343 C52.182422,12.4329358 49.7332477,12.2353247 48.1499338,10.6392008 C46.3496858,8.82293135 46.3496858,5.88609167 48.1499338,4.06982226 C49.9569715,2.24816453 52.8918511,2.24816453 54.6988854,4.06981881 C55.9945717,5.3759795 56.3583047,7.26238205 55.7900857,8.89431958 C56.4630304,9.37065306 57.0651588,9.93150595 57.5933186,10.5573011 C58.7570188,10.061185 60.0181898,9.78970815 61.3415328,9.78970815 C61.809376,9.78970815 62.2694472,9.82362845 62.7201874,9.88940059 C63.5062292,8.24323172 64.6682178,6.80485192 66.1724998,5.7830857 C66.1572329,5.62931214 66.149416,5.47334765 66.149416,5.31556517 C66.149416,2.74941033 68.2170882,0.664138981 70.7741854,0.664138981 C73.3320432,0.664138981 75.399942,2.74918381 75.399942,5.31556517 C75.399942,7.88194654 73.3320432,9.96699136 70.7741854,9.96699136 C69.4551612,9.96699136 68.2663628,9.41214386 67.4244069,8.52265325 L67.4244069,8.52265325 Z" transform="translate(2 6)"/>
</svg>
